{
.appVersion = "1352";
copyright = "Copyright 2015 The Gwendolyn Project Authors (https://github.com/googlefonts/gwendolyn)";
customParameters = (
{
name = panose;
value = (
2,
0,
5,
6,
7,
0,
0,
2,
0,
3
);
},
{
name = blueScale;
value = 0.36364;
},
{
name = licenseURL;
value = "https://scripts.sil.org/OFL";
},
{
name = license;
value = "This Font Software is licensed under the SIL Open Font License, Version 1.1. This license is available with a FAQ at: https://scripts.sil.org/OFL";
},
{
name = vendorID;
value = GOOG;
},
{
name = "Disable Subroutines";
value = 1;
},
{
name = glyphOrder;
value = (
.notdef,
CR,
NULL,
space,
nbspace
);
},
{
name = fsType;
value = (
);
},
{
name = "Use Typo Metrics";
value = 1;
},
{
name = Axes;
value = (
{
Name = Weight;
Tag = wght;
}
);
}
);
date = "2021-10-20 23:56:43 +0000";
designer = "Robert E. Leuschke";
designerURL = www.typesetit.com;
disablesNiceNames = 1;
familyName = Gwendolyn;
featurePrefixes = (
{
automatic = 1;
code = "languagesystem DFLT dflt;\012\012languagesystem latn dflt;\012languagesystem latn AZE;\012languagesystem latn CRT;\012languagesystem latn KAZ;\012languagesystem latn TAT;\012languagesystem latn TRK;\012languagesystem latn ROM;\012languagesystem latn MOL;\012languagesystem latn CAT;\012";
name = Languagesystems;
}
);
features = (
{
automatic = 1;
code = "feature locl;\012feature sups;\012feature frac;\012feature ordn;\012";
name = aalt;
},
{
automatic = 1;

glyphs = (
{
color = 3;
glyphname = .notdef;
lastChange = "2021-09-06 05:04:03 +0000";
layers = (
{
layerId = "77B3CCE3-6B8C-428A-918A-7EE02BACD86D";
paths = (
{
closed = 1;
nodes = (
"438 -5 LINE",
"449 7 LINE",
"449 575 LINE",
"438 587 LINE",
"47 587 LINE",
"35 575 LINE",
"35 7 LINE",
"47 -5 LINE"
);
},
{
closed = 1;
nodes = (
"142 139 LINE",
"225 292 LINE",
"142 443 LINE",
"153 465 LINE",
"236 314 LINE",
"321 466 LINE",
"334 443 LINE",
"248 290 LINE",
"334 139 LINE",
"321 117 LINE",
"236 267 LINE",
"153 117 LINE"
);
},
{
closed = 1;
nodes = (
"61 561 LINE",
"425 561 LINE",
"425 21 LINE",
"61 21 LINE"
);
},
{
closed = 1;
nodes = (
"402 40 LINE",
"402 538 LINE",
"82 538 LINE",
"82 40 LINE"
);
}
);
width = 484;
},
{
layerId = "2C4661F8-41E7-4C5B-84DD-C81E3350E201";
paths = (
{
closed = 1;
nodes = (
"438 -5 LINE",
"449 7 LINE",
"449 575 LINE",
"438 587 LINE",
"47 587 LINE",
"35 575 LINE",
"35 7 LINE",
"47 -5 LINE"
);
},
{
closed = 1;
nodes = (
"142 139 LINE",
"225 292 LINE",
"142 443 LINE",
"153 465 LINE",
"236 314 LINE",
"321 466 LINE",
"334 443 LINE",
"248 290 LINE",
"334 139 LINE",
"321 117 LINE",
"236 267 LINE",
"153 117 LINE"
);
},
{
closed = 1;
nodes = (
"61 561 LINE",
"425 561 LINE",
"425 21 LINE",
"61 21 LINE"
);
},
{
closed = 1;
nodes = (
"402 40 LINE",
"402 538 LINE",
"82 538 LINE",
"82 40 LINE"
);
}
);
width = 484;
}
);
note = .notdef;
},
{
color = 3;
glyphname = A;
lastChange = "2021-09-06 07:47:45 +0000";
layers = (
{
hints = (
{
horizontal = 1;
place = "{-146, 13}";
type = Stem;
},
{
horizontal = 1;
place = "{326, 12}";
type = Stem;
},
{
horizontal = 1;
place = "{607, 29}";
type = Stem;
},
{
place = "{21, 37}";
type = Stem;
},
{
place = "{376, 23}";
type = Stem;
},
{
place = "{718, 27}";
type = Stem;
}
);
layerId = "77B3CCE3-6B8C-428A-918A-7EE02BACD86D";
paths = (
{
closed = 1;
nodes = (
"331 -152 OFFCURVE",
"480 -1 OFFCURVE",
"603 218 CURVE SMOOTH",
"624 255 OFFCURVE",
"645 290 OFFCURVE",
"666 321 CURVE",
"713 319 OFFCURVE",
"762 311 OFFCURVE",
"806 305 CURVE",
"776 245 OFFCURVE",
"746 181 OFFCURVE",
"728 117 CURVE SMOOTH",
"693 -8 OFFCURVE",
"755 -35 OFFCURVE",
"846 38 CURVE SMOOTH",
"895 78 OFFCURVE",
"947 139 OFFCURVE",
"978 193 CURVE",
"981 197 OFFCURVE",
"970 205 OFFCURVE",
"969 201 CURVE",
"936 145 OFFCURVE",
"882 84 OFFCURVE",
"835 46 CURVE SMOOTH",
"755 -20 OFFCURVE",
"725 -3 OFFCURVE",
"759 96 CURVE SMOOTH",
"784 167 OFFCURVE",
"820 233 OFFCURVE",
"852 301 CURVE",
"885 298 OFFCURVE",
"913 300 OFFCURVE",
"932 312 CURVE SMOOTH",
"951 324 OFFCURVE",
"942 332 OFFCURVE",
"923 320 CURVE SMOOTH",
"908 311 OFFCURVE",
"885 310 OFFCURVE",
"858 312 CURVE",
"921 445 OFFCURVE",
"1009 636 OFFCURVE",
"1004 636 CURVE SMOOTH",
"962 636 OFFCURVE",
"827 583 OFFCURVE",
"663 339 CURVE",
"584 341 OFFCURVE",
"506 320 OFFCURVE",
"455 231 CURVE SMOOTH",
"433 193 OFFCURVE",
"461 210 OFFCURVE",
"467 223 CURVE SMOOTH",
"502 302 OFFCURVE",
"574 322 OFFCURVE",
"652 321 CURVE",
"633 293 OFFCURVE",
"614 261 OFFCURVE",
"594 227 CURVE SMOOTH",
"487 40 OFFCURVE",
"343 -140 OFFCURVE",
"179 -133 CURVE SMOOTH",
"75 -128 OFFCURVE",
"28 -18 OFFCURVE",
"80 128 CURVE SMOOTH",
"116 228 OFFCURVE",
"197 327 OFFCURVE",
"295 326 CURVE SMOOTH",
"353 326 OFFCURVE",
"397 273 OFFCURVE",
"366 169 CURVE SMOOTH",
"322 17 OFFCURVE",
"199 21 OFFCURVE",
"196 47 CURVE SMOOTH",
"195 57 OFFCURVE",
"182 55 OFFCURVE",
"187 42 CURVE SMOOTH",
"199 8 OFFCURVE",
"343 11 OFFCURVE",
"390 171 CURVE SMOOTH",
"422 280 OFFCURVE",
"365 338 OFFCURVE",
"297 338 CURVE SMOOTH",
"200 338 OFFCURVE",
"84 247 OFFCURVE",
"42 134 CURVE SMOOTH",
"-20 -33 OFFCURVE",
"66 -142 OFFCURVE",
"177 -146 CURVE SMOOTH"
);
},
{
closed = 1;
nodes = (
"772 326 OFFCURVE",
"725 336 OFFCURVE",
"677 338 CURVE",
"842 581 OFFCURVE",
"977 625 OFFCURVE",
"965 601 CURVE SMOOTH",
"939 545 OFFCURVE",
"875 442 OFFCURVE",
"813 319 CURVE"
);
}
);
width = 905;
},
{
hints = (
{
horizontal = 1;
place = "{-146, 18}";
type = Stem;
},
{
horizontal = 1;
place = "{-3, 17}";
type = Stem;
},
{
horizontal = 1;
place = "{23, 18}";
type = Stem;
},
{
horizontal = 1;
place = "{325, 17}";
type = Stem;
},
{
horizontal = 1;
place = "{636, -20}";
target = down;
type = TopGhost;
},
{
place = "{16, 60}";
type = Stem;
},
{
place = "{371, 33}";
type = Stem;
},
{
place = "{699, 51}";
type = Stem;
}
);
layerId = "2C4661F8-41E7-4C5B-84DD-C81E3350E201";
paths = (
{
closed = 1;
nodes = (
"1008 625 OFFCURVE",
"1013 636 OFFCURVE",
"1004 636 CURVE SMOOTH",
"960 636 OFFCURVE",
"824 582 OFFCURVE",
"660 343 CURVE",
"581 344 OFFCURVE",
"503 323 OFFCURVE",
"451 234 CURVE SMOOTH",
"445 224 OFFCURVE",
"442 217 OFFCURVE",
"442 213 CURVE SMOOTH",
"441 206 OFFCURVE",
"446 202 OFFCURVE",
"452 204 CURVE SMOOTH",
"459 205 OFFCURVE",
"463 214 OFFCURVE",
"467 221 CURVE",
"499 294 OFFCURVE",
"561 299 OFFCURVE",
"634 300 CURVE",
"617 274 OFFCURVE",
"599 245 OFFCURVE",
"581 215 CURVE SMOOTH",
"473 30 OFFCURVE",
"340 -135 OFFCURVE",
"179 -128 CURVE SMOOTH",
"81 -124 OFFCURVE",
"49 -16 OFFCURVE",
"101 127 CURVE SMOOTH",
"137 225 OFFCURVE",
"200 326 OFFCURVE",
"295 325 CURVE SMOOTH",
"348 325 OFFCURVE",
"391 272 OFFCURVE",
"361 171 CURVE SMOOTH",
"339 98 OFFCURVE",
"299 62 OFFCURVE",
"264 48 CURVE SMOOTH",
"226 33 OFFCURVE",
"202 44 OFFCURVE",
"201 50 CURVE SMOOTH",
"199 67 OFFCURVE",
"175 63 OFFCURVE",
"182 43 CURVE SMOOTH",
"190 21 OFFCURVE",
"234 16 OFFCURVE",
"277 32 CURVE SMOOTH",
"322 49 OFFCURVE",
"371 90 OFFCURVE",
"395 171 CURVE SMOOTH",
"428 281 OFFCURVE",
"369 342 OFFCURVE",
"297 342 CURVE SMOOTH",
"198 342 OFFCURVE",
"80 250 OFFCURVE",
"37 137 CURVE SMOOTH",
"-26 -30 OFFCURVE",
"62 -142 OFFCURVE",
"177 -146 CURVE SMOOTH",
"334 -152 OFFCURVE",
"476 -15 OFFCURVE",
"599 201 CURVE SMOOTH",
"619 237 OFFCURVE",
"640 270 OFFCURVE",
"660 300 CURVE",
"704 298 OFFCURVE",
"733 293 OFFCURVE",
"775 288 CURVE",
"746 230 OFFCURVE",
"725 184 OFFCURVE",
"708 122 CURVE SMOOTH",
"671 -6 OFFCURVE",
"755 -38 OFFCURVE",
"849 37 CURVE SMOOTH",
"899 76 OFFCURVE",
"951 138 OFFCURVE",
"982 191 CURVE SMOOTH",
"988 201 OFFCURVE",
"970 213 OFFCURVE",
"964 204 CURVE SMOOTH",
"932 149 OFFCURVE",
"878 89 OFFCURVE",
"832 52 CURVE SMOOTH",
"755 -10 OFFCURVE",
"732 5 OFFCURVE",
"764 96 CURVE SMOOTH",
"788 165 OFFCURVE",
"815 214 OFFCURVE",
"846 280 CURVE",
"878 278 OFFCURVE",
"915 295 OFFCURVE",
"935 307 CURVE SMOOTH",
"957 321 OFFCURVE",
"947 339 OFFCURVE",
"920 323 CURVE SMOOTH",
"908 316 OFFCURVE",
"889 314 OFFCURVE",
"866 316 CURVE",
"897 380 OFFCURVE",
"933 457 OFFCURVE",
"961 518 CURVE SMOOTH",
"976 550 OFFCURVE",
"988 578 OFFCURVE",
"997 598 CURVE SMOOTH",
"1001 608 OFFCURVE",
"1004 616 OFFCURVE",
"1007 621 CURVE"
);
},
{
closed = 1;
nodes = (
"933 542 OFFCURVE",
"856 445 OFFCURVE",
"795 326 CURVE",
"757 332 OFFCURVE",
"730 339 OFFCURVE",
"686 341 CURVE",
"767 456 OFFCURVE",
"839 525 OFFCURVE",
"890 562 CURVE SMOOTH",
"902 570 OFFCURVE",
"941 597 OFFCURVE",
"960 597 CURVE"
);
}
);
width = 905;
}
);
note = A;
unicode = 0041;
},
{
color = 3;
glyphname = AE;
lastChange = "2021-09-06 07:47:45 +0000";
layers = (
{
hints = (
{
horizontal = 1;
place = "{-146, 13}";
type = Stem;
},
{
horizontal = 1;
place = "{-38, 13}";
type = Stem;
},
{
horizontal = 1;
place = "{283, 16}";
type = Stem;
},
{
horizontal = 1;
place = "{326, 12}";
type = Stem;
},
{
horizontal = 1;
place = "{636, -20}";
target = down;
type = TopGhost;
},
{
place = "{21, 37}";
type = Stem;
},
{
place = "{376, 23}";
type = Stem;
},
{
place = "{746, 49}";
type = Stem;
},
{
place = "{941, 43}";
type = Stem;
},
{
place = "{1042, 12}";
type = Stem;
},
{
place = "{1092, 15}";
type = Stem;
},
{
place = "{1199, 20}";
type = Stem;
}
);
layerId = "77B3CCE3-6B8C-428A-918A-7EE02BACD86D";
paths = (
{
closed = 1;
nodes = (
"331 -152 OFFCURVE",
"480 -1 OFFCURVE",
"603 218 CURVE SMOOTH",
"624 255 OFFCURVE",
"645 290 OFFCURVE",
"666 321 CURVE",
"713 319 OFFCURVE",
"762 311 OFFCURVE",
"806 305 CURVE",
"786 264 OFFCURVE",
"785 263 OFFCURVE",
"782 247 CURVE",
"706 119 OFFCURVE",
"747 -38 OFFCURVE",
"943 -38 CURVE SMOOTH",
"1101 -38 OFFCURVE",
"1243 53 OFFCURVE",
"1243 195 CURVE SMOOTH",
"1243 260 OFFCURVE",
"1196 299 OFFCURVE",
"1143 299 CURVE SMOOTH",
"1076 299 OFFCURVE",
"1034 256 OFFCURVE",
"1044 196 CURVE SMOOTH",
"1048 174 OFFCURVE",
"1056 188 OFFCURVE",
"1056 191 CURVE SMOOTH",
"1050 232 OFFCURVE",
"1064 283 OFFCURVE",
"1135 283 CURVE SMOOTH",
"1166 283 OFFCURVE",
"1206 255 OFFCURVE",
"1206 195 CURVE SMOOTH",
"1206 65 OFFCURVE",
"1087 -25 OFFCURVE",
"936 -25 CURVE SMOOTH",
"690 -25 OFFCURVE",
"808 316 OFFCURVE",
"972 376 CURVE",
"1017 338 OFFCURVE",
"1095 343 OFFCURVE",
"1106 370 CURVE SMOOTH",
"1110 380 OFFCURVE",
"1108 404 OFFCURVE",
"1058 405 CURVE SMOOTH",
"1037 406 OFFCURVE",
"1015 402 OFFCURVE",
"993 397 CURVE",
"983 417 OFFCURVE",
"980 447 OFFCURVE",
"996 492 CURVE SMOOTH",
"1016 549 OFFCURVE",
"1074 609 OFFCURVE",
"1137 606 CURVE SMOOTH",
"1176 605 OFFCURVE",
"1214 580 OFFCURVE",
"1195 522 CURVE SMOOTH",
"1186 492 OFFCURVE",
"1155 471 OFFCURVE",
"1137 471 CURVE SMOOTH",
"1102 471 OFFCURVE",
"1114 497 OFFCURVE",
"1122 504 CURVE",
"1124 509 OFFCURVE",
"1112 513 OFFCURVE",
"1106 495 CURVE SMOOTH",
"1100 478 OFFCURVE",
"1112 461 OFFCURVE",
"1135 461 CURVE SMOOTH",
"1169 461 OFFCURVE",
"1203 481 OFFCURVE",
"1216 521 CURVE SMOOTH",
"1230 566 OFFCURVE",
"1204 618 OFFCURVE",
"1134 618 CURVE SMOOTH",
"1024 618 OFFCURVE",
"970 557 OFFCURVE",
"950 495 CURVE SMOOTH",
"934 445 OFFCURVE",
"942 411 OFFCURVE",
"961 388 CURVE",
"929 377 OFFCURVE",
"900 362 OFFCURVE",
"874 345 CURVE",
"883 362 LINE SMOOTH",
"953 499 OFFCURVE",
"1009 636 OFFCURVE",
"1004 636 CURVE SMOOTH",
"962 636 OFFCURVE",
"827 583 OFFCURVE",
"663 339 CURVE",
"584 341 OFFCURVE",
"506 320 OFFCURVE",
"455 231 CURVE SMOOTH",
"433 193 OFFCURVE",
"461 210 OFFCURVE",
"467 223 CURVE SMOOTH",
"502 302 OFFCURVE",
"574 322 OFFCURVE",
"652 321 CURVE",
"633 293 OFFCURVE",
"614 261 OFFCURVE",
"594 227 CURVE SMOOTH",
"487 40 OFFCURVE",
"343 -140 OFFCURVE",
"179 -133 CURVE SMOOTH",
"75 -128 OFFCURVE",
"28 -18 OFFCURVE",
"80 128 CURVE SMOOTH",
"116 228 OFFCURVE",
"197 327 OFFCURVE",
"295 326 CURVE SMOOTH",
"353 326 OFFCURVE",
"397 273 OFFCURVE",
"366 169 CURVE SMOOTH",
"322 17 OFFCURVE",
"199 21 OFFCURVE",
"196 47 CURVE SMOOTH",
"195 57 OFFCURVE",
"182 55 OFFCURVE",
"187 42 CURVE SMOOTH",
"199 8 OFFCURVE",
"343 11 OFFCURVE",
"390 171 CURVE SMOOTH",
"422 280 OFFCURVE",
"365 338 OFFCURVE",
"297 338 CURVE SMOOTH",
"200 338 OFFCURVE",
"84 247 OFFCURVE",
"42 134 CURVE SMOOTH",
"-20 -33 OFFCURVE",
"66 -142 OFFCURVE",
"177 -146 CURVE SMOOTH"
);
},
{
closed = 1;
nodes = (
"772 326 OFFCURVE",
"725 336 OFFCURVE",
"677 338 CURVE",
"842 581 OFFCURVE",
"977 625 OFFCURVE",
"965 601 CURVE SMOOTH",
"939 545 OFFCURVE",
"875 442 OFFCURVE",
"813 319 CURVE"
);
},
{
closed = 1;
nodes = (
"1038 361 OFFCURVE",
"1015 366 OFFCURVE",
"999 386 CURVE",
"1019 392 OFFCURVE",
"1039 394 OFFCURVE",
"1056 394 CURVE SMOOTH",
"1116 394 OFFCURVE",
"1094 354 OFFCURVE",
"1043 360 CURVE SMOOTH"
);
}
);
width = 1279;
},
{
hints = (
{
horizontal = 1;
place = "{-146, 23}";
type = Stem;
},
{
horizontal = 1;
place = "{-39, 22}";
type = Stem;
},
{
horizontal = 1;
place = "{23, 18}";
type = Stem;
},
{
horizontal = 1;
place = "{342, 66}";
type = Stem;
},
{
horizontal = 1;
place = "{473, -20}";
target = down;
type = TopGhost;
},
{
horizontal = 1;
place = "{636, -20}";
target = down;
type = TopGhost;
},
{
place = "{16, 47}";
type = Stem;
},
{
place = "{371, 42}";
type = Stem;
},
{
place = "{753, 71}";
type = Stem;
},
{
place = "{947, 60}";
type = Stem;
},
{
place = "{1117, 27}";
type = Stem;
},
{
place = "{1231, 47}";
type = Stem;
},
{
horizontal = 1;
place = "{320, 22}";
type = Stem;
}
);
layerId = "2C4661F8-41E7-4C5B-84DD-C81E3350E201";
paths = (
{
closed = 1;
nodes = (
"1278 263 OFFCURVE",
"1229 303 OFFCURVE",
"1173 303 CURVE SMOOTH",
"1104 303 OFFCURVE",
"1060 250 OFFCURVE",
"1069 196 CURVE SMOOTH",
"1072 180 OFFCURVE",
"1079 179 OFFCURVE",
"1083 180 CURVE",
"1107 190 OFFCURVE",
"1063 278 OFFCURVE",
"1165 278 CURVE SMOOTH",
"1193 278 OFFCURVE",
"1231 252 OFFCURVE",
"1231 196 CURVE SMOOTH",
"1231 71 OFFCURVE",
"1115 -17 OFFCURVE",
"966 -17 CURVE SMOOTH",
"727 -17 OFFCURVE",
"828 308 OFFCURVE",
"996 369 CURVE",
"1042 333 OFFCURVE",
"1123 335 OFFCURVE",
"1136 367 CURVE SMOOTH",
"1142 381 OFFCURVE",
"1135 407 OFFCURVE",
"1083 408 CURVE SMOOTH",
"1063 409 OFFCURVE",
"1032 405 OFFCURVE",
"1011 401 CURVE",
"1003 419 OFFCURVE",
"1011 446 OFFCURVE",
"1026 487 CURVE SMOOTH",
"1045 543 OFFCURVE",
"1102 599 OFFCURVE",
"1162 597 CURVE SMOOTH",
"1199 595 OFFCURVE",
"1232 573 OFFCURVE",
"1215 520 CURVE SMOOTH",
"1206 492 OFFCURVE",
"1177 473 OFFCURVE",
"1162 473 CURVE SMOOTH",
"1136 473 OFFCURVE",
"1145 492 OFFCURVE",
"1152 498 CURVE",
"1154 507 OFFCURVE",
"1147 511 OFFCURVE",
"1141 510 CURVE SMOOTH",
"1121 506 OFFCURVE",
"1098 454 OFFCURVE",
"1145 454 CURVE SMOOTH",
"1181 454 OFFCURVE",
"1232 475 OFFCURVE",
"1246 516 CURVE SMOOTH",
"1261 564 OFFCURVE",
"1232 618 OFFCURVE",
"1159 618 CURVE SMOOTH",
"1088 618 OFFCURVE",
"1029 593 OFFCURVE",
"997 558 CURVE SMOOTH",
"961 518 OFFCURVE",
"927 439 OFFCURVE",
"963 389 CURVE",
"939 380 OFFCURVE",
"917 370 OFFCURVE",
"897 358 CURVE",
"932 424 OFFCURVE",
"968 491 OFFCURVE",
"997 558 CURVE SMOOTH",
"1006 579 OFFCURVE",
"1017 602 OFFCURVE",
"1023 624 CURVE SMOOTH",
"1024 628 OFFCURVE",
"1026 636 OFFCURVE",
"1019 636 CURVE SMOOTH",
"975 636 OFFCURVE",
"824 582 OFFCURVE",
"660 343 CURVE",
"581 344 OFFCURVE",
"503 323 OFFCURVE",
"451 234 CURVE SMOOTH",
"445 224 OFFCURVE",
"442 217 OFFCURVE",
"442 213 CURVE SMOOTH",
"441 206 OFFCURVE",
"446 202 OFFCURVE",
"452 204 CURVE SMOOTH",
"459 205 OFFCURVE",
"468 214 OFFCURVE",
"472 221 CURVE",
"504 294 OFFCURVE",
"569 314 OFFCURVE",
"643 315 CURVE",
"625 289 OFFCURVE",
"608 260 OFFCURVE",
"590 230 CURVE SMOOTH",
"482 45 OFFCURVE",
"340 -130 OFFCURVE",
"179 -123 CURVE SMOOTH",
"81 -119 OFFCURVE",
"33 -16 OFFCURVE",
"85 128 CURVE SMOOTH",
"120 226 OFFCURVE",
"200 321 OFFCURVE",
"295 320 CURVE SMOOTH",
"348 320 OFFCURVE",
"391 272 OFFCURVE",
"361 171 CURVE SMOOTH",
"339 98 OFFCURVE",
"299 62 OFFCURVE",
"264 48 CURVE SMOOTH",
"225 33 OFFCURVE",
"202 44 OFFCURVE",
"201 50 CURVE SMOOTH",
"199 67 OFFCURVE",
"175 63 OFFCURVE",
"182 43 CURVE SMOOTH",
"190 21 OFFCURVE",
"234 16 OFFCURVE",
"277 32 CURVE SMOOTH",
"322 49 OFFCURVE",
"381 90 OFFCURVE",
"405 171 CURVE SMOOTH",
"438 281 OFFCURVE",
"369 342 OFFCURVE",
"297 342 CURVE SMOOTH",
"198 342 OFFCURVE",
"80 250 OFFCURVE",
"37 137 CURVE SMOOTH",
"-26 -30 OFFCURVE",
"62 -142 OFFCURVE",
"177 -146 CURVE SMOOTH",
"334 -152 OFFCURVE",
"484 0 OFFCURVE",
"607 216 CURVE SMOOTH",
"628 252 OFFCURVE",
"648 285 OFFCURVE",
"669 315 CURVE",
"712 313 OFFCURVE",
"757 306 OFFCURVE",
"799 300 CURVE",
"714 133 OFFCURVE",
"735 -39 OFFCURVE",
"973 -39 CURVE SMOOTH",
"1132 -39 OFFCURVE",
"1278 52 OFFCURVE",
"1278 196 CURVE SMOOTH"
);
},
{
closed = 1;
nodes = (
"1109 369 OFFCURVE",
"1093 361 OFFCURVE",
"1069 364 CURVE SMOOTH",
"1065 364 OFFCURVE",
"1047 368 OFFCURVE",
"1033 382 CURVE",
"1050 386 OFFCURVE",
"1067 387 OFFCURVE",
"1081 387 CURVE SMOOTH",
"1106 387 OFFCURVE",
"1115 383 OFFCURVE",
"1111 375 CURVE SMOOTH"
);
},
{
closed = 1;
nodes = (
"933 542 OFFCURVE",
"871 442 OFFCURVE",
"810 324 CURVE",
"773 330 OFFCURVE",
"730 339 OFFCURVE",
"686 341 CURVE",
"767 456 OFFCURVE",
"839 525 OFFCURVE",
"890 562 CURVE SMOOTH",
"902 570 OFFCURVE",
"941 597 OFFCURVE",
"960 597 CURVE"
);
}
);
width = 1290;
}
);
note = AE;
unicode = 00C6;
},
{
color = 3;
glyphname = B;
lastChange = "2021-09-06 07:47:45 +0000";
layers = (
{
hints = (
{
horizontal = 1;
place = "{-41, 13}";
type = Stem;
},
{
horizontal = 1;
place = "{-22, 18}";
type = Stem;
},
{
horizontal = 1;
place = "{38, 19}";
type = Stem;
},
{
horizontal = 1;
place = "{214, 13}";
type = Stem;
},
{
horizontal = 1;
place = "{472, 10}";
type = Stem;
},
{
place = "{16, 27}";
type = Stem;
},
{
place = "{370, 17}";
type = Stem;
},
{
place = "{601, 46}";
type = Stem;
},
{
place = "{676, 39}";
type = Stem;
}
);
layerId = "77B3CCE3-6B8C-428A-918A-7EE02BACD86D";
paths = (
{
closed = 1;
nodes = (
"129 -39 OFFCURVE",
"180 -13 OFFCURVE",
"213 8 CURVE",
"229 1 OFFCURVE",
"247 -7 OFFCURVE",
"268 -12 CURVE SMOOTH",
"450 -59 OFFCURVE",
"649 62 OFFCURVE",
"647 199 CURVE SMOOTH",
"646 294 OFFCURVE",
"562 320 OFFCURVE",
"487 331 CURVE",
"587 339 OFFCURVE",
"715 387 OFFCURVE",
"715 500 CURVE SMOOTH",
"715 560 OFFCURVE",
"682 594 OFFCURVE",
"633 613 CURVE",
"684 657 OFFCURVE",
"715 649 OFFCURVE",
"733 647 CURVE SMOOTH",
"741 646 OFFCURVE",
"742 656 OFFCURVE",
"735 656 CURVE",
"735 657 LINE",
"731 657 OFFCURVE",
"687 671 OFFCURVE",
"616 620 CURVE",
"584 630 OFFCURVE",
"547 634 OFFCURVE",
"509 636 CURVE SMOOTH",
"382 641 OFFCURVE",
"197 580 OFFCURVE",
"112 439 CURVE SMOOTH",
"35 310 OFFCURVE",
"79 215 OFFCURVE",
"171 214 CURVE SMOOTH",
"243 213 OFFCURVE",
"323 252 OFFCURVE",
"366 339 CURVE SMOOTH",
"404 415 OFFCURVE",
"390 482 OFFCURVE",
"331 482 CURVE SMOOTH",
"280 482 OFFCURVE",
"234 444 OFFCURVE",
"221 402 CURVE SMOOTH",
"214 380 OFFCURVE",
"226 364 OFFCURVE",
"244 364 CURVE SMOOTH",
"263 364 OFFCURVE",
"263 376 OFFCURVE",
"258 376 CURVE",
"249 371 OFFCURVE",
"220 368 OFFCURVE",
"231 401 CURVE SMOOTH",
"245 445 OFFCURVE",
"295 472 OFFCURVE",
"326 472 CURVE SMOOTH",
"380 472 OFFCURVE",
"383 408 OFFCURVE",
"341 332 CURVE SMOOTH",
"299 255 OFFCURVE",
"215 220 OFFCURVE",
"178 228 CURVE SMOOTH",
"21 261 OFFCURVE",
"155 632 OFFCURVE",
"507 624 CURVE SMOOTH",
"543 623 OFFCURVE",
"575 618 OFFCURVE",
"601 608 CURVE",
"547 565 OFFCURVE",
"478 484 OFFCURVE",
"398 334 CURVE SMOOTH",
"348 239 OFFCURVE",
"282 101 OFFCURVE",
"202 26 CURVE",
"147 48 OFFCURVE",
"96 69 OFFCURVE",
"52 51 CURVE SMOOTH",
"-3 29 OFFCURVE",
"2 -46 OFFCURVE",
"88 -41 CURVE SMOOTH"
);
},
{
closed = 1;
nodes = (
"15 -36 OFFCURVE",
"38 25 OFFCURVE",
"83 35 CURVE SMOOTH",
"126 44 OFFCURVE",
"157 32 OFFCURVE",
"192 17 CURVE",
"164 -9 OFFCURVE",
"133 -25 OFFCURVE",
"100 -28 CURVE SMOOTH"
);
},
{
closed = 1;
nodes = (
"255 7 OFFCURVE",
"240 12 OFFCURVE",
"226 17 CURVE",
"348 100 OFFCURVE",
"395 227 OFFCURVE",
"444 328 CURVE",
"523 314 OFFCURVE",
"618 288 OFFCURVE",
"599 186 CURVE SMOOTH",
"571 31 OFFCURVE",
"381 -26 OFFCURVE",
"270 3 CURVE SMOOTH"
);
},
{
closed = 1;
nodes = (
"474 403 OFFCURVE",
"564 548 OFFCURVE",
"619 600 CURVE",
"655 581 OFFCURVE",
"676 548 OFFCURVE",
"676 499 CURVE SMOOTH",
"676 378 OFFCURVE",
"552 346 OFFCURVE",
"447 336 CURVE"
);
}
);
width = 678;
},
{
hints = (
{
horizontal = 1;
place = "{-38, 22}";
type = Stem;
},
{
horizontal = 1;
place = "{213, 23}";
type = Stem;
},
{
horizontal = 1;
place = "{487, -20}";
target = down;
type = TopGhost;
},
{
horizontal = 1;
place = "{623, 14}";
type = Stem;
},
{
horizontal = 1;
place = "{659, -20}";
target = down;
type = TopGhost;
},
{
place = "{9, 37}";
type = Stem;
},
{
place = "{212, 20}";
type = Stem;
},
{
place = "{371, 19}";
type = Stem;
},
{
place = "{593, 70}";
type = Stem;
},
{
place = "{667, 64}";
type = Stem;
}
);
layerId = "2C4661F8-41E7-4C5B-84DD-C81E3350E201";
paths = (
{
closed = 1;
nodes = (
"756 656 OFFCURVE",
"743 657 OFFCURVE",
"736 658 CURVE SMOOTH",
"697 662 OFFCURVE",
"644 645 OFFCURVE",
"613 624 CURVE",
"581 633 OFFCURVE",
"545 637 OFFCURVE",
"507 639 CURVE SMOOTH",
"379 644 OFFCURVE",
"192 583 OFFCURVE",
"106 442 CURVE SMOOTH",
"28 314 OFFCURVE",
"71 214 OFFCURVE",
"169 213 CURVE SMOOTH",
"372 210 OFFCURVE",
"458 487 OFFCURVE",
"329 487 CURVE SMOOTH",
"276 487 OFFCURVE",
"228 448 OFFCURVE",
"214 405 CURVE SMOOTH",
"207 380 OFFCURVE",
"220 361 OFFCURVE",
"242 361 CURVE SMOOTH",
"268 361 OFFCURVE",
"268 382 OFFCURVE",
"254 383 CURVE",
"246 378 OFFCURVE",
"226 377 OFFCURVE",
"234 401 CURVE SMOOTH",
"247 441 OFFCURVE",
"295 467 OFFCURVE",
"324 467 CURVE SMOOTH",
"369 467 OFFCURVE",
"390 411 OFFCURVE",
"347 334 CURVE SMOOTH",
"306 260 OFFCURVE",
"211 229 OFFCURVE",
"177 236 CURVE SMOOTH",
"27 268 OFFCURVE",
"160 630 OFFCURVE",
"505 622 CURVE SMOOTH",
"537 621 OFFCURVE",
"570 617 OFFCURVE",
"594 610 CURVE",
"541 565 OFFCURVE",
"468 481 OFFCURVE",
"392 338 CURVE SMOOTH",
"340 243 OFFCURVE",
"273 108 OFFCURVE",
"194 33 CURVE",
"167 44 OFFCURVE",
"147 59 OFFCURVE",
"122 64 CURVE SMOOTH",
"-10 94 OFFCURVE",
"-32 -45 OFFCURVE",
"86 -38 CURVE SMOOTH",
"127 -36 OFFCURVE",
"190 -13 OFFCURVE",
"224 7 CURVE",
"240 0 OFFCURVE",
"257 -7 OFFCURVE",
"277 -12 CURVE SMOOTH",
"461 -59 OFFCURVE",
"664 61 OFFCURVE",
"663 201 CURVE SMOOTH",
"662 284 OFFCURVE",
"597 316 OFFCURVE",
"531 330 CURVE",
"625 345 OFFCURVE",
"731 394 OFFCURVE",
"731 497 CURVE SMOOTH",
"731 555 OFFCURVE",
"699 590 OFFCURVE",
"653 610 CURVE",
"675 628 OFFCURVE",
"693 635 OFFCURVE",
"707 638 CURVE SMOOTH",
"720 640 OFFCURVE",
"730 639 OFFCURVE",
"743 637 CURVE",
"749 637 OFFCURVE",
"754 640 OFFCURVE",
"755 646 CURVE SMOOTH"
);
},
{
closed = 1;
nodes = (
"667 384 OFFCURVE",
"569 352 OFFCURVE",
"465 341 CURVE",
"495 409 OFFCURVE",
"578 539 OFFCURVE",
"630 590 CURVE",
"663 572 OFFCURVE",
"667 542 OFFCURVE",
"667 496 CURVE SMOOTH"
);
},
{
closed = 1;
nodes = (
"562 40 OFFCURVE",
"386 -21 OFFCURVE",
"277 7 CURVE SMOOTH",
"265 10 OFFCURVE",
"254 14 OFFCURVE",
"243 18 CURVE",
"300 58 OFFCURVE",
"345 113 OFFCURVE",
"377 165 CURVE SMOOTH",
"409 218 OFFCURVE",
"433 273 OFFCURVE",
"457 322 CURVE",
"536 308 OFFCURVE",
"607 283 OFFCURVE",
"590 189 CURVE SMOOTH"
);
},
{
closed = 1;
nodes = (
"154 0 OFFCURVE",
"127 -13 OFFCURVE",
"98 -16 CURVE SMOOTH",
"19 -23 OFFCURVE",
"43 28 OFFCURVE",
"82 37 CURVE SMOOTH",
"121 45 OFFCURVE",
"149 35 OFFCURVE",
"181 22 CURVE"
);
}
);
width = 695;
}
);
note = B;
unicode = 0042;
},
{
color = 3;
glyphname = C;
lastChange = "2021-09-06 07:47:45 +0000";
layers = (
{
hints = (
{
horizontal = 1;
place = "{-53, 13}";
type = Stem;
},
{
horizontal = 1;
place = "{237, 12}";
type = Stem;
},
{
horizontal = 1;
place = "{350, 13}";
type = Stem;
},
{
horizontal = 1;
place = "{674, 15}";
type = Stem;
},
{
place = "{17, 33}";
type = Stem;
},
{
place = "{56, 50}";
type = Stem;
},
{
place = "{484, 27}";
type = Stem;
},
{
place = "{606, 21}";
type = Stem;
}
);
layerId = "77B3CCE3-6B8C-428A-918A-7EE02BACD86D";
paths = (
{
closed = 1;
nodes = (
"335 -64 OFFCURVE",
"456 32 OFFCURVE",
"493 108 CURVE SMOOTH",
"537 197 OFFCURVE",
"493 250 OFFCURVE",
"433 249 CURVE SMOOTH",
"377 249 OFFCURVE",
"341 200 OFFCURVE",
"346 168 CURVE",
"346 161 OFFCURVE",
"359 162 OFFCURVE",
"359 173 CURVE",
"355 206 OFFCURVE",
"398 237 OFFCURVE",
"430 237 CURVE SMOOTH",
"480 237 OFFCURVE",
"500 179 OFFCURVE",
"468 110 CURVE SMOOTH",
"432 30 OFFCURVE",
"335 -51 OFFCURVE",
"231 -39 CURVE SMOOTH",
"78 -21 OFFCURVE",
"85 155 OFFCURVE",
"145 287 CURVE SMOOTH",
"158 314 OFFCURVE",
"174 340 OFFCURVE",
"193 366 CURVE",
"226 356 OFFCURVE",
"263 350 OFFCURVE",
"306 350 CURVE SMOOTH",
"505 350 OFFCURVE",
"602 466 OFFCURVE",
"618 512 CURVE SMOOTH",
"636 561 OFFCURVE",
"633 620 OFFCURVE",
"522 614 CURVE SMOOTH",
"382 607 OFFCURVE",
"246 508 OFFCURVE",
"160 402 CURVE",
"65 459 OFFCURVE",
"28 568 OFFCURVE",
"61 631 CURVE SMOOTH",
"89 685 OFFCURVE",
"201 704 OFFCURVE",
"263 585 CURVE",
"267 575 OFFCURVE",
"277 584 OFFCURVE",
"276 587 CURVE",
"201 734 OFFCURVE",
"72 689 OFFCURVE",
"42 650 CURVE SMOOTH",
"-12 581 OFFCURVE",
"18 447 OFFCURVE",
"145 384 CURVE",
"122 353 OFFCURVE",
"103 323 OFFCURVE",
"89 292 CURVE SMOOTH",
"19 139 OFFCURVE",
"55 -31 OFFCURVE",
"227 -52 CURVE SMOOTH"
);
},
{
closed = 1;
nodes = (
"269 363 OFFCURVE",
"234 369 OFFCURVE",
"204 381 CURVE",
"294 494 OFFCURVE",
"437 591 OFFCURVE",
"527 600 CURVE SMOOTH",
"607 608 OFFCURVE",
"615 558 OFFCURVE",
"598 513 CURVE SMOOTH",
"581 468 OFFCURVE",
"497 363 OFFCURVE",
"307 363 CURVE SMOOTH"
);
}
);
width = 524;
},
{
hints = (
{
horizontal = 1;
place = "{-53, 18}";
type = Stem;
},
{
horizontal = 1;
place = "{239, 17}";
type = Stem;
},
{
horizontal = 1;
place = "{345, 18}";
type = Stem;
},
{
horizontal = 1;
place = "{672, 16}";
type = Stem;
},
{
place = "{12, 36}";
type = Stem;
},
{
place = "{52, 69}";
type = Stem;
},
{
place = "{474, 41}";
type = Stem;
},
{
place = "{600, 31}";
type = Stem;
}
);
layerId = "2C4661F8-41E7-4C5B-84DD-C81E3350E201";
paths = (
{
closed = 1;
nodes = (
"642 559 OFFCURVE",
"638 621 OFFCURVE",
"522 615 CURVE SMOOTH",
"382 608 OFFCURVE",
"246 512 OFFCURVE",
"159 408 CURVE",
"69 464 OFFCURVE",
"25 579 OFFCURVE",
"60 633 CURVE SMOOTH",
"97 690 OFFCURVE",
"208 694 OFFCURVE",
"269 580 CURVE",
"275 564 OFFCURVE",
"284 576 OFFCURVE",
"281 586 CURVE",
"207 730 OFFCURVE",
"78 694 OFFCURVE",
"39 645 CURVE SMOOTH",
"-17 575 OFFCURVE",
"14 446 OFFCURVE",
"138 382 CURVE",
"116 353 OFFCURVE",
"98 323 OFFCURVE",
"85 295 CURVE SMOOTH",
"16 146 OFFCURVE",
"49 -53 OFFCURVE",
"249 -53 CURVE SMOOTH",
"354 -53 OFFCURVE",
"463 38 OFFCURVE",
"498 109 CURVE SMOOTH",
"543 199 OFFCURVE",
"493 256 OFFCURVE",
"429 255 CURVE SMOOTH",
"370 255 OFFCURVE",
"331 205 OFFCURVE",
"337 170 CURVE",
"337 157 OFFCURVE",
"355 158 OFFCURVE",
"355 176 CURVE",
"351 204 OFFCURVE",
"395 239 OFFCURVE",
"426 239 CURVE SMOOTH",
"469 239 OFFCURVE",
"490 183 OFFCURVE",
"459 115 CURVE SMOOTH",
"425 41 OFFCURVE",
"343 -35 OFFCURVE",
"248 -35 CURVE SMOOTH",
"67 -35 OFFCURVE",
"119 187 OFFCURVE",
"165 286 CURVE SMOOTH",
"177 311 OFFCURVE",
"193 335 OFFCURVE",
"211 360 CURVE",
"243 351 OFFCURVE",
"280 345 OFFCURVE",
"322 345 CURVE SMOOTH",
"523 345 OFFCURVE",
"606 461 OFFCURVE",
"623 508 CURVE SMOOTH"
);
},
{
closed = 1;
nodes = (
"577 469 OFFCURVE",
"511 363 OFFCURVE",
"323 363 CURVE SMOOTH",
"288 363 OFFCURVE",
"256 373 OFFCURVE",
"228 383 CURVE",
"318 492 OFFCURVE",
"441 588 OFFCURVE",
"528 597 CURVE SMOOTH",
"603 604 OFFCURVE",
"610 554 OFFCURVE",
"594 513 CURVE SMOOTH"
);
}
);
width = 524;
}
);
note = C;
unicode = 0043;
},
{
color = 3;
glyphname = D;
lastChange = "2021-09-06 07:47:45 +0000";
layers = (
{
hints = (
{
horizontal = 1;
place = "{-26, 19}";
type = Stem;
},
{
horizontal = 1;
place = "{35, 18}";
type = Stem;
},
{
horizontal = 1;
place = "{638, -20}";
target = down;
type = TopGhost;
},
{
place = "{30, 31}";
type = Stem;
},
{
place = "{277, 16}";
type = Stem;
},
{
place = "{723, 40}";
type = Stem;
}
);
layerId = "77B3CCE3-6B8C-428A-918A-7EE02BACD86D";
paths = (
{
closed = 1;
nodes = (
"100 -38 OFFCURVE",
"118 -39 OFFCURVE",
"138 -31 CURVE SMOOTH",
"164 -21 OFFCURVE",
"187 -8 OFFCURVE",
"208 6 CURVE",
"222 -1 OFFCURVE",
"236 -7 OFFCURVE",
"253 -12 CURVE SMOOTH",
"404 -53 OFFCURVE",
"676 -10 OFFCURVE",
"748 252 CURVE SMOOTH",
"795 423 OFFCURVE",
"726 544 OFFCURVE",
"606 595 CURVE",
"653 634 OFFCURVE",
"688 629 OFFCURVE",
"705 626 CURVE",
"713 626 OFFCURVE",
"713 635 OFFCURVE",
"707 636 CURVE SMOOTH",
"703 637 OFFCURVE",
"660 650 OFFCURVE",
"591 601 CURVE",
"532 623 OFFCURVE",
"463 629 OFFCURVE",
"390 618 CURVE SMOOTH",
"287 602 OFFCURVE",
"133 554 OFFCURVE",
"63 425 CURVE SMOOTH",
"-1 306 OFFCURVE",
"35 227 OFFCURVE",
"111 226 CURVE SMOOTH",
"170 225 OFFCURVE",
"242 261 OFFCURVE",
"277 341 CURVE SMOOTH",
"308 411 OFFCURVE",
"292 473 OFFCURVE",
"243 473 CURVE SMOOTH",
"201 473 OFFCURVE",
"163 437 OFFCURVE",
"152 402 CURVE SMOOTH",
"146 380 OFFCURVE",
"158 364 OFFCURVE",
"176 364 CURVE SMOOTH",
"194 364 OFFCURVE",
"194 376 OFFCURVE",
"189 376 CURVE",
"180 371 OFFCURVE",
"152 368 OFFCURVE",
"163 401 CURVE SMOOTH",
"174 443 OFFCURVE",
"214 464 OFFCURVE",
"239 464 CURVE SMOOTH",
"284 464 OFFCURVE",
"289 405 OFFCURVE",
"255 336 CURVE SMOOTH",
"221 266 OFFCURVE",
"147 234 OFFCURVE",
"117 241 CURVE SMOOTH",
"-14 270 OFFCURVE",
"91 543 OFFCURVE",
"371 600 CURVE SMOOTH",
"448 616 OFFCURVE",
"518 612 OFFCURVE",
"576 591 CURVE",
"527 566 OFFCURVE",
"453 496 OFFCURVE",
"361 305 CURVE SMOOTH",
"320 219 OFFCURVE",
"265 93 OFFCURVE",
"200 24 CURVE",
"154 44 OFFCURVE",
"112 64 OFFCURVE",
"75 46 CURVE SMOOTH",
"56 37 OFFCURVE",
"31 -29 OFFCURVE",
"83 -36 CURVE SMOOTH"
);
},
{
closed = 1;
nodes = (
"45 -15 OFFCURVE",
"80 27 OFFCURVE",
"101 32 CURVE SMOOTH",
"136 41 OFFCURVE",
"162 29 OFFCURVE",
"191 15 CURVE",
"158 -16 OFFCURVE",
"123 -33 OFFCURVE",
"85 -24 CURVE SMOOTH"
);
},
{
closed = 1;
nodes = (
"244 6 OFFCURVE",
"232 11 OFFCURVE",
"221 15 CURVE",
"327 96 OFFCURVE",
"366 228 OFFCURVE",
"409 321 CURVE SMOOTH",
"496 508 OFFCURVE",
"552 567 OFFCURVE",
"589 585 CURVE",
"691 540 OFFCURVE",
"755 407 OFFCURVE",
"707 250 CURVE SMOOTH",
"637 20 OFFCURVE",
"378 -32 OFFCURVE",
"255 3 CURVE SMOOTH"
);
}
);
width = 720;
},
{
hints = (
{
horizontal = 1;
place = "{-26, 26}";
type = Stem;
},
{
horizontal = 1;
place = "{41, 21}";
type = Stem;
},
{
horizontal = 1;
place = "{456, 19}";
type = Stem;
},
{
horizontal = 1;
place = "{638, -20}";
target = down;
type = TopGhost;
},
{
place = "{5, 48}";
type = Stem;
},
{
place = "{126, 15}";
type = Stem;
},
{
place = "{252, 26}";
type = Stem;
},
{
place = "{701, 67}";
type = Stem;
}
);
layerId = "2C4661F8-41E7-4C5B-84DD-C81E3350E201";
paths = (
{
closed = 1;
nodes = (
"800 419 OFFCURVE",
"736 541 OFFCURVE",
"610 592 CURVE",
"640 614 OFFCURVE",
"669 626 OFFCURVE",
"704 622 CURVE SMOOTH",
"711 621 OFFCURVE",
"716 625 OFFCURVE",
"716 630 CURVE",
"718 641 OFFCURVE",
"705 637 OFFCURVE",
"697 638 CURVE SMOOTH",
"660 642 OFFCURVE",
"600 623 OFFCURVE",
"570 602 CURVE",
"402 662 OFFCURVE",
"125 582 OFFCURVE",
"39 426 CURVE SMOOTH",
"-26 308 OFFCURVE",
"8 223 OFFCURVE",
"91 222 CURVE SMOOTH",
"152 221 OFFCURVE",
"226 258 OFFCURVE",
"262 338 CURVE SMOOTH",
"292 407 OFFCURVE",
"279 475 OFFCURVE",
"223 475 CURVE SMOOTH",
"178 475 OFFCURVE",
"139 438 OFFCURVE",
"128 402 CURVE SMOOTH",
"120 378 OFFCURVE",
"133 358 OFFCURVE",
"156 358 CURVE SMOOTH",
"181 358 OFFCURVE",
"177 374 OFFCURVE",
"163 375 CURVE",
"155 371 OFFCURVE",
"135 374 OFFCURVE",
"142 398 CURVE SMOOTH",
"154 437 OFFCURVE",
"196 457 OFFCURVE",
"219 457 CURVE SMOOTH",
"256 457 OFFCURVE",
"265 408 OFFCURVE",
"231 338 CURVE SMOOTH",
"197 270 OFFCURVE",
"125 231 OFFCURVE",
"98 237 CURVE SMOOTH",
"39 250 OFFCURVE",
"41 328 OFFCURVE",
"86 406 CURVE SMOOTH",
"177 564 OFFCURVE",
"376 644 OFFCURVE",
"550 590 CURVE",
"500 561 OFFCURVE",
"423 484 OFFCURVE",
"337 307 CURVE SMOOTH",
"295 222 OFFCURVE",
"243 103 OFFCURVE",
"179 34 CURVE",
"158 43 OFFCURVE",
"137 52 OFFCURVE",
"115 58 CURVE SMOOTH",
"2 86 OFFCURVE",
"-9 -35 OFFCURVE",
"78 -35 CURVE SMOOTH",
"100 -35 OFFCURVE",
"159 -35 OFFCURVE",
"208 5 CURVE",
"222 -2 OFFCURVE",
"235 -8 OFFCURVE",
"252 -12 CURVE SMOOTH",
"404 -53 OFFCURVE",
"679 -11 OFFCURVE",
"753 251 CURVE SMOOTH"
);
},
{
closed = 1;
nodes = (
"613 29 OFFCURVE",
"372 -24 OFFCURVE",
"250 10 CURVE SMOOTH",
"242 12 OFFCURVE",
"234 15 OFFCURVE",
"225 18 CURVE",
"275 58 OFFCURVE",
"316 111 OFFCURVE",
"343 163 CURVE SMOOTH",
"371 217 OFFCURVE",
"392 273 OFFCURVE",
"414 319 CURVE SMOOTH",
"499 499 OFFCURVE",
"554 557 OFFCURVE",
"589 575 CURVE",
"687 531 OFFCURVE",
"729 404 OFFCURVE",
"682 252 CURVE SMOOTH"
);
},
{
closed = 1;
nodes = (
"139 -2 OFFCURVE",
"115 -15 OFFCURVE",
"90 -16 CURVE SMOOTH",
"-3 -22 OFFCURVE",
"29 62 OFFCURVE",
"113 36 CURVE SMOOTH",
"129 31 OFFCURVE",
"146 26 OFFCURVE",
"162 18 CURVE"
);
}
);
width = 736;
}
);
note = D;
unicode = 0044;
},
{
color = 3;
glyphname = E;
lastChange = "2021-09-06 07:47:45 +0000";
layers = (
{
hints = (
{
horizontal = 1;
place = "{-44, 14}";
type = Stem;
},
{
horizontal = 1;
place = "{292, 16}";
type = Stem;
},
{
horizontal = 1;
place = "{394, 11}";
type = Stem;
},
{
horizontal = 1;
place = "{606, 12}";
type = Stem;
},
{
place = "{7, 53}";
type = Stem;
},
{
place = "{208, 44}";
type = Stem;
},
{
place = "{362, 23}";
type = Stem;
},
{
place = "{470, 20}";
type = Stem;
},
{
place = "{503, 37}";
type = Stem;
}
);
layerId = "77B3CCE3-6B8C-428A-918A-7EE02BACD86D";
paths = (
{
closed = 1;
nodes = (
"381 -58 OFFCURVE",
"541 62 OFFCURVE",
"541 204 CURVE SMOOTH",
"541 269 OFFCURVE",
"494 308 OFFCURVE",
"440 308 CURVE SMOOTH",
"373 308 OFFCURVE",
"331 264 OFFCURVE",
"341 205 CURVE SMOOTH",
"344 191 OFFCURVE",
"354 199 OFFCURVE",
"353 208 CURVE SMOOTH",
"348 249 OFFCURVE",
"374 292 OFFCURVE",
"432 292 CURVE SMOOTH",
"463 292 OFFCURVE",
"504 264 OFFCURVE",
"504 204 CURVE SMOOTH",
"504 74 OFFCURVE",
"371 -47 OFFCURVE",
"220 -28 CURVE SMOOTH",
"109 -14 OFFCURVE",
"60 76 OFFCURVE",
"60 152 CURVE SMOOTH",
"60 278 OFFCURVE",
"152 353 OFFCURVE",
"242 376 CURVE",
"266 356 OFFCURVE",
"298 348 OFFCURVE",
"321 346 CURVE SMOOTH",
"396 338 OFFCURVE",
"413 405 OFFCURVE",
"328 405 CURVE SMOOTH",
"307 405 OFFCURVE",
"285 402 OFFCURVE",
"263 397 CURVE",
"253 417 OFFCURVE",
"245 447 OFFCURVE",
"261 492 CURVE SMOOTH",
"281 549 OFFCURVE",
"348 606 OFFCURVE",
"407 606 CURVE SMOOTH",
"446 606 OFFCURVE",
"484 580 OFFCURVE",
"465 522 CURVE SMOOTH",
"456 492 OFFCURVE",
"425 471 OFFCURVE",
"407 471 CURVE SMOOTH",
"387 471 OFFCURVE",
"379 493 OFFCURVE",
"393 504 CURVE",
"398 511 OFFCURVE",
"380 515 OFFCURVE",
"374 497 CURVE SMOOTH",
"367 478 OFFCURVE",
"382 461 OFFCURVE",
"405 461 CURVE SMOOTH",
"439 461 OFFCURVE",
"474 481 OFFCURVE",
"486 521 CURVE SMOOTH",
"501 566 OFFCURVE",
"474 618 OFFCURVE",
"405 618 CURVE SMOOTH",
"299 618 OFFCURVE",
"235 557 OFFCURVE",
"215 495 CURVE SMOOTH",
"199 445 OFFCURVE",
"212 411 OFFCURVE",
"231 388 CURVE",
"111 363 OFFCURVE",
"7 274 OFFCURVE",
"7 149 CURVE SMOOTH",
"7 60 OFFCURVE",
"76 -30 OFFCURVE",
"215 -43 CURVE SMOOTH"
);
},
{
closed = 1;
nodes = (
"308 361 OFFCURVE",
"285 366 OFFCURVE",
"269 386 CURVE",
"289 392 OFFCURVE",
"309 394 OFFCURVE",
"326 394 CURVE SMOOTH",
"386 394 OFFCURVE",
"364 354 OFFCURVE",
"313 360 CURVE SMOOTH"
);
}
);
width = 552;
},
{
hints = (
{
horizontal = 1;
place = "{-44, 14}";
type = Stem;
},
{
horizontal = 1;
place = "{292, 21}";
target = up;
type = BottomGhost;
},
{
horizontal = 1;
place = "{392, 16}";
type = Stem;
},
{
horizontal = 1;
place = "{454, 14}";
type = Stem;
},
{
horizontal = 1;
place = "{604, 14}";
type = Stem;
},
{
place = "{2, 83}";
type = Stem;
},
{
place = "{203, 52}";
type = Stem;
},
{
place = "{373, 14}";
type = Stem;
},
{
place = "{483, 62}";
type = Stem;
}
);
layerId = "2C4661F8-41E7-4C5B-84DD-C81E3350E201";
paths = (
{
closed = 1;
nodes = (
"545 272 OFFCURVE",
"496 313 OFFCURVE",
"440 313 CURVE SMOOTH",
"371 313 OFFCURVE",
"325 268 OFFCURVE",
"336 205 CURVE SMOOTH",
"339 191 OFFCURVE",
"349 200 OFFCURVE",
"348 210 CURVE SMOOTH",
"343 247 OFFCURVE",
"377 292 OFFCURVE",
"432 292 CURVE SMOOTH",
"460 292 OFFCURVE",
"483 262 OFFCURVE",
"483 205 CURVE SMOOTH",
"483 80 OFFCURVE",
"369 -47 OFFCURVE",
"220 -29 CURVE SMOOTH",
"113 -16 OFFCURVE",
"85 81 OFFCURVE",
"85 154 CURVE SMOOTH",
"85 274 OFFCURVE",
"148 351 OFFCURVE",
"236 374 CURVE",
"260 355 OFFCURVE",
"297 343 OFFCURVE",
"320 340 CURVE SMOOTH",
"402 332 OFFCURVE",
"420 408 OFFCURVE",
"328 408 CURVE SMOOTH",
"308 408 OFFCURVE",
"282 404 OFFCURVE",
"261 400 CURVE",
"252 419 OFFCURVE",
"251 447 OFFCURVE",
"266 487 CURVE SMOOTH",
"285 542 OFFCURVE",
"347 604 OFFCURVE",
"404 604 CURVE SMOOTH",
"441 604 OFFCURVE",
"482 573 OFFCURVE",
"465 520 CURVE SMOOTH",
"456 492 OFFCURVE",
"429 468 OFFCURVE",
"407 468 CURVE SMOOTH",
"386 468 OFFCURVE",
"382 488 OFFCURVE",
"392 496 CURVE",
"398 504 OFFCURVE",
"402 512 OFFCURVE",
"392 511 CURVE SMOOTH",
"366 509 OFFCURVE",
"361 454 OFFCURVE",
"410 454 CURVE SMOOTH",
"446 454 OFFCURVE",
"487 472 OFFCURVE",
"501 516 CURVE SMOOTH",
"517 568 OFFCURVE",
"477 618 OFFCURVE",
"405 618 CURVE SMOOTH",
"297 618 OFFCURVE",
"231 557 OFFCURVE",
"210 493 CURVE SMOOTH",
"195 447 OFFCURVE",
"205 413 OFFCURVE",
"222 390 CURVE",
"104 363 OFFCURVE",
"2 275 OFFCURVE",
"2 151 CURVE SMOOTH",
"2 60 OFFCURVE",
"73 -30 OFFCURVE",
"214 -43 CURVE SMOOTH",
"382 -58 OFFCURVE",
"545 62 OFFCURVE",
"545 205 CURVE SMOOTH"
);
},
{
closed = 1;
nodes = (
"371 392 OFFCURVE",
"368 353 OFFCURVE",
"314 359 CURVE SMOOTH",
"310 359 OFFCURVE",
"280 367 OFFCURVE",
"266 386 CURVE",
"283 390 OFFCURVE",
"312 392 OFFCURVE",
"326 392 CURVE SMOOTH"
);
}
);
width = 552;
}
);
note = E;
unicode = 0045;
},
{
color = 3;
glyphname = F;
lastChange = "2021-09-06 07:47:45 +0000";
layers = (
{
hints = (
{
horizontal = 1;
place = "{-62, 16}";
type = Stem;
},
{
horizontal = 1;
place = "{55, 12}";
type = Stem;
},
{
horizontal = 1;
place = "{317, 13}";
type = Stem;
},
{
horizontal = 1;
place = "{456, 14}";
type = Stem;
},
{
horizontal = 1;
place = "{583, 39}";
type = Stem;
},
{
place = "{2, 39}";
type = Stem;
},
{
place = "{73, 23}";
type = Stem;
},
{
place = "{319, 22}";
type = Stem;
}
);
layerId = "77B3CCE3-6B8C-428A-918A-7EE02BACD86D";
paths = (
{
closed = 1;
nodes = (
"297 -73 OFFCURVE",
"454 0 OFFCURVE",
"543 261 CURVE",
"593 255 OFFCURVE",
"638 253 OFFCURVE",
"660 277 CURVE SMOOTH",
"671 290 OFFCURVE",
"655 299 OFFCURVE",
"645 288 CURVE SMOOTH",
"623 266 OFFCURVE",
"587 267 OFFCURVE",
"547 271 CURVE",
"550 283 LINE SMOOTH",
"556 308 OFFCURVE",
"611 451 OFFCURVE",
"654 499 CURVE",
"861 422 OFFCURVE",
"982 460 OFFCURVE",
"1030 515 CURVE SMOOTH",
"1043 529 OFFCURVE",
"1031 541 OFFCURVE",
"1018 524 CURVE SMOOTH",
"946 428 OFFCURVE",
"747 483 OFFCURVE",
"663 511 CURVE",
"702 553 OFFCURVE",
"792 606 OFFCURVE",
"839 549 CURVE SMOOTH",
"850 536 OFFCURVE",
"858 551 OFFCURVE",
"847 563 CURVE SMOOTH",
"827 586 OFFCURVE",
"744 605 OFFCURVE",
"652 516 CURVE",
"541 565 OFFCURVE",
"289 700 OFFCURVE",
"132 560 CURVE SMOOTH",
"62 498 OFFCURVE",
"55 380 OFFCURVE",
"107 298 CURVE",
"59 269 OFFCURVE",
"25 224 OFFCURVE",
"12 178 CURVE SMOOTH",
"-29 36 OFFCURVE",
"61 -52 OFFCURVE",
"163 -61 CURVE SMOOTH"
);
},
{
closed = 1;
nodes = (
"179 246 OFFCURVE",
"151 265 OFFCURVE",
"132 289 CURVE",
"194 334 OFFCURVE",
"281 328 OFFCURVE",
"310 247 CURVE",
"277 234 OFFCURVE",
"242 231 OFFCURVE",
"216 237 CURVE SMOOTH"
);
},
{
closed = 1;
nodes = (
"79 -41 OFFCURVE",
"13 56 OFFCURVE",
"52 173 CURVE SMOOTH",
"66 216 OFFCURVE",
"89 254 OFFCURVE",
"120 280 CURVE",
"143 252 OFFCURVE",
"174 233 OFFCURVE",
"214 225 CURVE SMOOTH",
"243 220 OFFCURVE",
"280 220 OFFCURVE",
"314 233 CURVE",
"336 154 OFFCURVE",
"277 68 OFFCURVE",
"209 68 CURVE SMOOTH",
"191 68 OFFCURVE",
"162 75 OFFCURVE",
"152 87 CURVE SMOOTH",
"138 103 OFFCURVE",
"130 91 OFFCURVE",
"139 81 CURVE SMOOTH",
"150 67 OFFCURVE",
"178 55 OFFCURVE",
"200 55 CURVE SMOOTH",
"289 55 OFFCURVE",
"364 146 OFFCURVE",
"334 242 CURVE",
"365 259 OFFCURVE",
"392 289 OFFCURVE",
"405 337 CURVE",
"407 349 OFFCURVE",
"397 347 OFFCURVE",
"395 339 CURVE SMOOTH",
"387 300 OFFCURVE",
"361 273 OFFCURVE",
"328 256 CURVE",
"291 344 OFFCURVE",
"195 344 OFFCURVE",
"121 306 CURVE",
"77 379 OFFCURVE",
"95 487 OFFCURVE",
"151 535 CURVE SMOOTH",
"276 642 OFFCURVE",
"537 543 OFFCURVE",
"640 504 CURVE",
"622 486 OFFCURVE",
"604 463 OFFCURVE",
"586 435 CURVE SMOOTH",
"568 408 OFFCURVE",
"542 347 OFFCURVE",
"508 277 CURVE",
"468 282 OFFCURVE",
"427 285 OFFCURVE",
"392 270 CURVE SMOOTH",
"384 266 OFFCURVE",
"383 256 OFFCURVE",
"393 260 CURVE SMOOTH",
"424 271 OFFCURVE",
"463 270 OFFCURVE",
"502 266 CURVE",
"430 121 OFFCURVE",
"320 -54 OFFCURVE",
"165 -46 CURVE SMOOTH"
);
}
);
width = 628;
},
{
hints = (
{
horizontal = 1;
place = "{-62, 16}";
type = Stem;
},
{
horizontal = 1;
place = "{54, 16}";
type = Stem;
},
{
horizontal = 1;
place = "{217, 17}";
type = Stem;
},
{
horizontal = 1;
place = "{448, 24}";
type = Stem;
},
{
horizontal = 1;
place = "{490, 28}";
type = Stem;
},
{
horizontal = 1;
place = "{567, 16}";
type = Stem;
},
{
place = "{-3, 49}";
type = Stem;
},
{
place = "{62, 46}";
type = Stem;
},
{
place = "{314, 31}";
type = Stem;
}
);
layerId = "2C4661F8-41E7-4C5B-84DD-C81E3350E201";
paths = (
{
closed = 1;
nodes = (
"1051 528 OFFCURVE",
"1032 546 OFFCURVE",
"1014 523 CURVE SMOOTH",
"946 435 OFFCURVE",
"761 481 OFFCURVE",
"672 510 CURVE",
"718 555 OFFCURVE",
"791 594 OFFCURVE",
"835 542 CURVE SMOOTH",
"850 524 OFFCURVE",
"866 545 OFFCURVE",
"851 562 CURVE SMOOTH",
"828 588 OFFCURVE",
"743 605 OFFCURVE",
"651 518 CURVE",
"543 566 OFFCURVE",
"423 625 OFFCURVE",
"303 625 CURVE SMOOTH",
"107 625 OFFCURVE",
"-1 465 OFFCURVE",
"100 299 CURVE",
"53 270 OFFCURVE",
"20 226 OFFCURVE",
"7 181 CURVE SMOOTH",
"-35 37 OFFCURVE",
"58 -52 OFFCURVE",
"163 -61 CURVE SMOOTH",
"299 -73 OFFCURVE",
"457 0 OFFCURVE",
"546 256 CURVE",
"594 250 OFFCURVE",
"634 250 OFFCURVE",
"657 276 CURVE SMOOTH",
"673 293 OFFCURVE",
"661 302 OFFCURVE",
"646 287 CURVE SMOOTH",
"627 268 OFFCURVE",
"591 272 OFFCURVE",
"553 275 CURVE",
"567 329 OFFCURVE",
"623 452 OFFCURVE",
"656 490 CURVE",
"861 415 OFFCURVE",
"984 453 OFFCURVE",
"1034 508 CURVE SMOOTH"
);
},
{
closed = 1;
nodes = (
"571 436 OFFCURVE",
"523 359 OFFCURVE",
"485 282 CURVE",
"446 287 OFFCURVE",
"418 284 OFFCURVE",
"396 274 CURVE SMOOTH",
"381 267 OFFCURVE",
"379 250 OFFCURVE",
"395 256 CURVE SMOOTH",
"423 266 OFFCURVE",
"438 265 OFFCURVE",
"474 262 CURVE",
"402 120 OFFCURVE",
"314 -54 OFFCURVE",
"165 -46 CURVE SMOOTH",
"84 -42 OFFCURVE",
"19 60 OFFCURVE",
"57 173 CURVE SMOOTH",
"70 213 OFFCURVE",
"91 248 OFFCURVE",
"120 273 CURVE",
"166 220 OFFCURVE",
"245 205 OFFCURVE",
"311 227 CURVE",
"338 112 OFFCURVE",
"205 29 OFFCURVE",
"150 91 CURVE SMOOTH",
"132 112 OFFCURVE",
"122 96 OFFCURVE",
"135 81 CURVE SMOOTH",
"147 66 OFFCURVE",
"176 54 OFFCURVE",
"200 54 CURVE SMOOTH",
"291 54 OFFCURVE",
"367 144 OFFCURVE",
"340 240 CURVE",
"371 258 OFFCURVE",
"403 301 OFFCURVE",
"405 340 CURVE",
"403 353 OFFCURVE",
"393 350 OFFCURVE",
"390 339 CURVE SMOOTH",
"382 305 OFFCURVE",
"364 275 OFFCURVE",
"334 259 CURVE",
"294 343 OFFCURVE",
"196 347 OFFCURVE",
"123 312 CURVE",
"66 448 OFFCURVE",
"172 567 OFFCURVE",
"334 567 CURVE SMOOTH",
"438 567 OFFCURVE",
"556 527 OFFCURVE",
"631 499 CURVE"
);
},
{
closed = 1;
nodes = (
"241 222 OFFCURVE",
"186 235 OFFCURVE",
"139 288 CURVE",
"204 330 OFFCURVE",
"273 328 OFFCURVE",
"307 246 CURVE"
);
}
);
width = 628;
}
);
note = F;
unicode = 0046;
},
{
color = 3;
glyphname = G;
lastChange = "2021-09-06 07:47:45 +0000";
layers = (
{
hints = (
{
horizontal = 1;
place = "{-300, 15}";
type = Stem;
},
{
horizontal = 1;
place = "{-7, 16}";
type = Stem;
},
{
horizontal = 1;
place = "{256, 13}";
type = Stem;
},
{
horizontal = 1;
place = "{362, 13}";
type = Stem;
},
{
horizontal = 1;
place = "{545, 13}";
type = Stem;
},
{
horizontal = 1;
place = "{576, 17}";
type = Stem;
},
{
place = "{-47, 18}";
type = Stem;
},
{
place = "{56, 25}";
type = Stem;
},
{
place = "{508, 14}";
type = Stem;
},
{
place = "{538, 37}";
type = Stem;
}
);
layerId = "77B3CCE3-6B8C-428A-918A-7EE02BACD86D";
paths = (
{
closed = 1;
nodes = (
"49 -314 OFFCURVE",
"206 -284 OFFCURVE",
"287 -178 CURVE SMOOTH",
"309 -150 OFFCURVE",
"325 -115 OFFCURVE",
"340 -77 CURVE",
"366 -81 OFFCURVE",
"389 -86 OFFCURVE",
"400 -95 CURVE SMOOTH",
"411 -104 OFFCURVE",
"414 -92 OFFCURVE",
"404 -85 CURVE",
"392 -74 OFFCURVE",
"371 -68 OFFCURVE",
"346 -63 CURVE",
"360 -24 OFFCURVE",
"372 18 OFFCURVE",
"383 58 CURVE",
"425 86 OFFCURVE",
"458 120 OFFCURVE",
"482 151 CURVE SMOOTH",
"567 262 OFFCURVE",
"498 284 OFFCURVE",
"466 260 CURVE SMOOTH",
"416 224 OFFCURVE",
"379 139 OFFCURVE",
"344 50 CURVE",
"252 -3 OFFCURVE",
"77 -28 OFFCURVE",
"60 128 CURVE SMOOTH",
"50 223 OFFCURVE",
"90 329 OFFCURVE",
"147 398 CURVE",
"239 353 OFFCURVE",
"358 355 OFFCURVE",
"448 380 CURVE SMOOTH",
"629 428 OFFCURVE",
"616 572 OFFCURVE",
"415 558 CURVE SMOOTH",
"315 551 OFFCURVE",
"202 513 OFFCURVE",
"120 431 CURVE",
"41 498 OFFCURVE",
"93 576 OFFCURVE",
"193 576 CURVE SMOOTH",
"221 576 OFFCURVE",
"248 572 OFFCURVE",
"263 567 CURVE SMOOTH",
"277 562 OFFCURVE",
"276 575 OFFCURVE",
"269 577 CURVE",
"250 588 OFFCURVE",
"221 593 OFFCURVE",
"191 593 CURVE SMOOTH",
"73 593 OFFCURVE",
"2 497 OFFCURVE",
"109 420 CURVE",
"42 350 OFFCURVE",
"-9 242 OFFCURVE",
"2 137 CURVE SMOOTH",
"16 8 OFFCURVE",
"169 -51 OFFCURVE",
"336 30 CURVE",
"323 0 OFFCURVE",
"311 -31 OFFCURVE",
"298 -60 CURVE",
"217 -58 OFFCURVE",
"111 -78 OFFCURVE",
"37 -129 CURVE SMOOTH",
"-53 -192 OFFCURVE",
"-71 -275 OFFCURVE",
"-14 -294 CURVE SMOOTH"
);
},
{
closed = 1;
nodes = (
"-53 -263 OFFCURVE",
"-28 -193 OFFCURVE",
"50 -143 CURVE SMOOTH",
"122 -96 OFFCURVE",
"218 -74 OFFCURVE",
"292 -74 CURVE",
"279 -101 OFFCURVE",
"266 -126 OFFCURVE",
"251 -146 CURVE SMOOTH",
"174 -256 OFFCURVE",
"60 -299 OFFCURVE",
"-1 -280 CURVE SMOOTH"
);
},
{
closed = 1;
nodes = (
"414 160 OFFCURVE",
"437 227 OFFCURVE",
"474 249 CURVE SMOOTH",
"513 273 OFFCURVE",
"532 232 OFFCURVE",
"459 149 CURVE SMOOTH",
"437 124 OFFCURVE",
"415 102 OFFCURVE",
"391 84 CURVE"
);
},
{
closed = 1;
nodes = (
"361 368 OFFCURVE",
"237 366 OFFCURVE",
"156 408 CURVE",
"229 493 OFFCURVE",
"332 541 OFFCURVE",
"419 545 CURVE SMOOTH",
"572 554 OFFCURVE",
"576 434 OFFCURVE",
"440 392 CURVE SMOOTH"
);
}
);
width = 515;
},
{
hints = (
{
horizontal = 1;
place = "{-305, 20}";
type = Stem;
},
{
horizontal = 1;
place = "{-10, 14}";
type = Stem;
},
{
horizontal = 1;
place = "{256, 16}";
type = Stem;
},
{
horizontal = 1;
place = "{352, 21}";
target = up;
type = BottomGhost;
},
{
horizontal = 1;
place = "{546, 13}";
type = Stem;
},
{
horizontal = 1;
place = "{593, -20}";
target = down;
type = TopGhost;
},
{
place = "{-42, 18}";
type = Stem;
},
{
place = "{-5, 79}";
type = Stem;
},
{
place = "{506, 21}";
type = Stem;
},
{
place = "{533, 47}";
type = Stem;
}
);
layerId = "2C4661F8-41E7-4C5B-84DD-C81E3350E201";
paths = (
{
closed = 1;
nodes = (
"509 277 OFFCURVE",
"480 276 OFFCURVE",
"463 263 CURVE SMOOTH",
"413 226 OFFCURVE",
"368 132 OFFCURVE",
"332 45 CURVE",
"233 -18 OFFCURVE",
"91 -23 OFFCURVE",
"76 124 CURVE SMOOTH",
"66 215 OFFCURVE",
"104 317 OFFCURVE",
"159 384 CURVE",
"251 340 OFFCURVE",
"360 348 OFFCURVE",
"449 372 CURVE SMOOTH",
"635 422 OFFCURVE",
"623 573 OFFCURVE",
"415 559 CURVE SMOOTH",
"315 552 OFFCURVE",
"196 511 OFFCURVE",
"113 431 CURVE",
"59 479 OFFCURVE",
"101 573 OFFCURVE",
"196 573 CURVE SMOOTH",
"223 573 OFFCURVE",
"250 569 OFFCURVE",
"264 564 CURVE SMOOTH",
"274 561 OFFCURVE",
"280 573 OFFCURVE",
"272 577 CURVE SMOOTH",
"254 585 OFFCURVE",
"221 593 OFFCURVE",
"191 593 CURVE SMOOTH",
"74 593 OFFCURVE",
"-6 497 OFFCURVE",
"101 416 CURVE",
"36 346 OFFCURVE",
"-14 240 OFFCURVE",
"-3 137 CURVE SMOOTH",
"11 7 OFFCURVE",
"163 -51 OFFCURVE",
"326 22 CURVE",
"316 -3 OFFCURVE",
"306 -28 OFFCURVE",
"295 -52 CURVE",
"214 -51 OFFCURVE",
"109 -72 OFFCURVE",
"34 -122 CURVE SMOOTH",
"-54 -183 OFFCURVE",
"-66 -277 OFFCURVE",
"0 -298 CURVE SMOOTH",
"65 -320 OFFCURVE",
"224 -289 OFFCURVE",
"306 -182 CURVE SMOOTH",
"328 -155 OFFCURVE",
"349 -116 OFFCURVE",
"364 -80 CURVE",
"388 -84 OFFCURVE",
"407 -88 OFFCURVE",
"417 -96 CURVE SMOOTH",
"433 -109 OFFCURVE",
"437 -96 OFFCURVE",
"423 -83 CURVE SMOOTH",
"410 -73 OFFCURVE",
"390 -66 OFFCURVE",
"368 -62 CURVE",
"380 -25 OFFCURVE",
"392 13 OFFCURVE",
"403 51 CURVE",
"441 76 OFFCURVE",
"552 213 OFFCURVE",
"522 258 CURVE SMOOTH"
);
},
{
closed = 1;
nodes = (
"363 371 OFFCURVE",
"247 361 OFFCURVE",
"167 398 CURVE",
"239 478 OFFCURVE",
"336 542 OFFCURVE",
"419 546 CURVE SMOOTH",
"562 554 OFFCURVE",
"574 435 OFFCURVE",
"438 394 CURVE SMOOTH"
);
},
{
closed = 1;
nodes = (
"471 151 OFFCURVE",
"432 98 OFFCURVE",
"409 79 CURVE",
"424 126 OFFCURVE",
"436 178 OFFCURVE",
"452 213 CURVE SMOOTH",
"477 267 OFFCURVE",
"531 279 OFFCURVE",
"492 195 CURVE SMOOTH"
);
},
{
closed = 1;
nodes = (
"277 -96 OFFCURVE",
"260 -122 OFFCURVE",
"247 -140 CURVE SMOOTH",
"171 -248 OFFCURVE",
"53 -299 OFFCURVE",
"-4 -281 CURVE SMOOTH",
"-27 -273 OFFCURVE",
"-28 -245 OFFCURVE",
"-19 -222 CURVE SMOOTH",
"-11 -197 OFFCURVE",
"14 -168 OFFCURVE",
"53 -144 CURVE SMOOTH",
"122 -100 OFFCURVE",
"217 -73 OFFCURVE",
"289 -72 CURVE"
);
}
);
width = 515;
}
);
note = G;
unicode = 0047;
},
{
color = 3;
glyphname = H;
lastChange = "2021-09-06 07:47:45 +0000";
layers = (
{
hints = (
{
horizontal = 1;
place = "{-146, 13}";
type = Stem;
},
{
horizontal = 1;
place = "{-4, 11}";
type = Stem;
},
{
horizontal = 1;
place = "{326, 12}";
type = Stem;
},
{
horizontal = 1;
place = "{400, 11}";
type = Stem;
},
{
place = "{-1, 37}";
type = Stem;
},
{
place = "{354, 23}";
type = Stem;
},
{
place = "{619, 32}";
type = Stem;
},
{
place = "{774, 32}";
type = Stem;
}
);
layerId = "77B3CCE3-6B8C-428A-918A-7EE02BACD86D";
paths = (
{
closed = 1;
nodes = (
"309 -152 OFFCURVE",
"512 -21 OFFCURVE",
"623 270 CURVE SMOOTH",
"629 287 OFFCURVE",
"637 304 OFFCURVE",
"644 321 CURVE",
"716 324 OFFCURVE",
"795 311 OFFCURVE",
"862 304 CURVE",
"830 246 OFFCURVE",
"801 184 OFFCURVE",
"783 120 CURVE SMOOTH",
"747 -17 OFFCURVE",
"815 -35 OFFCURVE",
"907 38 CURVE SMOOTH",
"956 78 OFFCURVE",
"1008 139 OFFCURVE",
"1039 193 CURVE",
"1042 197 OFFCURVE",
"1030 205 OFFCURVE",
"1029 201 CURVE",
"997 145 OFFCURVE",
"943 84 OFFCURVE",
"896 46 CURVE SMOOTH",
"816 -20 OFFCURVE",
"785 -3 OFFCURVE",
"820 96 CURVE SMOOTH",
"844 166 OFFCURVE",
"880 233 OFFCURVE",
"913 300 CURVE",
"947 299 OFFCURVE",
"975 301 OFFCURVE",
"992 312 CURVE SMOOTH",
"1012 324 OFFCURVE",
"1003 332 OFFCURVE",
"983 320 CURVE SMOOTH",
"969 312 OFFCURVE",
"947 310 OFFCURVE",
"918 312 CURVE",
"980 442 OFFCURVE",
"1065 627 OFFCURVE",
"1067 632 CURVE SMOOTH",
"1078 664 OFFCURVE",
"1066 674 OFFCURVE",
"1036 610 CURVE SMOOTH",
"1009 553 OFFCURVE",
"934 439 OFFCURVE",
"869 317 CURVE",
"805 326 OFFCURVE",
"726 342 OFFCURVE",
"651 339 CURVE",
"726 514 OFFCURVE",
"806 622 OFFCURVE",
"801 624 CURVE",
"736 635 OFFCURVE",
"473 637 OFFCURVE",
"453 479 CURVE SMOOTH",
"440 374 OFFCURVE",
"621 368 OFFCURVE",
"627 495 CURVE SMOOTH",
"627 506 OFFCURVE",
"620 504 OFFCURVE",
"619 494 CURVE SMOOTH",
"619 459 OFFCURVE",
"584 411 OFFCURVE",
"542 411 CURVE SMOOTH",
"504 411 OFFCURVE",
"475 437 OFFCURVE",
"486 483 CURVE SMOOTH",
"513 606 OFFCURVE",
"672 629 OFFCURVE",
"787 616 CURVE",
"720 542 OFFCURVE",
"663 422 OFFCURVE",
"615 336 CURVE",
"547 327 OFFCURVE",
"486 298 OFFCURVE",
"447 231 CURVE SMOOTH",
"425 193 OFFCURVE",
"454 210 OFFCURVE",
"460 223 CURVE SMOOTH",
"487 283 OFFCURVE",
"541 309 OFFCURVE",
"605 317 CURVE",
"597 303 OFFCURVE",
"590 290 OFFCURVE",
"585 281 CURVE SMOOTH",
"477 76 OFFCURVE",
"321 -140 OFFCURVE",
"157 -133 CURVE SMOOTH",
"53 -128 OFFCURVE",
"6 -18 OFFCURVE",
"58 128 CURVE SMOOTH",
"94 228 OFFCURVE",
"175 327 OFFCURVE",
"273 326 CURVE SMOOTH",
"331 326 OFFCURVE",
"374 273 OFFCURVE",
"344 169 CURVE SMOOTH",
"299 17 OFFCURVE",
"178 19 OFFCURVE",
"174 47 CURVE SMOOTH",
"173 57 OFFCURVE",
"163 54 OFFCURVE",
"165 42 CURVE SMOOTH",
"171 4 OFFCURVE",
"321 11 OFFCURVE",
"368 171 CURVE SMOOTH",
"400 280 OFFCURVE",
"343 338 OFFCURVE",
"275 338 CURVE SMOOTH",
"178 338 OFFCURVE",
"62 247 OFFCURVE",
"20 134 CURVE SMOOTH",
"-42 -33 OFFCURVE",
"44 -142 OFFCURVE",
"155 -146 CURVE SMOOTH"
);
}
);
width = 965;
},
{
hints = (
{
horizontal = 1;
place = "{-146, 17}";
type = Stem;
},
{
horizontal = 1;
place = "{-7, 21}";
type = Stem;
},
{
horizontal = 1;
place = "{21, 14}";
type = Stem;
},
{
horizontal = 1;
place = "{325, 17}";
type = Stem;
},
{
horizontal = 1;
place = "{393, 11}";
type = Stem;
},
{
horizontal = 1;
place = "{615, 14}";
type = Stem;
},
{
horizontal = 1;
place = "{655, -20}";
target = down;
type = TopGhost;
},
{
place = "{-6, 47}";
type = Stem;
},
{
place = "{349, 33}";
type = Stem;
},
{
place = "{620, 12}";
type = Stem;
},
{
place = "{758, 53}";
type = Stem;
}
);
layerId = "2C4661F8-41E7-4C5B-84DD-C81E3350E201";
paths = (
{
closed = 1;
nodes = (
"1076 637 OFFCURVE",
"1077 658 OFFCURVE",
"1060 654 CURVE SMOOTH",
"1052 652 OFFCURVE",
"1035 638 OFFCURVE",
"1016 605 CURVE SMOOTH",
"986 551 OFFCURVE",
"921 436 OFFCURVE",
"856 317 CURVE",
"819 322 OFFCURVE",
"732 340 OFFCURVE",
"674 343 CURVE",
"712 431 OFFCURVE",
"744 515 OFFCURVE",
"794 596 CURVE SMOOTH",
"797 600 OFFCURVE",
"811 621 OFFCURVE",
"802 624 CURVE",
"738 635 OFFCURVE",
"468 639 OFFCURVE",
"448 477 CURVE SMOOTH",
"434 366 OFFCURVE",
"626 360 OFFCURVE",
"632 492 CURVE SMOOTH",
"633 508 OFFCURVE",
"620 509 OFFCURVE",
"619 492 CURVE SMOOTH",
"619 459 OFFCURVE",
"581 404 OFFCURVE",
"542 404 CURVE SMOOTH",
"507 404 OFFCURVE",
"481 437 OFFCURVE",
"491 479 CURVE SMOOTH",
"517 593 OFFCURVE",
"665 623 OFFCURVE",
"779 613 CURVE",
"748 577 OFFCURVE",
"716 527 OFFCURVE",
"690 480 CURVE SMOOTH",
"661 432 OFFCURVE",
"638 382 OFFCURVE",
"615 340 CURVE",
"547 330 OFFCURVE",
"482 301 OFFCURVE",
"442 234 CURVE SMOOTH",
"437 224 OFFCURVE",
"434 218 OFFCURVE",
"434 213 CURVE SMOOTH",
"433 206 OFFCURVE",
"438 202 OFFCURVE",
"444 204 CURVE SMOOTH",
"451 205 OFFCURVE",
"461 214 OFFCURVE",
"464 221 CURVE SMOOTH",
"489 275 OFFCURVE",
"532 283 OFFCURVE",
"591 292 CURVE",
"535 184 OFFCURVE",
"359 -138 OFFCURVE",
"157 -129 CURVE SMOOTH",
"59 -124 OFFCURVE",
"11 -16 OFFCURVE",
"63 128 CURVE SMOOTH",
"98 226 OFFCURVE",
"178 326 OFFCURVE",
"273 325 CURVE SMOOTH",
"326 325 OFFCURVE",
"369 272 OFFCURVE",
"339 171 CURVE SMOOTH",
"317 98 OFFCURVE",
"277 57 OFFCURVE",
"242 43 CURVE SMOOTH",
"204 27 OFFCURVE",
"180 38 OFFCURVE",
"179 45 CURVE SMOOTH",
"177 61 OFFCURVE",
"157 62 OFFCURVE",
"160 44 CURVE SMOOTH",
"164 19 OFFCURVE",
"210 14 OFFCURVE",
"253 30 CURVE SMOOTH",
"298 48 OFFCURVE",
"349 90 OFFCURVE",
"373 171 CURVE SMOOTH",
"405 281 OFFCURVE",
"347 342 OFFCURVE",
"275 342 CURVE SMOOTH",
"175 342 OFFCURVE",
"58 250 OFFCURVE",
"15 137 CURVE SMOOTH",
"-48 -30 OFFCURVE",
"39 -142 OFFCURVE",
"155 -146 CURVE SMOOTH",
"407 -155 OFFCURVE",
"570 96 OFFCURVE",
"654 297 CURVE",
"723 299 OFFCURVE",
"801 282 OFFCURVE",
"836 278 CURVE",
"824 254 OFFCURVE",
"784 181 OFFCURVE",
"767 119 CURVE SMOOTH",
"729 -22 OFFCURVE",
"821 -37 OFFCURVE",
"915 37 CURVE SMOOTH",
"965 76 OFFCURVE",
"1017 138 OFFCURVE",
"1048 191 CURVE SMOOTH",
"1054 201 OFFCURVE",
"1035 213 OFFCURVE",
"1030 204 CURVE SMOOTH",
"998 149 OFFCURVE",
"944 89 OFFCURVE",
"898 52 CURVE SMOOTH",
"821 -10 OFFCURVE",
"792 5 OFFCURVE",
"824 96 CURVE SMOOTH",
"848 165 OFFCURVE",
"876 211 OFFCURVE",
"908 276 CURVE",
"946 277 OFFCURVE",
"974 295 OFFCURVE",
"987 307 CURVE SMOOTH",
"1007 325 OFFCURVE",
"997 336 OFFCURVE",
"980 323 CURVE SMOOTH",
"970 316 OFFCURVE",
"951 315 OFFCURVE",
"926 316 CURVE",
"987 444 OFFCURVE",
"1070 621 OFFCURVE",
"1072 626 CURVE SMOOTH"
);
}
);
width = 970;
}
);
note = H;
unicode = 0048;
},
{
color = 3;
glyphname = I;
lastChange = "2021-09-06 07:47:45 +0000";
layers = (
{
hints = (
{
horizontal = 1;
place = "{-48, 16}";
type = Stem;
},
{
horizontal = 1;
place = "{73, 247}";
type = Stem;
},
{
horizontal = 1;
place = "{460, 13}";
type = Stem;
},
{
horizontal = 1;
place = "{575, 11}";
type = Stem;
},
{
place = "{0, 38}";
type = Stem;
},
{
place = "{284, 26}";
type = Stem;
},
{
place = "{550, 16}";
type = Stem;
}
);
layerId = "77B3CCE3-6B8C-428A-918A-7EE02BACD86D";
paths = (
{
closed = 1;
nodes = (
"142 60 OFFCURVE",
"261 62 OFFCURVE",
"299 189 CURVE SMOOTH",
"324 276 OFFCURVE",
"265 320 OFFCURVE",
"211 320 CURVE SMOOTH",
"120 320 OFFCURVE",
"37 242 OFFCURVE",
"9 150 CURVE SMOOTH",
"-66 -98 OFFCURVE",
"376 -168 OFFCURVE",
"470 262 CURVE",
"513 276 OFFCURVE",
"566 314 OFFCURVE",
"566 382 CURVE SMOOTH",
"566 419 OFFCURVE",
"554 435 OFFCURVE",
"535 454 CURVE",
"570 519 OFFCURVE",
"608 545 OFFCURVE",
"639 567 CURVE SMOOTH",
"648 574 OFFCURVE",
"663 570 OFFCURVE",
"663 570 CURVE",
"670 570 OFFCURVE",
"673 578 OFFCURVE",
"665 579 CURVE",
"649 585 OFFCURVE",
"621 586 OFFCURVE",
"587 586 CURVE SMOOTH",
"385 586 OFFCURVE",
"284 460 OFFCURVE",
"284 363 CURVE SMOOTH",
"284 289 OFFCURVE",
"355 252 OFFCURVE",
"424 257 CURVE",
"318 -117 OFFCURVE",
"-20 -104 OFFCURVE",
"47 156 CURVE SMOOTH",
"68 238 OFFCURVE",
"131 311 OFFCURVE",
"209 310 CURVE SMOOTH",
"255 310 OFFCURVE",
"304 271 OFFCURVE",
"280 188 CURVE SMOOTH",
"244 67 OFFCURVE",
"142 70 OFFCURVE",
"139 91 CURVE SMOOTH",
"138 99 OFFCURVE",
"128 97 OFFCURVE",
"132 87 CURVE SMOOTH"
);
},
{
closed = 1;
nodes = (
"490 347 OFFCURVE",
"509 404 OFFCURVE",
"528 442 CURVE",
"543 427 OFFCURVE",
"551 413 OFFCURVE",
"550 380 CURVE SMOOTH",
"548 320 OFFCURVE",
"495 286 OFFCURVE",
"473 278 CURVE"
);
},
{
closed = 1;
nodes = (
"370 269 OFFCURVE",
"310 287 OFFCURVE",
"310 357 CURVE SMOOTH",
"310 447 OFFCURVE",
"424 575 OFFCURVE",
"585 575 CURVE SMOOTH",
"599 575 OFFCURVE",
"616 574 OFFCURVE",
"627 573 CURVE",
"581 554 OFFCURVE",
"541 515 OFFCURVE",
"511 470 CURVE",
"485 477 OFFCURVE",
"444 474 OFFCURVE",
"421 432 CURVE SMOOTH",
"410 411 OFFCURVE",
"410 386 OFFCURVE",
"421 376 CURVE SMOOTH",
"429 370 OFFCURVE",
"427 384 OFFCURVE",
"427 384 CURVE",
"421 393 OFFCURVE",
"423 416 OFFCURVE",
"431 427 CURVE SMOOTH",
"450 456 OFFCURVE",
"479 464 OFFCURVE",
"502 458 CURVE",
"464 396 OFFCURVE",
"444 338 OFFCURVE",
"428 269 CURVE"
);
}
);
width = 472;
},
{
hints = (
{
horizontal = 1;
place = "{-50, 16}";
type = Stem;
},
{
horizontal = 1;
place = "{72, 11}";
type = Stem;
},
{
horizontal = 1;
place = "{307, 13}";
type = Stem;
},
{
horizontal = 1;
place = "{564, 22}";
type = Stem;
},
{
place = "{8, 51}";
type = Stem;
},
{
place = "{291, 37}";
type = Stem;
},
{
place = "{404, 17}";
type = Stem;
},
{
place = "{554, 26}";
type = Stem;
}
);
layerId = "2C4661F8-41E7-4C5B-84DD-C81E3350E201";
paths = (
{
closed = 1;
nodes = (
"684 589 OFFCURVE",
"609 586 OFFCURVE",
"595 586 CURVE SMOOTH",
"489 586 OFFCURVE",
"372 550 OFFCURVE",
"316 452 CURVE SMOOTH",
"300 426 OFFCURVE",
"291 395 OFFCURVE",
"291 364 CURVE SMOOTH",
"291 294 OFFCURVE",
"339 250 OFFCURVE",
"408 252 CURVE SMOOTH",
"416 252 LINE",
"387 156 OFFCURVE",
"330 44 OFFCURVE",
"241 -9 CURVE SMOOTH",
"218 -23 OFFCURVE",
"191 -33 OFFCURVE",
"163 -33 CURVE SMOOTH",
"92 -33 OFFCURVE",
"59 27 OFFCURVE",
"59 91 CURVE SMOOTH",
"59 174 OFFCURVE",
"109 307 OFFCURVE",
"209 307 CURVE SMOOTH",
"261 307 OFFCURVE",
"285 266 OFFCURVE",
"285 218 CURVE SMOOTH",
"285 161 OFFCURVE",
"246 83 OFFCURVE",
"180 83 CURVE SMOOTH",
"171 83 OFFCURVE",
"153 85 OFFCURVE",
"149 95 CURVE SMOOTH",
"147 99 OFFCURVE",
"147 105 OFFCURVE",
"141 105 CURVE SMOOTH",
"137 105 OFFCURVE",
"135 101 OFFCURVE",
"135 97 CURVE SMOOTH",
"135 77 OFFCURVE",
"163 72 OFFCURVE",
"178 72 CURVE SMOOTH",
"253 72 OFFCURVE",
"319 147 OFFCURVE",
"319 219 CURVE SMOOTH",
"319 284 OFFCURVE",
"273 320 OFFCURVE",
"210 320 CURVE SMOOTH",
"99 320 OFFCURVE",
"8 218 OFFCURVE",
"8 109 CURVE SMOOTH",
"8 11 OFFCURVE",
"89 -50 OFFCURVE",
"183 -50 CURVE SMOOTH",
"350 -50 OFFCURVE",
"449 110 OFFCURVE",
"482 255 CURVE",
"535 274 OFFCURVE",
"580 320 OFFCURVE",
"580 380 CURVE SMOOTH",
"580 411 OFFCURVE",
"572 430 OFFCURVE",
"550 452 CURVE",
"570 487 OFFCURVE",
"626 561 OFFCURVE",
"670 561 CURVE SMOOTH",
"675 561 OFFCURVE",
"684 558 OFFCURVE",
"684 568 CURVE SMOOTH"
);
},
{
closed = 1;
nodes = (
"576 543 OFFCURVE",
"534 510 OFFCURVE",
"508 472 CURVE",
"464 479 OFFCURVE",
"404 446 OFFCURVE",
"404 397 CURVE SMOOTH",
"404 386 OFFCURVE",
"409 370 OFFCURVE",
"422 370 CURVE SMOOTH",
"426 370 OFFCURVE",
"431 371 OFFCURVE",
"431 375 CURVE SMOOTH",
"431 378 OFFCURVE",
"421 393 OFFCURVE",
"421 404 CURVE SMOOTH",
"421 433 OFFCURVE",
"467 460 OFFCURVE",
"493 458 CURVE SMOOTH",
"498 458 LINE",
"463 400 OFFCURVE",
"437 332 OFFCURVE",
"418 267 CURVE",
"415 267 OFFCURVE",
"412 267 OFFCURVE",
"409 267 CURVE SMOOTH",
"357 267 OFFCURVE",
"328 300 OFFCURVE",
"328 351 CURVE SMOOTH",
"328 380 OFFCURVE",
"337 408 OFFCURVE",
"350 433 CURVE SMOOTH",
"399 522 OFFCURVE",
"495 565 OFFCURVE",
"593 565 CURVE SMOOTH",
"601 565 OFFCURVE",
"609 565 OFFCURVE",
"616 565 CURVE"
);
},
{
closed = 1;
nodes = (
"554 344 OFFCURVE",
"527 297 OFFCURVE",
"487 276 CURVE",
"500 331 OFFCURVE",
"517 388 OFFCURVE",
"542 439 CURVE",
"553 426 OFFCURVE",
"554 404 OFFCURVE",
"554 388 CURVE SMOOTH"
);
}
);
width = 562;
}
);
note = I;
unicode = 0049;
},
{
color = 3;
glyphname = J;
lastChange = "2021-09-06 07:47:45 +0000";
layers = (
{
hints = (
{
horizontal = 1;
place = "{-202, 12}";
type = Stem;
},
{
horizontal = 1;
place = "{-57, 11}";
type = Stem;
},
{
horizontal = 1;
place = "{199, 11}";
type = Stem;
},
{
horizontal = 1;
place = "{314, 14}";
type = Stem;
},
{
place = "{-14, 25}";
type = Stem;
},
{
place = "{318, 20}";
type = Stem;
},
{
place = "{390, 21}";
type = Stem;
},
{
place = "{531, 10}";
type = Stem;
}
);
layerId = "77B3CCE3-6B8C-428A-918A-7EE02BACD86D";
paths = (
{
closed = 1;
nodes = (
"409 -199 OFFCURVE",
"547 40 OFFCURVE",
"589 292 CURVE SMOOTH",
"627 516 OFFCURVE",
"728 566 OFFCURVE",
"721 567 CURVE SMOOTH",
"646 580 OFFCURVE",
"418 517 OFFCURVE",
"392 384 CURVE SMOOTH",
"369 269 OFFCURVE",
"549 305 OFFCURVE",
"541 423 CURVE SMOOTH",
"540 432 OFFCURVE",
"529 446 OFFCURVE",
"531 419 CURVE SMOOTH",
"534 379 OFFCURVE",
"500 332 OFFCURVE",
"455 328 CURVE SMOOTH",
"427 326 OFFCURVE",
"400 347 OFFCURVE",
"416 395 CURVE SMOOTH",
"451 498 OFFCURVE",
"584 555 OFFCURVE",
"698 558 CURVE",
"612 524 OFFCURVE",
"570 383 OFFCURVE",
"552 302 CURVE SMOOTH",
"518 152 OFFCURVE",
"407 -184 OFFCURVE",
"149 -190 CURVE SMOOTH",
"40 -192 OFFCURVE",
"-17 -93 OFFCURVE",
"23 31 CURVE SMOOTH",
"50 117 OFFCURVE",
"125 200 OFFCURVE",
"226 199 CURVE SMOOTH",
"379 198 OFFCURVE",
"320 -46 OFFCURVE",
"201 -46 CURVE SMOOTH",
"183 -46 OFFCURVE",
"171 -40 OFFCURVE",
"169 -33 CURVE SMOOTH",
"168 -25 OFFCURVE",
"156 -28 OFFCURVE",
"160 -38 CURVE",
"162 -47 OFFCURVE",
"178 -57 OFFCURVE",
"200 -57 CURVE SMOOTH",
"355 -57 OFFCURVE",
"401 210 OFFCURVE",
"226 210 CURVE SMOOTH",
"128 210 OFFCURVE",
"33 130 OFFCURVE",
"0 33 CURVE SMOOTH",
"-49 -108 OFFCURVE",
"33 -204 OFFCURVE",
"147 -202 CURVE SMOOTH"
);
}
);
width = 619;
},
{
hints = (
{
horizontal = 1;
place = "{-202, 12}";
type = Stem;
},
{
horizontal = 1;
place = "{-59, 16}";
type = Stem;
},
{
horizontal = 1;
place = "{201, 14}";
type = Stem;
},
{
horizontal = 1;
place = "{307, 19}";
type = Stem;
},
{
place = "{7, 45}";
type = Stem;
},
{
place = "{335, 42}";
type = Stem;
},
{
place = "{387, 51}";
type = Stem;
},
{
place = "{553, 15}";
type = Stem;
}
);
layerId = "2C4661F8-41E7-4C5B-84DD-C81E3350E201";
paths = (
{
closed = 1;
nodes = (
"683 580 OFFCURVE",
"416 518 OFFCURVE",
"389 382 CURVE SMOOTH",
"365 261 OFFCURVE",
"577 296 OFFCURVE",
"568 420 CURVE SMOOTH",
"568 425 OFFCURVE",
"564 433 OFFCURVE",
"559 436 CURVE SMOOTH",
"554 438 OFFCURVE",
"555 435 OFFCURVE",
"554 431 CURVE SMOOTH",
"553 427 OFFCURVE",
"553 422 OFFCURVE",
"553 416 CURVE SMOOTH",
"556 379 OFFCURVE",
"519 329 OFFCURVE",
"477 326 CURVE SMOOTH",
"453 324 OFFCURVE",
"428 347 OFFCURVE",
"443 391 CURVE SMOOTH",
"474 483 OFFCURVE",
"590 543 OFFCURVE",
"697 552 CURVE",
"623 505 OFFCURVE",
"586 374 OFFCURVE",
"569 302 CURVE SMOOTH",
"535 152 OFFCURVE",
"435 -185 OFFCURVE",
"181 -190 CURVE SMOOTH",
"77 -193 OFFCURVE",
"31 -79 OFFCURVE",
"60 31 CURVE SMOOTH",
"82 117 OFFCURVE",
"150 201 OFFCURVE",
"248 201 CURVE SMOOTH",
"394 200 OFFCURVE",
"336 -43 OFFCURVE",
"223 -43 CURVE SMOOTH",
"205 -43 OFFCURVE",
"197 -37 OFFCURVE",
"197 -34 CURVE",
"193 -20 OFFCURVE",
"172 -20 OFFCURVE",
"177 -37 CURVE SMOOTH",
"181 -48 OFFCURVE",
"199 -59 OFFCURVE",
"222 -59 CURVE SMOOTH",
"400 -59 OFFCURVE",
"445 215 OFFCURVE",
"248 215 CURVE SMOOTH",
"148 215 OFFCURVE",
"45 136 OFFCURVE",
"17 37 CURVE SMOOTH",
"-24 -111 OFFCURVE",
"62 -204 OFFCURVE",
"179 -202 CURVE SMOOTH",
"445 -199 OFFCURVE",
"589 41 OFFCURVE",
"631 290 CURVE SMOOTH",
"646 377 OFFCURVE",
"680 484 OFFCURVE",
"749 547 CURVE SMOOTH",
"753 550 OFFCURVE",
"774 564 OFFCURVE",
"759 567 CURVE SMOOTH"
);
}
);
width = 642;
}
);
note = J;
unicode = 004A;
},
{
color = 3;
glyphname = K;
lastChange = "2021-09-06 07:47:45 +0000";
layers = (
{
hints = (
{
horizontal = 1;
place = "{-117, 24}";
type = Stem;
},
{
horizontal = 1;
place = "{59, 14}";
type = Stem;
},
{
horizontal = 1;
place = "{219, 15}";
type = Stem;
},
{
horizontal = 1;
place = "{268, 18}";
type = Stem;
},
{
horizontal = 1;
place = "{557, 27}";
type = Stem;
},
{
place = "{11, 29}";
type = Stem;
},
{
place = "{119, 16}";
type = Stem;
},
{
place = "{317, 28}";
type = Stem;
},
{
place = "{347, 25}";
type = Stem;
},
{
place = "{987, 11}";
type = Stem;
}
);
layerId = "77B3CCE3-6B8C-428A-918A-7EE02BACD86D";
paths = (
{
closed = 1;
nodes = (
"460 -4 OFFCURVE",
"511 207 OFFCURVE",
"554 343 CURVE SMOOTH",
"607 513 OFFCURVE",
"730 581 OFFCURVE",
"732 581 CURVE SMOOTH",
"749 583 OFFCURVE",
"385 588 OFFCURVE",
"349 436 CURVE SMOOTH",
"323 327 OFFCURVE",
"490 315 OFFCURVE",
"498 430 CURVE SMOOTH",
"499 441 OFFCURVE",
"490 448 OFFCURVE",
"489 443 CURVE SMOOTH",
"487 437 OFFCURVE",
"491 442 OFFCURVE",
"490 431 CURVE SMOOTH",
"485 397 OFFCURVE",
"455 357 OFFCURVE",
"416 361 CURVE SMOOTH",
"383 365 OFFCURVE",
"363 395 OFFCURVE",
"375 434 CURVE SMOOTH",
"405 527 OFFCURVE",
"554 565 OFFCURVE",
"695 573 CURVE",
"608 544 OFFCURVE",
"533 406 OFFCURVE",
"500 326 CURVE SMOOTH",
"456 218 OFFCURVE",
"410 -23 OFFCURVE",
"226 -44 CURVE SMOOTH",
"168 -51 OFFCURVE",
"1 -13 OFFCURVE",
"48 156 CURVE SMOOTH",
"70 233 OFFCURVE",
"133 288 OFFCURVE",
"220 284 CURVE SMOOTH",
"353 277 OFFCURVE",
"344 92 OFFCURVE",
"222 74 CURVE SMOOTH",
"162 65 OFFCURVE",
"118 113 OFFCURVE",
"141 158 CURVE SMOOTH",
"164 202 OFFCURVE",
"142 191 OFFCURVE",
"126 160 CURVE SMOOTH",
"102 113 OFFCURVE",
"140 58 OFFCURVE",
"219 59 CURVE SMOOTH",
"274 60 OFFCURVE",
"346 109 OFFCURVE",
"345 177 CURVE SMOOTH",
"344 256 OFFCURVE",
"291 295 OFFCURVE",
"220 297 CURVE SMOOTH",
"133 300 OFFCURVE",
"43 249 OFFCURVE",
"17 157 CURVE SMOOTH",
"-18 34 OFFCURVE",
"94 -88 OFFCURVE",
"259 -50 CURVE SMOOTH"
);
},
{
closed = 1;
nodes = (
"500 242 OFFCURVE",
"559 301 OFFCURVE",
"589 245 CURVE SMOOTH",
"591 242 OFFCURVE",
"593 239 OFFCURVE",
"595 235 CURVE",
"589 234 OFFCURVE",
"584 234 OFFCURVE",
"580 234 CURVE SMOOTH"
);
},
{
closed = 1;
nodes = (
"902 -143 OFFCURVE",
"993 -106 OFFCURVE",
"998 -29 CURVE SMOOTH",
"999 -21 OFFCURVE",
"988 -19 OFFCURVE",
"987 -27 CURVE SMOOTH",
"984 -72 OFFCURVE",
"932 -109 OFFCURVE",
"870 -87 CURVE SMOOTH",
"742 -41 OFFCURVE",
"680 149 OFFCURVE",
"630 232 CURVE",
"714 266 OFFCURVE",
"792 342 OFFCURVE",
"871 418 CURVE SMOOTH",
"962 505 OFFCURVE",
"1085 583 OFFCURVE",
"1118 549 CURVE SMOOTH",
"1124 542 OFFCURVE",
"1138 545 OFFCURVE",
"1130 560 CURVE SMOOTH",
"1121 576 OFFCURVE",
"1043 642 OFFCURVE",
"875 458 CURVE SMOOTH",
"775 349 OFFCURVE",
"690 276 OFFCURVE",
"622 244 CURVE",
"619 248 OFFCURVE",
"616 251 OFFCURVE",
"614 255 CURVE",
"580 294 OFFCURVE",
"534 300 OFFCURVE",
"526 253 CURVE SMOOTH",
"523 237 OFFCURVE",
"542 217 OFFCURVE",
"574 219 CURVE SMOOTH",
"583 219 OFFCURVE",
"592 220 OFFCURVE",
"601 222 CURVE",
"641 136 OFFCURVE",
"703 -49 OFFCURVE",
"807 -98 CURVE SMOOTH"
);
}
);
width = 844;
},
{
hints = (
{
horizontal = 1;
place = "{-120, 46}";
type = Stem;
},
{
horizontal = 1;
place = "{-59, 24}";
type = Stem;
},
{
horizontal = 1;
place = "{283, 18}";
type = Stem;
},
{
horizontal = 1;
place = "{548, 42}";
type = Stem;
},
{
place = "{9, 46}";
type = Stem;
},
{
place = "{114, 26}";
type = Stem;
},
{
place = "{312, 38}";
type = Stem;
},
{
place = "{987, 21}";
type = Stem;
}
);
layerId = "2C4661F8-41E7-4C5B-84DD-C81E3350E201";
paths = (
{
closed = 1;
nodes = (
"1123 578 OFFCURVE",
"1046 652 OFFCURVE",
"877 471 CURVE SMOOTH",
"779 366 OFFCURVE",
"690 282 OFFCURVE",
"623 250 CURVE",
"622 252 LINE",
"620 254 OFFCURVE",
"619 255 OFFCURVE",
"618 257 CURVE",
"584 296 OFFCURVE",
"531 308 OFFCURVE",
"521 254 CURVE SMOOTH",
"517 233 OFFCURVE",
"541 213 OFFCURVE",
"574 214 CURVE SMOOTH",
"582 215 OFFCURVE",
"590 215 OFFCURVE",
"598 217 CURVE",
"643 120 OFFCURVE",
"686 -55 OFFCURVE",
"789 -103 CURVE SMOOTH",
"885 -148 OFFCURVE",
"1002 -97 OFFCURVE",
"1008 -16 CURVE SMOOTH",
"1009 -1 OFFCURVE",
"988 1 OFFCURVE",
"987 -13 CURVE SMOOTH",
"984 -53 OFFCURVE",
"936 -89 OFFCURVE",
"877 -68 CURVE SMOOTH",
"814 -46 OFFCURVE",
"768 11 OFFCURVE",
"730 74 CURVE SMOOTH",
"694 134 OFFCURVE",
"661 188 OFFCURVE",
"637 230 CURVE",
"725 266 OFFCURVE",
"806 348 OFFCURVE",
"874 412 CURVE SMOOTH",
"968 500 OFFCURVE",
"1086 571 OFFCURVE",
"1114 541 CURVE SMOOTH",
"1125 531 OFFCURVE",
"1148 533 OFFCURVE",
"1134 558 CURVE SMOOTH"
);
},
{
closed = 1;
nodes = (
"732 582 OFFCURVE",
"724 582 OFFCURVE",
"722 582 CURVE SMOOTH",
"713 582 OFFCURVE",
"685 581 OFFCURVE",
"669 581 CURVE SMOOTH",
"568 576 OFFCURVE",
"357 549 OFFCURVE",
"329 434 CURVE SMOOTH",
"302 320 OFFCURVE",
"479 307 OFFCURVE",
"488 427 CURVE SMOOTH",
"489 444 OFFCURVE",
"473 454 OFFCURVE",
"469 442 CURVE SMOOTH",
"468 439 OFFCURVE",
"468 436 OFFCURVE",
"470 434 CURVE",
"471 432 OFFCURVE",
"470 431 OFFCURVE",
"470 429 CURVE SMOOTH",
"466 396 OFFCURVE",
"437 360 OFFCURVE",
"402 364 CURVE SMOOTH",
"372 367 OFFCURVE",
"353 394 OFFCURVE",
"365 430 CURVE SMOOTH",
"391 512 OFFCURVE",
"520 550 OFFCURVE",
"653 561 CURVE",
"575 517 OFFCURVE",
"510 398 OFFCURVE",
"480 327 CURVE SMOOTH",
"469 300 OFFCURVE",
"458 265 OFFCURVE",
"445 227 CURVE SMOOTH",
"406 118 OFFCURVE",
"348 -35 OFFCURVE",
"220 -35 CURVE SMOOTH",
"-18 -35 OFFCURVE",
"17 293 OFFCURVE",
"220 283 CURVE SMOOTH",
"342 277 OFFCURVE",
"342 89 OFFCURVE",
"221 71 CURVE SMOOTH",
"163 63 OFFCURVE",
"125 118 OFFCURVE",
"145 157 CURVE SMOOTH",
"151 168 OFFCURVE",
"154 176 OFFCURVE",
"155 181 CURVE SMOOTH",
"157 192 OFFCURVE",
"152 194 OFFCURVE",
"147 193 CURVE SMOOTH",
"140 191 OFFCURVE",
"129 178 OFFCURVE",
"122 163 CURVE SMOOTH",
"95 112 OFFCURVE",
"138 55 OFFCURVE",
"219 57 CURVE SMOOTH",
"276 57 OFFCURVE",
"351 107 OFFCURVE",
"350 178 CURVE SMOOTH",
"349 259 OFFCURVE",
"293 299 OFFCURVE",
"220 301 CURVE SMOOTH",
"-75 310 OFFCURVE",
"-60 -123 OFFCURVE",
"260 -51 CURVE SMOOTH",
"362 -28 OFFCURVE",
"426 37 OFFCURVE",
"470 112 CURVE SMOOTH",
"512 183 OFFCURVE",
"534 262 OFFCURVE",
"559 340 CURVE SMOOTH",
"611 504 OFFCURVE",
"730 571 OFFCURVE",
"732 571 CURVE SMOOTH",
"737 572 OFFCURVE",
"740 579 OFFCURVE",
"734 581 CURVE SMOOTH"
);
}
);
width = 844;
}
);
note = K;
unicode = 004B;
},
{
color = 3;
glyphname = L;
lastChange = "2021-09-06 07:47:45 +0000";
layers = (
{
hints = (
{
horizontal = 1;
place = "{-114, 15}";
type = Stem;
},
{
horizontal = 1;
place = "{-37, 16}";
type = Stem;
},
{
horizontal = 1;
place = "{612, 22}";
type = Stem;
},
{
place = "{-33, 16}";
type = Stem;
},
{
place = "{194, 26}";
type = Stem;
},
{
place = "{415, 12}";
type = Stem;
},
{
place = "{751, 15}";
type = Stem;
}
);
layerId = "77B3CCE3-6B8C-428A-918A-7EE02BACD86D";
paths = (
{
closed = 1;
nodes = (
"604 -120 OFFCURVE",
"684 -92 OFFCURVE",
"701 -25 CURVE SMOOTH",
"703 -15 OFFCURVE",
"690 -15 OFFCURVE",
"688 -21 CURVE SMOOTH",
"668 -104 OFFCURVE",
"532 -106 OFFCURVE",
"475 -93 CURVE SMOOTH",
"419 -81 OFFCURVE",
"306 -18 OFFCURVE",
"251 26 CURVE",
"324 77 OFFCURVE",
"393 182 OFFCURVE",
"443 294 CURVE",
"559 309 OFFCURVE",
"814 504 OFFCURVE",
"758 610 CURVE SMOOTH",
"744 637 OFFCURVE",
"655 672 OFFCURVE",
"524 515 CURVE SMOOTH",
"482 464 OFFCURVE",
"441 387 OFFCURVE",
"400 307 CURVE",
"290 305 OFFCURVE",
"220 370 OFFCURVE",
"220 457 CURVE SMOOTH",
"220 637 OFFCURVE",
"416 643 OFFCURVE",
"416 539 CURVE SMOOTH",
"416 525 OFFCURVE",
"427 524 OFFCURVE",
"427 538 CURVE SMOOTH",
"427 674 OFFCURVE",
"194 636 OFFCURVE",
"194 455 CURVE SMOOTH",
"194 356 OFFCURVE",
"289 296 OFFCURVE",
"391 292 CURVE",
"342 198 OFFCURVE",
"299 103 OFFCURVE",
"234 42 CURVE",
"193 78 OFFCURVE",
"123 152 OFFCURVE",
"63 158 CURVE SMOOTH",
"-32 168 OFFCURVE",
"-98 -5 OFFCURVE",
"72 -35 CURVE SMOOTH",
"119 -43 OFFCURVE",
"170 -26 OFFCURVE",
"225 9 CURVE",
"282 -39 OFFCURVE",
"388 -108 OFFCURVE",
"496 -114 CURVE SMOOTH"
);
},
{
closed = 1;
nodes = (
"-52 -15 OFFCURVE",
"-45 180 OFFCURVE",
"78 119 CURVE SMOOTH",
"116 100 OFFCURVE",
"164 61 OFFCURVE",
"210 23 CURVE",
"172 -8 OFFCURVE",
"125 -23 OFFCURVE",
"77 -21 CURVE SMOOTH"
);
},
{
closed = 1;
nodes = (
"462 336 OFFCURVE",
"473 359 OFFCURVE",
"483 380 CURVE SMOOTH",
"604 618 OFFCURVE",
"721 627 OFFCURVE",
"741 603 CURVE SMOOTH",
"799 533 OFFCURVE",
"588 334 OFFCURVE",
"451 313 CURVE"
);
}
);
width = 534;
},
{
hints = (
{
horizontal = 1;
place = "{-114, 36}";
type = Stem;
},
{
horizontal = 1;
place = "{-38, 21}";
type = Stem;
},
{
horizontal = 1;
place = "{606, 28}";
type = Stem;
},
{
place = "{-2, 26}";
type = Stem;
},
{
place = "{215, 46}";
type = Stem;
},
{
place = "{446, 22}";
type = Stem;
},
{
place = "{801, 23}";
type = Stem;
}
);
layerId = "2C4661F8-41E7-4C5B-84DD-C81E3350E201";
paths = (
{
closed = 1;
nodes = (
"796 640 OFFCURVE",
"686 669 OFFCURVE",
"556 515 CURVE SMOOTH",
"513 464 OFFCURVE",
"473 389 OFFCURVE",
"433 311 CURVE",
"326 311 OFFCURVE",
"261 373 OFFCURVE",
"261 454 CURVE SMOOTH",
"261 629 OFFCURVE",
"446 637 OFFCURVE",
"446 535 CURVE SMOOTH",
"446 515 OFFCURVE",
"468 514 OFFCURVE",
"468 534 CURVE SMOOTH",
"468 675 OFFCURVE",
"215 638 OFFCURVE",
"215 452 CURVE SMOOTH",
"215 353 OFFCURVE",
"318 294 OFFCURVE",
"419 287 CURVE",
"378 210 OFFCURVE",
"343 128 OFFCURVE",
"279 67 CURVE",
"236 105 OFFCURVE",
"159 158 OFFCURVE",
"99 164 CURVE SMOOTH",
"-2 174 OFFCURVE",
"-69 -6 OFFCURVE",
"107 -36 CURVE SMOOTH",
"155 -44 OFFCURVE",
"221 -27 OFFCURVE",
"275 6 CURVE",
"333 -41 OFFCURVE",
"444 -109 OFFCURVE",
"552 -114 CURVE SMOOTH",
"659 -119 OFFCURVE",
"744 -92 OFFCURVE",
"761 -22 CURVE SMOOTH",
"765 -7 OFFCURVE",
"742 -4 OFFCURVE",
"739 -16 CURVE SMOOTH",
"720 -93 OFFCURVE",
"600 -81 OFFCURVE",
"542 -69 CURVE SMOOTH",
"488 -57 OFFCURVE",
"376 1 OFFCURVE",
"320 44 CURVE",
"391 96 OFFCURVE",
"448 182 OFFCURVE",
"497 289 CURVE",
"624 308 OFFCURVE",
"879 484 OFFCURVE",
"813 608 CURVE SMOOTH"
);
},
{
closed = 1;
nodes = (
"724 432 OFFCURVE",
"606 338 OFFCURVE",
"511 319 CURVE",
"520 339 OFFCURVE",
"529 358 OFFCURVE",
"538 376 CURVE SMOOTH",
"598 493 OFFCURVE",
"657 553 OFFCURVE",
"703 581 CURVE SMOOTH",
"785 631 OFFCURVE",
"835 605 OFFCURVE",
"774 509 CURVE SMOOTH"
);
},
{
closed = 1;
nodes = (
"201 -1 OFFCURVE",
"158 -19 OFFCURVE",
"113 -17 CURVE SMOOTH",
"-8 -12 OFFCURVE",
"-4 173 OFFCURVE",
"112 116 CURVE SMOOTH",
"148 99 OFFCURVE",
"193 63 OFFCURVE",
"237 27 CURVE"
);
}
);
width = 683;
}
);
note = L;
unicode = 004C;
},
{
color = 3;
glyphname = M;
lastChange = "2021-09-06 07:47:45 +0000";
layers = (
{
hints = (
{
horizontal = 1;
place = "{-98, 10}";
type = Stem;
},
{
horizontal = 1;
place = "{549, 13}";
type = Stem;
},
{
horizontal = 1;
place = "{618, 18}";
type = Stem;
},
{
horizontal = 1;
place = "{669, 15}";
type = Stem;
},
{
place = "{-4, 14}";
type = Stem;
},
{
place = "{223, 37}";
type = Stem;
},
{
place = "{528, 28}";
type = Stem;
},
{
place = "{866, 40}";
type = Stem;
}
);
layerId = "77B3CCE3-6B8C-428A-918A-7EE02BACD86D";
paths = (
{
closed = 1;
nodes = (
"736 -98 OFFCURVE",
"767 -71 OFFCURVE",
"774 -45 CURVE SMOOTH",
"779 -25 OFFCURVE",
"765 -20 OFFCURVE",
"764 -39 CURVE SMOOTH",
"761 -59 OFFCURVE",
"733 -88 OFFCURVE",
"699 -88 CURVE SMOOTH",
"666 -88 OFFCURVE",
"642 -57 OFFCURVE",
"647 -12 CURVE SMOOTH",
"663 119 OFFCURVE",
"891 460 OFFCURVE",
"905 567 CURVE SMOOTH",
"916 651 OFFCURVE",
"844 649 OFFCURVE",
"790 611 CURVE SMOOTH",
"690 542 OFFCURVE",
"519 291 OFFCURVE",
"483 234 CURVE",
"508 306 OFFCURVE",
"552 428 OFFCURVE",
"556 499 CURVE SMOOTH",
"560 567 OFFCURVE",
"515 578 OFFCURVE",
"461 542 CURVE SMOOTH",
"370 482 OFFCURVE",
"256 300 OFFCURVE",
"221 241 CURVE",
"234 289 OFFCURVE",
"259 408 OFFCURVE",
"260 488 CURVE SMOOTH",
"262 754 OFFCURVE",
"-4 717 OFFCURVE",
"-4 568 CURVE SMOOTH",
"-4 526 OFFCURVE",
"19 488 OFFCURVE",
"70 482 CURVE SMOOTH",
"79 481 OFFCURVE",
"86 493 OFFCURVE",
"71 495 CURVE SMOOTH",
"29 501 OFFCURVE",
"10 532 OFFCURVE",
"10 566 CURVE SMOOTH",
"10 700 OFFCURVE",
"237 738 OFFCURVE",
"223 465 CURVE SMOOTH",
"214 275 OFFCURVE",
"139 106 OFFCURVE",
"86 -19 CURVE",
"86 -19 OFFCURVE",
"116 0 OFFCURVE",
"136 0 CURVE",
"178 114 OFFCURVE",
"241 257 OFFCURVE",
"329 379 CURVE SMOOTH",
"373 439 OFFCURVE",
"424 502 OFFCURVE",
"475 534 CURVE SMOOTH",
"515 561 OFFCURVE",
"534 553 OFFCURVE",
"526 504 CURVE SMOOTH",
"519 457 OFFCURVE",
"492 373 OFFCURVE",
"448 248 CURVE SMOOTH",
"385 70 OFFCURVE",
"360 24 OFFCURVE",
"380 16 CURVE",
"380 16 OFFCURVE",
"404 2 OFFCURVE",
"414 32 CURVE SMOOTH",
"485 236 OFFCURVE",
"700 540 OFFCURVE",
"800 602 CURVE SMOOTH",
"839 626 OFFCURVE",
"873 629 OFFCURVE",
"864 574 CURVE SMOOTH",
"846 465 OFFCURVE",
"644 167 OFFCURVE",
"628 -1 CURVE SMOOTH",
"623 -56 OFFCURVE",
"654 -98 OFFCURVE",
"697 -98 CURVE SMOOTH"
);
}
);
width = 796;
},
{
hints = (
{
horizontal = 1;
place = "{-103, 20}";
type = Stem;
},
{
horizontal = 1;
place = "{536, 28}";
type = Stem;
},
{
horizontal = 1;
place = "{605, 31}";
type = Stem;
},
{
horizontal = 1;
place = "{655, 29}";
type = Stem;
},
{
place = "{16, 18}";
type = Stem;
},
{
place = "{243, 67}";
type = Stem;
},
{
place = "{563, 58}";
type = Stem;
},
{
place = "{683, 43}";
type = Stem;
},
{
place = "{917, 68}";
type = Stem;
}
);
layerId = "2C4661F8-41E7-4C5B-84DD-C81E3350E201";
paths = (
{
closed = 1;
nodes = (
"997 655 OFFCURVE",
"900 648 OFFCURVE",
"846 611 CURVE SMOOTH",
"760 552 OFFCURVE",
"620 359 OFFCURVE",
"561 271 CURVE",
"583 335 OFFCURVE",
"617 431 OFFCURVE",
"621 496 CURVE SMOOTH",
"625 569 OFFCURVE",
"559 580 OFFCURVE",
"503 543 CURVE SMOOTH",
"423 491 OFFCURVE",
"325 346 OFFCURVE",
"278 272 CURVE",
"292 329 OFFCURVE",
"309 420 OFFCURVE",
"310 485 CURVE SMOOTH",
"312 755 OFFCURVE",
"16 718 OFFCURVE",
"16 565 CURVE SMOOTH",
"16 522 OFFCURVE",
"40 480 OFFCURVE",
"94 475 CURVE SMOOTH",
"109 473 OFFCURVE",
"118 488 OFFCURVE",
"97 491 CURVE SMOOTH",
"58 497 OFFCURVE",
"34 523 OFFCURVE",
"34 554 CURVE SMOOTH",
"34 680 OFFCURVE",
"256 725 OFFCURVE",
"243 463 CURVE SMOOTH",
"238 370 OFFCURVE",
"217 282 OFFCURVE",
"191 202 CURVE SMOOTH",
"164 121 OFFCURVE",
"132 49 OFFCURVE",
"100 -27 CURVE",
"114 -19 OFFCURVE",
"163 -2 OFFCURVE",
"184 -2 CURVE",
"232 127 OFFCURVE",
"322 333 OFFCURVE",
"435 454 CURVE SMOOTH",
"495 518 OFFCURVE",
"601 610 OFFCURVE",
"549 432 CURVE SMOOTH",
"536 386 OFFCURVE",
"515 326 OFFCURVE",
"488 250 CURVE SMOOTH",
"456 162 OFFCURVE",
"430 94 OFFCURVE",
"419 60 CURVE SMOOTH",
"398 -1 OFFCURVE",
"467 -8 OFFCURVE",
"482 35 CURVE SMOOTH",
"543 210 OFFCURVE",
"695 439 OFFCURVE",
"798 542 CURVE SMOOTH",
"861 606 OFFCURVE",
"963 660 OFFCURVE",
"896 503 CURVE SMOOTH",
"868 437 OFFCURVE",
"822 353 OFFCURVE",
"800 311 CURVE SMOOTH",
"746 203 OFFCURVE",
"691 87 OFFCURVE",
"683 3 CURVE SMOOTH",
"670 -126 OFFCURVE",
"830 -132 OFFCURVE",
"854 -42 CURVE SMOOTH",
"861 -14 OFFCURVE",
"836 -10 OFFCURVE",
"834 -34 CURVE",
"823 -88 OFFCURVE",
"713 -117 OFFCURVE",
"727 -9 CURVE SMOOTH",
"735 55 OFFCURVE",
"795 170 OFFCURVE",
"856 284 CURVE SMOOTH",
"888 344 OFFCURVE",
"976 500 OFFCURVE",
"984 563 CURVE SMOOTH"
);
}
);
width = 904;
}
);
note = M;
unicode = 004D;
},
{
color = 3;
glyphname = N;
lastChange = "2021-09-06 07:47:45 +0000";
layers = (
{
hints = (
{
horizontal = 1;
place = "{-88, 10}";
type = Stem;
},
{
horizontal = 1;
place = "{550, 16}";
type = Stem;
},
{
horizontal = 1;
place = "{652, 14}";
type = Stem;
},
{
place = "{-187, 16}";
type = Stem;
},
{
place = "{165, 35}";
type = Stem;
},
{
place = "{353, 19}";
type = Stem;
},
{
place = "{540, 37}";
type = Stem;
}
);
layerId = "77B3CCE3-6B8C-428A-918A-7EE02BACD86D";
paths = (
{
closed = 1;
nodes = (
"422 -117 OFFCURVE",
"499 -67 OFFCURVE",
"509 -30 CURVE SMOOTH",
"512 -19 OFFCURVE",
"501 -16 OFFCURVE",
"500 -24 CURVE SMOOTH",
"495 -53 OFFCURVE",
"428 -102 OFFCURVE",
"390 -64 CURVE SMOOTH",
"329 -4 OFFCURVE",
"442 193 OFFCURVE",
"475 259 CURVE SMOOTH",
"529 370 OFFCURVE",
"568 451 OFFCURVE",
"576 502 CURVE SMOOTH",
"589 593 OFFCURVE",
"495 571 OFFCURVE",
"445 537 CURVE SMOOTH",
"332 462 OFFCURVE",
"201 269 OFFCURVE",
"165 215 CURVE",
"225 393 OFFCURVE",
"235 666 OFFCURVE",
"-22 666 CURVE SMOOTH",
"-148 666 OFFCURVE",
"-223 525 OFFCURVE",
"-169 457 CURVE SMOOTH",
"-160 446 OFFCURVE",
"-148 453 OFFCURVE",
"-157 465 CURVE SMOOTH",
"-201 521 OFFCURVE",
"-135 652 OFFCURVE",
"-20 652 CURVE SMOOTH",
"82 652 OFFCURVE",
"168 592 OFFCURVE",
"165 405 CURVE SMOOTH",
"162 246 OFFCURVE",
"45 -19 OFFCURVE",
"45 -19 CURVE",
"45 -19 OFFCURVE",
"72 -2 OFFCURVE",
"92 -2 CURVE",
"116 106 OFFCURVE",
"278 412 OFFCURVE",
"455 528 CURVE SMOOTH",
"490 551 OFFCURVE",
"551 572 OFFCURVE",
"538 506 CURVE SMOOTH",
"528 457 OFFCURVE",
"485 367 OFFCURVE",
"430 246 CURVE SMOOTH",
"410 202 OFFCURVE",
"311 1 OFFCURVE",
"375 -67 CURVE SMOOTH"
);
}
);
width = 495;
},
{
hints = (
{
horizontal = 1;
place = "{-90, 23}";
type = Stem;
},
{
horizontal = 1;
place = "{543, 25}";
type = Stem;
},
{
horizontal = 1;
place = "{647, 19}";
type = Stem;
},
{
place = "{-192, 17}";
type = Stem;
},
{
place = "{160, 55}";
type = Stem;
},
{
place = "{363, 54}";
type = Stem;
},
{
place = "{550, 67}";
type = Stem;
}
);
layerId = "2C4661F8-41E7-4C5B-84DD-C81E3350E201";
paths = (
{
closed = 1;
nodes = (
"630 594 OFFCURVE",
"510 573 OFFCURVE",
"457 538 CURVE SMOOTH",
"358 473 OFFCURVE",
"246 320 OFFCURVE",
"195 246 CURVE",
"237 410 OFFCURVE",
"231 672 OFFCURVE",
"-22 666 CURVE SMOOTH",
"-151 663 OFFCURVE",
"-231 523 OFFCURVE",
"-173 452 CURVE SMOOTH",
"-160 435 OFFCURVE",
"-150 448 OFFCURVE",
"-163 466 CURVE SMOOTH",
"-204 516 OFFCURVE",
"-133 647 OFFCURVE",
"-20 647 CURVE SMOOTH",
"79 647 OFFCURVE",
"163 586 OFFCURVE",
"160 404 CURVE SMOOTH",
"157 248 OFFCURVE",
"40 -13 OFFCURVE",
"34 -28 CURVE",
"48 -19 OFFCURVE",
"94 -3 OFFCURVE",
"116 -3 CURVE",
"144 132 OFFCURVE",
"297 407 OFFCURVE",
"473 521 CURVE SMOOTH",
"504 541 OFFCURVE",
"560 563 OFFCURVE",
"548 504 CURVE SMOOTH",
"543 480 OFFCURVE",
"530 446 OFFCURVE",
"511 403 CURVE SMOOTH",
"492 360 OFFCURVE",
"468 308 OFFCURVE",
"440 248 CURVE SMOOTH",
"409 180 OFFCURVE",
"323 1 OFFCURVE",
"386 -66 CURVE SMOOTH",
"438 -119 OFFCURVE",
"531 -76 OFFCURVE",
"554 -27 CURVE SMOOTH",
"562 -10 OFFCURVE",
"539 -5 OFFCURVE",
"535 -19 CURVE SMOOTH",
"528 -44 OFFCURVE",
"467 -89 OFFCURVE",
"433 -56 CURVE SMOOTH",
"375 1 OFFCURVE",
"491 200 OFFCURVE",
"519 257 CURVE SMOOTH",
"573 366 OFFCURVE",
"608 448 OFFCURVE",
"616 499 CURVE SMOOTH"
);
}
);
width = 564;
}
);
note = N;
unicode = 004E;
},
{
color = 3;
glyphname = Eng;
lastChange = "2021-09-06 05:04:03 +0000";
layers = (
{
hints = (
{
horizontal = 1;
place = "{-88, 10}";
type = Stem;
},
{
horizontal = 1;
place = "{550, 16}";
type = Stem;
},
{
horizontal = 1;
place = "{652, 14}";
type = Stem;
},
{
place = "{-187, 16}";
type = Stem;
},
{
place = "{165, 35}";
type = Stem;
},
{
place = "{353, 19}";
type = Stem;
},
{
place = "{540, 37}";
type = Stem;
}
);
layerId = "77B3CCE3-6B8C-428A-918A-7EE02BACD86D";
paths = (
{
closed = 1;
nodes = (
"45 -19 OFFCURVE",
"72 -2 OFFCURVE",
"92 -2 CURVE",
"116 106 OFFCURVE",
"278 412 OFFCURVE",
"455 528 CURVE SMOOTH",
"490 551 OFFCURVE",
"551 572 OFFCURVE",
"538 506 CURVE SMOOTH",
"528 457 OFFCURVE",
"568 451 OFFCURVE",
"576 502 CURVE SMOOTH",
"589 593 OFFCURVE",
"495 571 OFFCURVE",
"445 537 CURVE SMOOTH",
"332 462 OFFCURVE",
"201 269 OFFCURVE",
"165 215 CURVE",
"225 393 OFFCURVE",
"235 666 OFFCURVE",
"-22 666 CURVE SMOOTH",
"-148 666 OFFCURVE",
"-223 525 OFFCURVE",
"-169 457 CURVE SMOOTH",
"-160 446 OFFCURVE",
"-148 453 OFFCURVE",
"-157 465 CURVE SMOOTH",
"-201 521 OFFCURVE",
"-135 652 OFFCURVE",
"-20 652 CURVE SMOOTH",
"82 652 OFFCURVE",
"168 592 OFFCURVE",
"165 405 CURVE SMOOTH",
"162 246 OFFCURVE",
"45 -19 OFFCURVE",
"45 -19 CURVE"
);
},
{
closed = 1;
nodes = (
"323 -276 OFFCURVE",
"403 -37 OFFCURVE",
"492 212 CURVE SMOOTH",
"539 344 OFFCURVE",
"573 462 OFFCURVE",
"576 502 CURVE",
"538 506 LINE",
"535 476 OFFCURVE",
"481 313 OFFCURVE",
"458 249 CURVE SMOOTH",
"377 25 OFFCURVE",
"289 -254 OFFCURVE",
"152 -298 CURVE SMOOTH",
"106 -311 OFFCURVE",
"26 -287 OFFCURVE",
"37 -199 CURVE SMOOTH",
"42 -166 OFFCURVE",
"60 -143 OFFCURVE",
"70 -136 CURVE SMOOTH",
"73 -136 OFFCURVE",
"67 -131 OFFCURVE",
"61 -132 CURVE SMOOTH",
"51 -133 OFFCURVE",
"28 -156 OFFCURVE",
"22 -187 CURVE SMOOTH",
"1 -281 OFFCURVE",
"69 -338 OFFCURVE",
"152 -318 CURVE SMOOTH"
);
}
);
width = 495;
},
{
hints = (
{
horizontal = 1;
place = "{-88, 10}";
type = Stem;
},
{
horizontal = 1;
place = "{550, 16}";
type = Stem;
},
{
horizontal = 1;
place = "{652, 14}";
type = Stem;
},
{
place = "{-187, 16}";
type = Stem;
},
{
place = "{165, 35}";
type = Stem;
},
{
place = "{353, 19}";
type = Stem;
},
{
place = "{540, 37}";
type = Stem;
},
{
horizontal = 1;
place = "{-90, 23}";
type = Stem;
},
{
horizontal = 1;
place = "{543, 25}";
type = Stem;
},
{
horizontal = 1;
place = "{647, 19}";
type = Stem;
},
{
place = "{-192, 17}";
type = Stem;
},
{
place = "{160, 55}";
type = Stem;
},
{
place = "{363, 54}";
type = Stem;
},
{
place = "{550, 67}";
type = Stem;
}
);
layerId = "2C4661F8-41E7-4C5B-84DD-C81E3350E201";
paths = (
{
closed = 1;
nodes = (
"358 473 OFFCURVE",
"246 320 OFFCURVE",
"195 246 CURVE",
"237 410 OFFCURVE",
"231 672 OFFCURVE",
"-22 666 CURVE SMOOTH",
"-151 663 OFFCURVE",
"-231 523 OFFCURVE",
"-173 452 CURVE SMOOTH",
"-160 435 OFFCURVE",
"-150 448 OFFCURVE",
"-163 466 CURVE SMOOTH",
"-204 516 OFFCURVE",
"-133 647 OFFCURVE",
"-20 647 CURVE SMOOTH",
"79 647 OFFCURVE",
"163 586 OFFCURVE",
"160 404 CURVE SMOOTH",
"157 248 OFFCURVE",
"40 -13 OFFCURVE",
"34 -28 CURVE",
"48 -19 OFFCURVE",
"94 -3 OFFCURVE",
"116 -3 CURVE",
"144 132 OFFCURVE",
"297 407 OFFCURVE",
"473 521 CURVE SMOOTH",
"504 541 OFFCURVE",
"560 563 OFFCURVE",
"548 504 CURVE",
"548 502 LINE SMOOTH",
"543 465 OFFCURVE",
"491 266 OFFCURVE",
"468 203 CURVE SMOOTH",
"387 -21 OFFCURVE",
"329 -257 OFFCURVE",
"192 -301 CURVE SMOOTH",
"146 -314 OFFCURVE",
"66 -290 OFFCURVE",
"77 -202 CURVE SMOOTH",
"82 -169 OFFCURVE",
"100 -146 OFFCURVE",
"110 -139 CURVE",
"113 -139 OFFCURVE",
"107 -134 OFFCURVE",
"101 -135 CURVE SMOOTH",
"91 -136 OFFCURVE",
"68 -159 OFFCURVE",
"62 -190 CURVE SMOOTH",
"41 -284 OFFCURVE",
"109 -341 OFFCURVE",
"192 -321 CURVE SMOOTH",
"363 -279 OFFCURVE",
"443 -84 OFFCURVE",
"532 165 CURVE SMOOTH",
"579 297 OFFCURVE",
"613 459 OFFCURVE",
"616 499 CURVE",
"630 594 OFFCURVE",
"510 573 OFFCURVE",
"457 538 CURVE SMOOTH"
);
}
);
width = 564;
}
);
unicode = 014A;
},
{
color = 3;
glyphname = O;
lastChange = "2021-09-06 07:47:45 +0000";
layers = (
{
hints = (
{
horizontal = 1;
place = "{-43, 16}";
type = Stem;
},
{
horizontal = 1;
place = "{330, 12}";
type = Stem;
},
{
horizontal = 1;
place = "{515, 14}";
type = Stem;
},
{
horizontal = 1;
place = "{595, 13}";
type = Stem;
},
{
horizontal = 1;
place = "{638, 21}";
target = up;
type = BottomGhost;
},
{
place = "{30, 29}";
type = Stem;
},
{
place = "{79, 49}";
type = Stem;
},
{
place = "{594, 19}";
type = Stem;
}
);
layerId = "77B3CCE3-6B8C-428A-918A-7EE02BACD86D";
paths = (
{
closed = 1;
nodes = (
"510 83 OFFCURVE",
"558 154 OFFCURVE",
"593 262 CURVE SMOOTH",
"621 349 OFFCURVE",
"619 420 OFFCURVE",
"597 468 CURVE",
"600 474 OFFCURVE",
"604 480 OFFCURVE",
"605 485 CURVE",
"640 578 OFFCURVE",
"550 609 OFFCURVE",
"479 608 CURVE SMOOTH",
"350 605 OFFCURVE",
"231 546 OFFCURVE",
"146 392 CURVE",
"66 449 OFFCURVE",
"37 545 OFFCURVE",
"77 597 CURVE SMOOTH",
"110 641 OFFCURVE",
"199 672 OFFCURVE",
"254 562 CURVE SMOOTH",
"258 554 OFFCURVE",
"268 558 OFFCURVE",
"264 566 CURVE SMOOTH",
"196 707 OFFCURVE",
"85 655 OFFCURVE",
"56 617 CURVE SMOOTH",
"5 553 OFFCURVE",
"27 433 OFFCURVE",
"135 371 CURVE",
"103 305 OFFCURVE",
"76 216 OFFCURVE",
"78 138 CURVE SMOOTH",
"83 -86 OFFCURVE",
"328 -81 OFFCURVE",
"459 37 CURVE SMOOTH"
);
},
{
closed = 1;
nodes = (
"326 -54 OFFCURVE",
"131 -85 OFFCURVE",
"127 131 CURVE SMOOTH",
"125 209 OFFCURVE",
"151 297 OFFCURVE",
"176 351 CURVE",
"211 338 OFFCURVE",
"254 330 OFFCURVE",
"303 330 CURVE SMOOTH",
"438 330 OFFCURVE",
"524 385 OFFCURVE",
"569 432 CURVE",
"577 389 OFFCURVE",
"572 331 OFFCURVE",
"552 268 CURVE SMOOTH",
"527 191 OFFCURVE",
"486 122 OFFCURVE",
"439 70 CURVE SMOOTH"
);
},
{
closed = 1;
nodes = (
"259 342 OFFCURVE",
"218 351 OFFCURVE",
"184 369 CURVE",
"268 536 OFFCURVE",
"380 590 OFFCURVE",
"478 594 CURVE SMOOTH",
"532 596 OFFCURVE",
"619 562 OFFCURVE",
"587 486 CURVE",
"557 531 OFFCURVE",
"494 538 OFFCURVE",
"461 520 CURVE SMOOTH",
"453 516 OFFCURVE",
"452 504 OFFCURVE",
"466 509 CURVE SMOOTH",
"516 528 OFFCURVE",
"551 503 OFFCURVE",
"565 451 CURVE",
"526 403 OFFCURVE",
"442 342 OFFCURVE",
"304 342 CURVE SMOOTH"
);
}
);
width = 595;
},
{
hints = (
{
horizontal = 1;
place = "{-43, 18}";
type = Stem;
},
{
horizontal = 1;
place = "{325, 16}";
type = Stem;
},
{
horizontal = 1;
place = "{523, 16}";
type = Stem;
},
{
horizontal = 1;
place = "{590, 18}";
type = Stem;
},
{
horizontal = 1;
place = "{635, 24}";
type = Stem;
},
{
place = "{25, 38}";
type = Stem;
},
{
place = "{74, 74}";
type = Stem;
},
{
place = "{583, 59}";
type = Stem;
}
);
layerId = "2C4661F8-41E7-4C5B-84DD-C81E3350E201";
paths = (
{
closed = 1;
nodes = (
"655 346 OFFCURVE",
"636 435 OFFCURVE",
"622 456 CURVE",
"683 559 OFFCURVE",
"573 610 OFFCURVE",
"494 608 CURVE SMOOTH",
"365 606 OFFCURVE",
"226 545 OFFCURVE",
"140 395 CURVE",
"119 410 OFFCURVE",
"101 426 OFFCURVE",
"89 444 CURVE SMOOTH",
"19 549 OFFCURVE",
"102 680 OFFCURVE",
"213 620 CURVE SMOOTH",
"233 609 OFFCURVE",
"252 591 OFFCURVE",
"267 562 CURVE SMOOTH",
"273 548 OFFCURVE",
"287 555 OFFCURVE",
"280 569 CURVE SMOOTH",
"212 708 OFFCURVE",
"83 655 OFFCURVE",
"52 616 CURVE SMOOTH",
"-1 550 OFFCURVE",
"22 431 OFFCURVE",
"128 368 CURVE",
"97 303 OFFCURVE",
"71 217 OFFCURVE",
"73 140 CURVE SMOOTH",
"78 -88 OFFCURVE",
"362 -79 OFFCURVE",
"492 37 CURVE SMOOTH",
"544 83 OFFCURVE",
"593 154 OFFCURVE",
"628 261 CURVE SMOOTH"
);
},
{
closed = 1;
nodes = (
"568 534 OFFCURVE",
"502 549 OFFCURVE",
"469 532 CURVE SMOOTH",
"454 524 OFFCURVE",
"452 510 OFFCURVE",
"476 519 CURVE SMOOTH",
"522 536 OFFCURVE",
"561 498 OFFCURVE",
"575 450 CURVE",
"536 404 OFFCURVE",
"453 341 OFFCURVE",
"319 341 CURVE SMOOTH",
"277 341 OFFCURVE",
"232 354 OFFCURVE",
"201 367 CURVE",
"285 527 OFFCURVE",
"398 587 OFFCURVE",
"493 590 CURVE SMOOTH",
"545 592 OFFCURVE",
"620 556 OFFCURVE",
"601 494 CURVE"
);
},
{
closed = 1;
nodes = (
"586 379 OFFCURVE",
"581 327 OFFCURVE",
"562 270 CURVE SMOOTH",
"537 195 OFFCURVE",
"497 127 OFFCURVE",
"450 77 CURVE SMOOTH",
"321 -63 OFFCURVE",
"151 -74 OFFCURVE",
"147 134 CURVE SMOOTH",
"145 207 OFFCURVE",
"169 291 OFFCURVE",
"194 345 CURVE",
"229 332 OFFCURVE",
"271 325 OFFCURVE",
"318 325 CURVE SMOOTH",
"447 325 OFFCURVE",
"533 374 OFFCURVE",
"581 420 CURVE"
);
}
);
width = 595;
}
);
note = O;
unicode = 004F;
},
{
color = 3;
glyphname = Oslash;
lastChange = "2021-09-06 07:47:45 +0000";
layers = (
{
hints = (
{
horizontal = 1;
place = "{-43, 16}";
type = Stem;
},
{
horizontal = 1;
place = "{330, 12}";
type = Stem;
},
{
horizontal = 1;
place = "{515, 14}";
type = Stem;
},
{
horizontal = 1;
place = "{637, 22}";
type = Stem;
},
{
place = "{30, 30}";
type = Stem;
},
{
place = "{594, 19}";
type = Stem;
},
{
horizontal = 1;
place = "{594, 14}";
type = Stem;
},
{
place = "{78, 49}";
type = Stem;
},
{
place = "{573, 41}";
type = Stem;
}
);
layerId = "77B3CCE3-6B8C-428A-918A-7EE02BACD86D";
paths = (
{
closed = 1;
nodes = (
"510 83 OFFCURVE",
"558 154 OFFCURVE",
"593 262 CURVE SMOOTH",
"621 349 OFFCURVE",
"619 420 OFFCURVE",
"597 468 CURVE",
"600 474 OFFCURVE",
"604 480 OFFCURVE",
"605 485 CURVE",
"640 578 OFFCURVE",
"550 609 OFFCURVE",
"479 608 CURVE SMOOTH",
"350 605 OFFCURVE",
"231 546 OFFCURVE",
"146 392 CURVE",
"66 449 OFFCURVE",
"37 545 OFFCURVE",
"77 597 CURVE SMOOTH",
"110 641 OFFCURVE",
"199 672 OFFCURVE",
"254 562 CURVE SMOOTH",
"258 554 OFFCURVE",
"268 558 OFFCURVE",
"264 566 CURVE SMOOTH",
"196 707 OFFCURVE",
"85 655 OFFCURVE",
"56 617 CURVE SMOOTH",
"5 553 OFFCURVE",
"27 433 OFFCURVE",
"135 371 CURVE",
"103 305 OFFCURVE",
"76 216 OFFCURVE",
"78 138 CURVE SMOOTH",
"83 -86 OFFCURVE",
"328 -81 OFFCURVE",
"459 37 CURVE SMOOTH"
);
},
{
closed = 1;
nodes = (
"326 -54 OFFCURVE",
"131 -85 OFFCURVE",
"127 131 CURVE SMOOTH",
"125 209 OFFCURVE",
"151 297 OFFCURVE",
"176 351 CURVE",
"211 338 OFFCURVE",
"254 330 OFFCURVE",
"303 330 CURVE SMOOTH",
"438 330 OFFCURVE",
"524 385 OFFCURVE",
"569 432 CURVE",
"577 389 OFFCURVE",
"572 331 OFFCURVE",
"552 268 CURVE SMOOTH",
"527 191 OFFCURVE",
"486 122 OFFCURVE",
"439 70 CURVE SMOOTH"
);
},
{
closed = 1;
nodes = (
"102 -87 LINE",
"611 655 LINE",
"583 655 LINE",
"74 -87 LINE"
);
},
{
closed = 1;
nodes = (
"259 342 OFFCURVE",
"218 351 OFFCURVE",
"184 369 CURVE",
"268 536 OFFCURVE",
"380 590 OFFCURVE",
"478 594 CURVE SMOOTH",
"532 596 OFFCURVE",
"619 562 OFFCURVE",
"587 486 CURVE",
"557 531 OFFCURVE",
"494 538 OFFCURVE",
"461 520 CURVE SMOOTH",
"453 516 OFFCURVE",
"452 504 OFFCURVE",
"466 509 CURVE SMOOTH",
"516 528 OFFCURVE",
"551 503 OFFCURVE",
"565 451 CURVE",
"526 403 OFFCURVE",
"442 342 OFFCURVE",
"304 342 CURVE SMOOTH"
);
}
);
width = 595;
},
{
background = {
hints = (
{
horizontal = 1;
place = "{-43, 16}";
type = Stem;
},
{
horizontal = 1;
place = "{330, 12}";
type = Stem;
},
{
horizontal = 1;
place = "{515, 14}";
type = Stem;
},
{
horizontal = 1;
place = "{637, 22}";
type = Stem;
},
{
place = "{30, 30}";
type = Stem;
},
{
place = "{594, 19}";
type = Stem;
},
{
horizontal = 1;
place = "{594, 14}";
type = Stem;
},
{
place = "{78, 49}";
type = Stem;
},
{
place = "{573, 41}";
type = Stem;
}
);
paths = (
{
closed = 1;
nodes = (
"640 578 OFFCURVE",
"550 609 OFFCURVE",
"479 608 CURVE SMOOTH",
"350 605 OFFCURVE",
"231 546 OFFCURVE",
"146 392 CURVE",
"66 449 OFFCURVE",
"37 545 OFFCURVE",
"77 597 CURVE SMOOTH",
"110 641 OFFCURVE",
"199 672 OFFCURVE",
"254 562 CURVE SMOOTH",
"258 554 OFFCURVE",
"268 558 OFFCURVE",
"264 566 CURVE SMOOTH",
"196 707 OFFCURVE",
"85 655 OFFCURVE",
"56 617 CURVE SMOOTH",
"5 553 OFFCURVE",
"27 433 OFFCURVE",
"135 371 CURVE",
"103 305 OFFCURVE",
"76 216 OFFCURVE",
"78 138 CURVE SMOOTH",
"83 -86 OFFCURVE",
"328 -81 OFFCURVE",
"459 37 CURVE SMOOTH",
"510 83 OFFCURVE",
"558 154 OFFCURVE",
"593 262 CURVE SMOOTH",
"621 349 OFFCURVE",
"619 420 OFFCURVE",
"597 468 CURVE",
"600 474 OFFCURVE",
"604 480 OFFCURVE",
"605 485 CURVE"
);
},
{
closed = 1;
nodes = (
"557 531 OFFCURVE",
"494 538 OFFCURVE",
"461 520 CURVE SMOOTH",
"453 516 OFFCURVE",
"452 504 OFFCURVE",
"466 509 CURVE SMOOTH",
"516 528 OFFCURVE",
"551 503 OFFCURVE",
"565 451 CURVE",
"526 403 OFFCURVE",
"442 342 OFFCURVE",
"304 342 CURVE SMOOTH",
"259 342 OFFCURVE",
"218 351 OFFCURVE",
"184 369 CURVE",
"268 536 OFFCURVE",
"380 590 OFFCURVE",
"478 594 CURVE SMOOTH",
"532 596 OFFCURVE",
"619 562 OFFCURVE",
"587 486 CURVE"
);
},
{
closed = 1;
nodes = (
"577 389 OFFCURVE",
"572 331 OFFCURVE",
"552 268 CURVE SMOOTH",
"527 191 OFFCURVE",
"486 122 OFFCURVE",
"439 70 CURVE SMOOTH",
"326 -54 OFFCURVE",
"131 -85 OFFCURVE",
"127 131 CURVE SMOOTH",
"125 209 OFFCURVE",
"151 297 OFFCURVE",
"176 351 CURVE",
"211 338 OFFCURVE",
"254 330 OFFCURVE",
"303 330 CURVE SMOOTH",
"438 330 OFFCURVE",
"524 385 OFFCURVE",
"569 432 CURVE"
);
},
{
closed = 1;
nodes = (
"611 655 LINE",
"583 655 LINE",
"74 -87 LINE",
"102 -87 LINE"
);
}
);
};
components = (
{
name = O;
},
{
name = slash;
transform = "{0.99632, 0, 0, 1.15765, 79, 7}";
}
);
layerId = "2C4661F8-41E7-4C5B-84DD-C81E3350E201";
width = 595;
}
);
note = Oslash;
unicode = 00D8;
},
{
color = 3;
glyphname = OE;
lastChange = "2021-09-06 07:47:45 +0000";
layers = (
{
hints = (
{
horizontal = 1;
place = "{-43, 16}";
type = Stem;
},
{
horizontal = 1;
place = "{283, 16}";
type = Stem;
},
{
horizontal = 1;
place = "{606, 12}";
type = Stem;
},
{
horizontal = 1;
place = "{638, 21}";
target = up;
type = BottomGhost;
},
{
place = "{30, 29}";
type = Stem;
},
{
place = "{79, 49}";
type = Stem;
},
{
place = "{594, 19}";
type = Stem;
},
{
place = "{621, 43}";
type = Stem;
},
{
place = "{721, 12}";
type = Stem;
},
{
place = "{771, 15}";
type = Stem;
},
{
place = "{885, 37}";
type = Stem;
}
);
layerId = "77B3CCE3-6B8C-428A-918A-7EE02BACD86D";
paths = (
{
closed = 1;
nodes = (
"780 -38 OFFCURVE",
"922 53 OFFCURVE",
"922 195 CURVE SMOOTH",
"922 260 OFFCURVE",
"875 299 OFFCURVE",
"822 299 CURVE SMOOTH",
"755 299 OFFCURVE",
"713 255 OFFCURVE",
"723 196 CURVE SMOOTH",
"726 174 OFFCURVE",
"734 188 OFFCURVE",
"734 191 CURVE SMOOTH",
"729 232 OFFCURVE",
"742 283 OFFCURVE",
"814 283 CURVE SMOOTH",
"844 283 OFFCURVE",
"885 255 OFFCURVE",
"885 195 CURVE SMOOTH",
"885 65 OFFCURVE",
"766 -25 OFFCURVE",
"615 -25 CURVE SMOOTH",
"537 -25 OFFCURVE",
"495 9 OFFCURVE",
"480 58 CURVE",
"523 104 OFFCURVE",
"563 169 OFFCURVE",
"593 262 CURVE SMOOTH",
"604 296 OFFCURVE",
"610 328 OFFCURVE",
"612 357 CURVE",
"625 365 OFFCURVE",
"638 371 OFFCURVE",
"651 376 CURVE",
"696 338 OFFCURVE",
"774 343 OFFCURVE",
"785 370 CURVE SMOOTH",
"789 380 OFFCURVE",
"787 404 OFFCURVE",
"737 405 CURVE SMOOTH",
"716 406 OFFCURVE",
"694 402 OFFCURVE",
"672 397 CURVE",
"662 417 OFFCURVE",
"659 447 OFFCURVE",
"675 492 CURVE SMOOTH",
"695 549 OFFCURVE",
"753 608 OFFCURVE",
"816 606 CURVE SMOOTH",
"855 604 OFFCURVE",
"892 580 OFFCURVE",
"874 522 CURVE SMOOTH",
"864 492 OFFCURVE",
"834 471 OFFCURVE",
"816 471 CURVE SMOOTH",
"781 471 OFFCURVE",
"793 497 OFFCURVE",
"801 504 CURVE",
"802 509 OFFCURVE",
"791 513 OFFCURVE",
"785 495 CURVE SMOOTH",
"779 478 OFFCURVE",
"790 461 OFFCURVE",
"813 461 CURVE SMOOTH",
"848 461 OFFCURVE",
"882 481 OFFCURVE",
"895 521 CURVE SMOOTH",
"909 566 OFFCURVE",
"883 618 OFFCURVE",
"813 618 CURVE SMOOTH",
"703 618 OFFCURVE",
"648 557 OFFCURVE",
"629 495 CURVE SMOOTH",
"612 445 OFFCURVE",
"621 411 OFFCURVE",
"640 388 CURVE",
"631 385 OFFCURVE",
"622 382 OFFCURVE",
"613 378 CURVE",
"614 413 OFFCURVE",
"608 443 OFFCURVE",
"597 468 CURVE",
"600 474 OFFCURVE",
"604 480 OFFCURVE",
"605 485 CURVE",
"640 578 OFFCURVE",
"550 609 OFFCURVE",
"479 608 CURVE SMOOTH",
"350 605 OFFCURVE",
"231 546 OFFCURVE",
"146 392 CURVE",
"66 449 OFFCURVE",
"37 545 OFFCURVE",
"77 597 CURVE SMOOTH",
"110 641 OFFCURVE",
"199 672 OFFCURVE",
"254 562 CURVE SMOOTH",
"258 554 OFFCURVE",
"268 558 OFFCURVE",
"264 566 CURVE SMOOTH",
"196 707 OFFCURVE",
"85 655 OFFCURVE",
"56 617 CURVE SMOOTH",
"5 553 OFFCURVE",
"27 433 OFFCURVE",
"135 371 CURVE",
"103 305 OFFCURVE",
"76 216 OFFCURVE",
"78 138 CURVE SMOOTH",
"83 -83 OFFCURVE",
"322 -81 OFFCURVE",
"453 32 CURVE",
"484 -10 OFFCURVE",
"539 -38 OFFCURVE",
"622 -38 CURVE SMOOTH"
);
},
{
closed = 1;
nodes = (
"322 -54 OFFCURVE",
"131 -83 OFFCURVE",
"127 131 CURVE SMOOTH",
"125 209 OFFCURVE",
"151 297 OFFCURVE",
"176 351 CURVE",
"211 338 OFFCURVE",
"254 330 OFFCURVE",
"303 330 CURVE SMOOTH",
"438 330 OFFCURVE",
"524 385 OFFCURVE",
"569 432 CURVE",
"573 410 OFFCURVE",
"574 385 OFFCURVE",
"571 356 CURVE",
"453 286 OFFCURVE",
"401 157 OFFCURVE",
"435 66 CURVE"
);
},
{
closed = 1;
nodes = (
"477 182 OFFCURVE",
"513 261 OFFCURVE",
"564 316 CURVE",
"561 300 OFFCURVE",
"557 284 OFFCURVE",
"552 268 CURVE SMOOTH",
"533 211 OFFCURVE",
"506 158 OFFCURVE",
"474 114 CURVE"
);
},
{
closed = 1;
nodes = (
"259 342 OFFCURVE",
"218 351 OFFCURVE",
"184 369 CURVE",
"268 536 OFFCURVE",
"380 590 OFFCURVE",
"478 594 CURVE SMOOTH",
"532 596 OFFCURVE",
"619 562 OFFCURVE",
"587 486 CURVE",
"557 531 OFFCURVE",
"494 538 OFFCURVE",
"461 520 CURVE SMOOTH",
"453 516 OFFCURVE",
"452 504 OFFCURVE",
"466 509 CURVE SMOOTH",
"516 528 OFFCURVE",
"551 503 OFFCURVE",
"565 451 CURVE",
"526 403 OFFCURVE",
"442 342 OFFCURVE",
"304 342 CURVE SMOOTH"
);
},
{
closed = 1;
nodes = (
"717 361 OFFCURVE",
"694 366 OFFCURVE",
"678 386 CURVE",
"698 392 OFFCURVE",
"718 394 OFFCURVE",
"735 394 CURVE SMOOTH",
"794 394 OFFCURVE",
"773 354 OFFCURVE",
"722 360 CURVE SMOOTH"
);
}
);
width = 936;
},
{
hints = (
{
horizontal = 1;
place = "{-43, 26}";
type = Stem;
},
{
horizontal = 1;
place = "{278, 26}";
type = Stem;
},
{
horizontal = 1;
place = "{344, 65}";
type = Stem;
},
{
horizontal = 1;
place = "{474, -20}";
target = down;
type = TopGhost;
},
{
horizontal = 1;
place = "{597, 22}";
type = Stem;
},
{
horizontal = 1;
place = "{628, 31}";
type = Stem;
},
{
place = "{25, 39}";
type = Stem;
},
{
place = "{74, 59}";
type = Stem;
},
{
place = "{616, 53}";
type = Stem;
},
{
place = "{780, 19}";
type = Stem;
},
{
place = "{880, 47}";
type = Stem;
}
);
layerId = "2C4661F8-41E7-4C5B-84DD-C81E3350E201";
paths = (
{
closed = 1;
nodes = (
"927 263 OFFCURVE",
"877 304 OFFCURVE",
"822 304 CURVE SMOOTH",
"752 304 OFFCURVE",
"707 259 OFFCURVE",
"718 197 CURVE SMOOTH",
"720 181 OFFCURVE",
"728 180 OFFCURVE",
"732 181 CURVE",
"755 191 OFFCURVE",
"712 278 OFFCURVE",
"814 278 CURVE SMOOTH",
"842 278 OFFCURVE",
"880 253 OFFCURVE",
"880 197 CURVE SMOOTH",
"880 72 OFFCURVE",
"764 -16 OFFCURVE",
"615 -16 CURVE SMOOTH",
"540 -16 OFFCURVE",
"501 16 OFFCURVE",
"486 60 CURVE",
"529 106 OFFCURVE",
"568 171 OFFCURVE",
"598 261 CURVE SMOOTH",
"608 294 OFFCURVE",
"615 325 OFFCURVE",
"617 353 CURVE",
"628 360 OFFCURVE",
"639 365 OFFCURVE",
"650 369 CURVE",
"695 334 OFFCURVE",
"776 336 OFFCURVE",
"789 367 CURVE SMOOTH",
"795 382 OFFCURVE",
"789 407 OFFCURVE",
"737 409 CURVE SMOOTH",
"716 409 OFFCURVE",
"695 406 OFFCURVE",
"674 401 CURVE",
"666 420 OFFCURVE",
"665 447 OFFCURVE",
"679 488 CURVE SMOOTH",
"699 543 OFFCURVE",
"755 599 OFFCURVE",
"815 597 CURVE SMOOTH",
"852 595 OFFCURVE",
"886 574 OFFCURVE",
"869 520 CURVE SMOOTH",
"860 493 OFFCURVE",
"831 473 OFFCURVE",
"816 474 CURVE SMOOTH",
"790 474 OFFCURVE",
"798 493 OFFCURVE",
"805 499 CURVE",
"808 507 OFFCURVE",
"800 511 OFFCURVE",
"795 510 CURVE SMOOTH",
"774 507 OFFCURVE",
"767 454 OFFCURVE",
"813 454 CURVE SMOOTH",
"849 454 OFFCURVE",
"886 475 OFFCURVE",
"899 517 CURVE SMOOTH",
"915 564 OFFCURVE",
"886 619 OFFCURVE",
"813 619 CURVE SMOOTH",
"701 619 OFFCURVE",
"644 557 OFFCURVE",
"624 494 CURVE SMOOTH",
"609 447 OFFCURVE",
"614 413 OFFCURVE",
"631 389 CURVE",
"627 388 OFFCURVE",
"623 386 OFFCURVE",
"618 384 CURVE",
"618 415 OFFCURVE",
"612 442 OFFCURVE",
"602 465 CURVE",
"663 568 OFFCURVE",
"558 610 OFFCURVE",
"479 608 CURVE SMOOTH",
"350 606 OFFCURVE",
"230 548 OFFCURVE",
"144 398 CURVE",
"69 454 OFFCURVE",
"44 543 OFFCURVE",
"81 590 CURVE SMOOTH",
"112 631 OFFCURVE",
"197 661 OFFCURVE",
"250 556 CURVE SMOOTH",
"256 543 OFFCURVE",
"276 551 OFFCURVE",
"269 565 CURVE SMOOTH",
"198 708 OFFCURVE",
"83 655 OFFCURVE",
"52 616 CURVE SMOOTH",
"-1 550 OFFCURVE",
"22 431 OFFCURVE",
"128 368 CURVE",
"97 303 OFFCURVE",
"71 217 OFFCURVE",
"73 140 CURVE SMOOTH",
"78 -83 OFFCURVE",
"320 -80 OFFCURVE",
"453 29 CURVE",
"485 -12 OFFCURVE",
"540 -38 OFFCURVE",
"622 -38 CURVE SMOOTH",
"781 -38 OFFCURVE",
"927 53 OFFCURVE",
"927 197 CURVE SMOOTH"
);
},
{
closed = 1;
nodes = (
"762 370 OFFCURVE",
"747 361 OFFCURVE",
"722 364 CURVE SMOOTH",
"718 365 OFFCURVE",
"701 369 OFFCURVE",
"687 382 CURVE",
"704 386 OFFCURVE",
"720 388 OFFCURVE",
"735 388 CURVE SMOOTH",
"759 388 OFFCURVE",
"769 383 OFFCURVE",
"765 376 CURVE SMOOTH"
);
},
{
closed = 1;
nodes = (
"553 534 OFFCURVE",
"492 539 OFFCURVE",
"459 522 CURVE SMOOTH",
"444 514 OFFCURVE",
"443 492 OFFCURVE",
"467 501 CURVE SMOOTH",
"514 519 OFFCURVE",
"546 498 OFFCURVE",
"560 450 CURVE",
"521 404 OFFCURVE",
"438 346 OFFCURVE",
"304 346 CURVE SMOOTH",
"262 346 OFFCURVE",
"223 355 OFFCURVE",
"191 370 CURVE",
"274 530 OFFCURVE",
"383 582 OFFCURVE",
"478 585 CURVE SMOOTH",
"530 587 OFFCURVE",
"605 556 OFFCURVE",
"586 494 CURVE"
);
},
{
closed = 1;
nodes = (
"540 240 OFFCURVE",
"514 183 OFFCURVE",
"480 134 CURVE",
"487 190 OFFCURVE",
"515 251 OFFCURVE",
"555 298 CURVE"
);
},
{
closed = 1;
nodes = (
"449 289 OFFCURVE",
"396 163 OFFCURVE",
"429 71 CURVE",
"315 -47 OFFCURVE",
"136 -67 OFFCURVE",
"132 134 CURVE SMOOTH",
"130 207 OFFCURVE",
"154 291 OFFCURVE",
"179 345 CURVE",
"214 332 OFFCURVE",
"256 325 OFFCURVE",
"303 325 CURVE SMOOTH",
"432 325 OFFCURVE",
"518 374 OFFCURVE",
"566 420 CURVE",
"568 402 OFFCURVE",
"568 381 OFFCURVE",
"566 359 CURVE"
);
}
);
width = 936;
}
);
note = OE;
unicode = 0152;
},
{
color = 3;
glyphname = P;
lastChange = "2021-09-06 07:47:45 +0000";
layers = (
{
hints = (
{
horizontal = 1;
place = "{-32, 12}";
type = Stem;
},
{
horizontal = 1;
place = "{40, 11}";
type = Stem;
},
{
horizontal = 1;
place = "{238, 12}";
type = Stem;
},
{
horizontal = 1;
place = "{499, 10}";
type = Stem;
},
{
horizontal = 1;
place = "{624, 12}";
type = Stem;
},
{
horizontal = 1;
place = "{647, 10}";
type = Stem;
},
{
place = "{6, 17}";
type = Stem;
},
{
place = "{56, 32}";
type = Stem;
},
{
place = "{344, 18}";
type = Stem;
},
{
place = "{689, 43}";
type = Stem;
}
);
layerId = "77B3CCE3-6B8C-428A-918A-7EE02BACD86D";
paths = (
{
closed = 1;
nodes = (
"70 -42 OFFCURVE",
"92 -42 OFFCURVE",
"117 -33 CURVE SMOOTH",
"145 -23 OFFCURVE",
"169 -12 OFFCURVE",
"192 1 CURVE",
"255 -23 OFFCURVE",
"333 -45 OFFCURVE",
"434 -24 CURVE SMOOTH",
"471 -17 OFFCURVE",
"438 -11 OFFCURVE",
"436 -12 CURVE",
"361 -33 OFFCURVE",
"280 -11 OFFCURVE",
"209 12 CURVE",
"298 70 OFFCURVE",
"349 155 OFFCURVE",
"389 235 CURVE",
"392 234 OFFCURVE",
"397 233 OFFCURVE",
"404 232 CURVE SMOOTH",
"520 213 OFFCURVE",
"688 307 OFFCURVE",
"724 415 CURVE SMOOTH",
"754 505 OFFCURVE",
"695 572 OFFCURVE",
"617 608 CURVE",
"672 657 OFFCURVE",
"704 646 OFFCURVE",
"723 647 CURVE SMOOTH",
"740 648 OFFCURVE",
"743 655 OFFCURVE",
"722 655 CURVE SMOOTH",
"718 655 OFFCURVE",
"674 672 OFFCURVE",
"599 615 CURVE",
"567 627 OFFCURVE",
"532 635 OFFCURVE",
"499 636 CURVE SMOOTH",
"372 642 OFFCURVE",
"176 610 OFFCURVE",
"92 469 CURVE SMOOTH",
"24 356 OFFCURVE",
"56 240 OFFCURVE",
"149 238 CURVE SMOOTH",
"220 237 OFFCURVE",
"302 277 OFFCURVE",
"344 363 CURVE SMOOTH",
"381 440 OFFCURVE",
"359 498 OFFCURVE",
"309 507 CURVE SMOOTH",
"259 516 OFFCURVE",
"203 485 OFFCURVE",
"193 431 CURVE SMOOTH",
"189 408 OFFCURVE",
"204 389 OFFCURVE",
"221 389 CURVE SMOOTH",
"229 389 OFFCURVE",
"236 402 OFFCURVE",
"234 402 CURVE",
"231 403 OFFCURVE",
"227 398 OFFCURVE",
"221 398 CURVE SMOOTH",
"210 399 OFFCURVE",
"201 416 OFFCURVE",
"204 429 CURVE SMOOTH",
"217 487 OFFCURVE",
"272 503 OFFCURVE",
"302 497 CURVE SMOOTH",
"343 488 OFFCURVE",
"363 433 OFFCURVE",
"322 357 CURVE SMOOTH",
"280 280 OFFCURVE",
"193 243 OFFCURVE",
"155 251 CURVE SMOOTH",
"-2 283 OFFCURVE",
"116 637 OFFCURVE",
"497 624 CURVE SMOOTH",
"528 623 OFFCURVE",
"559 616 OFFCURVE",
"586 604 CURVE",
"533 560 OFFCURVE",
"466 479 OFFCURVE",
"388 334 CURVE SMOOTH",
"336 237 OFFCURVE",
"268 94 OFFCURVE",
"186 20 CURVE",
"127 40 OFFCURVE",
"77 58 OFFCURVE",
"45 48 CURVE SMOOTH",
"-5 33 OFFCURVE",
"-11 -32 OFFCURVE",
"52 -40 CURVE SMOOTH"
);
},
{
closed = 1;
nodes = (
"6 -16 OFFCURVE",
"23 33 OFFCURVE",
"48 38 CURVE SMOOTH",
"83 45 OFFCURVE",
"123 28 OFFCURVE",
"172 9 CURVE",
"135 -20 OFFCURVE",
"96 -35 OFFCURVE",
"54 -26 CURVE SMOOTH"
);
},
{
closed = 1;
nodes = (
"411 280 OFFCURVE",
"428 318 OFFCURVE",
"445 351 CURVE SMOOTH",
"512 481 OFFCURVE",
"563 554 OFFCURVE",
"604 595 CURVE",
"666 561 OFFCURVE",
"705 497 OFFCURVE",
"683 418 CURVE SMOOTH",
"650 300 OFFCURVE",
"487 224 OFFCURVE",
"392 242 CURVE"
);
}
);
width = 605;
},
{
hints = (
{
horizontal = 1;
place = "{-43, 17}";
type = Stem;
},
{
horizontal = 1;
place = "{37, 29}";
type = Stem;
},
{
horizontal = 1;
place = "{224, 21}";
type = Stem;
},
{
horizontal = 1;
place = "{623, 15}";
type = Stem;
},
{
horizontal = 1;
place = "{638, 18}";
type = Stem;
},
{
place = "{2, 20}";
type = Stem;
},
{
place = "{51, 45}";
type = Stem;
},
{
place = "{340, 31}";
type = Stem;
},
{
place = "{710, 57}";
type = Stem;
}
);
layerId = "2C4661F8-41E7-4C5B-84DD-C81E3350E201";
paths = (
{
closed = 1;
nodes = (
"766 634 OFFCURVE",
"764 651 OFFCURVE",
"739 655 CURVE SMOOTH",
"694 662 OFFCURVE",
"633 642 OFFCURVE",
"598 616 CURVE",
"439 673 OFFCURVE",
"177 616 OFFCURVE",
"87 469 CURVE SMOOTH",
"19 358 OFFCURVE",
"49 236 OFFCURVE",
"149 234 CURVE SMOOTH",
"349 230 OFFCURVE",
"442 485 OFFCURVE",
"309 509 CURVE SMOOTH",
"257 518 OFFCURVE",
"198 487 OFFCURVE",
"188 430 CURVE SMOOTH",
"183 405 OFFCURVE",
"200 386 OFFCURVE",
"221 386 CURVE SMOOTH",
"236 386 OFFCURVE",
"247 398 OFFCURVE",
"234 401 CURVE",
"232 401 OFFCURVE",
"200 391 OFFCURVE",
"208 424 CURVE SMOOTH",
"220 478 OFFCURVE",
"276 502 OFFCURVE",
"304 496 CURVE SMOOTH",
"339 489 OFFCURVE",
"358 433 OFFCURVE",
"317 359 CURVE SMOOTH",
"276 284 OFFCURVE",
"186 242 OFFCURVE",
"151 249 CURVE SMOOTH",
"78 264 OFFCURVE",
"81 360 OFFCURVE",
"138 450 CURVE SMOOTH",
"222 581 OFFCURVE",
"436 662 OFFCURVE",
"585 604 CURVE",
"532 559 OFFCURVE",
"458 474 OFFCURVE",
"383 336 CURVE SMOOTH",
"331 240 OFFCURVE",
"273 108 OFFCURVE",
"192 34 CURVE",
"157 46 OFFCURVE",
"91 76 OFFCURVE",
"45 62 CURVE SMOOTH",
"-8 46 OFFCURVE",
"-19 -24 OFFCURVE",
"51 -40 CURVE SMOOTH",
"100 -51 OFFCURVE",
"162 -26 OFFCURVE",
"210 0 CURVE",
"273 -24 OFFCURVE",
"354 -45 OFFCURVE",
"455 -25 CURVE SMOOTH",
"473 -21 OFFCURVE",
"464 -6 OFFCURVE",
"453 -9 CURVE SMOOTH",
"383 -26 OFFCURVE",
"314 1 OFFCURVE",
"245 22 CURVE",
"329 79 OFFCURVE",
"370 155 OFFCURVE",
"409 230 CURVE",
"637 181 OFFCURVE",
"941 460 OFFCURVE",
"643 605 CURVE",
"681 637 OFFCURVE",
"708 642 OFFCURVE",
"740 637 CURVE SMOOTH"
);
},
{
closed = 1;
nodes = (
"835 475 OFFCURVE",
"600 222 OFFCURVE",
"417 247 CURVE",
"434 282 OFFCURVE",
"450 317 OFFCURVE",
"467 348 CURVE SMOOTH",
"532 473 OFFCURVE",
"591 550 OFFCURVE",
"631 590 CURVE"
);
},
{
closed = 1;
nodes = (
"127 -13 OFFCURVE",
"96 -30 OFFCURVE",
"54 -24 CURVE SMOOTH",
"9 -18 OFFCURVE",
"16 35 OFFCURVE",
"49 37 CURVE SMOOTH",
"84 40 OFFCURVE",
"129 24 OFFCURVE",
"161 12 CURVE"
);
}
);
width = 636;
}
);
note = P;
unicode = 0050;
},
{
color = 3;
glyphname = Thorn;
lastChange = "2021-09-06 07:47:45 +0000";
layers = (
{
layerId = "77B3CCE3-6B8C-428A-918A-7EE02BACD86D";
paths = (
{
closed = 1;
nodes = (
"78 106 OFFCURVE",
"198 430 OFFCURVE",
"250 566 CURVE",
"285 586 OFFCURVE",
"372 587 OFFCURVE",
"399 585 CURVE SMOOTH",
"571 565 OFFCURVE",
"575 407 OFFCURVE",
"476 301 CURVE SMOOTH",
"408 230 OFFCURVE",
"284 196 OFFCURVE",
"187 217 CURVE SMOOTH",
"167 221 OFFCURVE",
"129 198 OFFCURVE",
"171 192 CURVE SMOOTH",
"223 185 OFFCURVE",
"298 195 OFFCURVE",
"368 221 CURVE SMOOTH",
"414 240 OFFCURVE",
"462 266 OFFCURVE",
"491 289 CURVE SMOOTH",
"551 336 OFFCURVE",
"581 393 OFFCURVE",
"581 450 CURVE SMOOTH",
"581 499 OFFCURVE",
"557 543 OFFCURVE",
"509 571 CURVE SMOOTH",
"469 594 OFFCURVE",
"378 600 OFFCURVE",
"299 594 CURVE SMOOTH",
"260 592 LINE",
"264 603 LINE",
"322 754 LINE SMOOTH",
"323 757 OFFCURVE",
"329 767 OFFCURVE",
"319 763 CURVE SMOOTH",
"300 756 OFFCURVE",
"214 757 OFFCURVE",
"187 757 CURVE SMOOTH",
"181 757 OFFCURVE",
"180 753 OFFCURVE",
"187 753 CURVE SMOOTH",
"204 753 OFFCURVE",
"260 753 OFFCURVE",
"282 751 CURVE",
"271 711 OFFCURVE",
"257 659 OFFCURVE",
"237 606 CURVE SMOOTH",
"183 450 OFFCURVE",
"71 146 OFFCURVE",
"6 14 CURVE SMOOTH",
"0 3 OFFCURVE",
"-8 -10 OFFCURVE",
"-1 -28 CURVE SMOOTH",
"2 -34 OFFCURVE",
"26 -66 OFFCURVE",
"33 -42 CURVE SMOOTH"
);
}
);
width = 600;
},
{
layerId = "2C4661F8-41E7-4C5B-84DD-C81E3350E201";
paths = (
{
closed = 1;
nodes = (
"624 497 OFFCURVE",
"591 542 OFFCURVE",
"536 571 CURVE SMOOTH",
"491 594 OFFCURVE",
"389 599 OFFCURVE",
"299 594 CURVE SMOOTH",
"260 592 LINE",
"264 603 LINE",
"322 754 LINE SMOOTH",
"323 757 OFFCURVE",
"329 767 OFFCURVE",
"319 763 CURVE SMOOTH",
"300 756 OFFCURVE",
"214 757 OFFCURVE",
"187 757 CURVE SMOOTH",
"181 757 OFFCURVE",
"177 744 OFFCURVE",
"184 744 CURVE SMOOTH",
"201 744 OFFCURVE",
"237 744 OFFCURVE",
"259 742 CURVE",
"248 702 OFFCURVE",
"234 659 OFFCURVE",
"214 606 CURVE SMOOTH",
"160 450 OFFCURVE",
"48 146 OFFCURVE",
"-17 14 CURVE SMOOTH",
"-23 3 OFFCURVE",
"-31 -10 OFFCURVE",
"-1 -28 CURVE SMOOTH",
"5 -32 OFFCURVE",
"26 -66 OFFCURVE",
"33 -42 CURVE SMOOTH",
"78 106 OFFCURVE",
"198 418 OFFCURVE",
"250 554 CURVE",
"285 574 OFFCURVE",
"372 575 OFFCURVE",
"399 573 CURVE SMOOTH",
"640 545 OFFCURVE",
"587 280 OFFCURVE",
"315 219 CURVE SMOOTH",
"271 209 OFFCURVE",
"227 208 OFFCURVE",
"187 217 CURVE SMOOTH",
"167 221 OFFCURVE",
"129 198 OFFCURVE",
"171 192 CURVE SMOOTH",
"357 167 OFFCURVE",
"600 284 OFFCURVE",
"618 447 CURVE SMOOTH"
);
}
);
width = 600;
}
);
unicode = 00DE;
},
{
color = 3;
glyphname = Q;
lastChange = "2021-09-06 07:47:45 +0000";
layers = (
{
hints = (
{
horizontal = 1;
place = "{-170, 18}";
type = Stem;
},
{
horizontal = 1;
place = "{-54, 19}";
type = Stem;
},
{
horizontal = 1;
place = "{610, 12}";
type = Stem;
},
{
place = "{3, 20}";
type = Stem;
},
{
place = "{50, 37}";
type = Stem;
},
{
place = "{582, 32}";
type = Stem;
}
);
layerId = "77B3CCE3-6B8C-428A-918A-7EE02BACD86D";
paths = (
{
closed = 1;
nodes = (
"753 -178 OFFCURVE",
"847 -149 OFFCURVE",
"869 -74 CURVE SMOOTH",
"872 -63 OFFCURVE",
"857 -62 OFFCURVE",
"855 -69 CURVE SMOOTH",
"828 -163 OFFCURVE",
"670 -159 OFFCURVE",
"604 -143 CURVE SMOOTH",
"538 -126 OFFCURVE",
"409 -50 OFFCURVE",
"346 3 CURVE",
"622 156 OFFCURVE",
"752 622 OFFCURVE",
"399 622 CURVE SMOOTH",
"52 622 OFFCURVE",
"-52 112 OFFCURVE",
"156 8 CURVE SMOOTH",
"170 1 OFFCURVE",
"180 13 OFFCURVE",
"172 17 CURVE SMOOTH",
"-23 114 OFFCURVE",
"141 610 OFFCURVE",
"403 610 CURVE SMOOTH",
"730 610 OFFCURVE",
"551 171 OFFCURVE",
"326 22 CURVE",
"280 65 OFFCURVE",
"201 152 OFFCURVE",
"132 161 CURVE SMOOTH",
"20 176 OFFCURVE",
"-83 -8 OFFCURVE",
"114 -49 CURVE SMOOTH",
"169 -60 OFFCURVE",
"250 -53 OFFCURVE",
"315 -16 CURVE",
"380 -73 OFFCURVE",
"502 -157 OFFCURVE",
"627 -168 CURVE SMOOTH"
);
},
{
closed = 1;
nodes = (
"-30 -21 OFFCURVE",
"6 191 OFFCURVE",
"148 116 CURVE SMOOTH",
"191 93 OFFCURVE",
"245 46 OFFCURVE",
"297 1 CURVE",
"252 -33 OFFCURVE",
"176 -37 OFFCURVE",
"121 -33 CURVE SMOOTH"
);
}
);
width = 567;
},
{
hints = (
{
horizontal = 1;
place = "{-55, 19}";
type = Stem;
},
{
horizontal = 1;
place = "{128, 39}";
type = Stem;
},
{
horizontal = 1;
place = "{606, 16}";
type = Stem;
},
{
place = "{-2, 31}";
type = Stem;
},
{
place = "{36, 47}";
type = Stem;
},
{
place = "{571, 65}";
type = Stem;
}
);
layerId = "2C4661F8-41E7-4C5B-84DD-C81E3350E201";
paths = (
{
closed = 1;
nodes = (
"878 -54 OFFCURVE",
"864 -51 OFFCURVE",
"860 -64 CURVE SMOOTH",
"834 -152 OFFCURVE",
"683 -141 OFFCURVE",
"616 -124 CURVE SMOOTH",
"553 -108 OFFCURVE",
"430 -37 OFFCURVE",
"366 14 CURVE",
"502 92 OFFCURVE",
"609 232 OFFCURVE",
"632 365 CURVE SMOOTH",
"655 501 OFFCURVE",
"580 622 OFFCURVE",
"399 622 CURVE SMOOTH",
"26 622 OFFCURVE",
"-66 115 OFFCURVE",
"154 6 CURVE SMOOTH",
"165 1 OFFCURVE",
"176 12 OFFCURVE",
"165 17 CURVE SMOOTH",
"-22 109 OFFCURVE",
"137 606 OFFCURVE",
"397 606 CURVE SMOOTH",
"651 606 OFFCURVE",
"573 342 OFFCURVE",
"497 214 CURVE SMOOTH",
"454 140 OFFCURVE",
"402 83 OFFCURVE",
"338 40 CURVE",
"276 98 OFFCURVE",
"160 201 OFFCURVE",
"68 156 CURVE SMOOTH",
"37 140 OFFCURVE",
"12 113 OFFCURVE",
"2 80 CURVE SMOOTH",
"-14 28 OFFCURVE",
"13 -30 OFFCURVE",
"113 -50 CURVE SMOOTH",
"168 -62 OFFCURVE",
"248 -55 OFFCURVE",
"314 -19 CURVE",
"380 -75 OFFCURVE",
"501 -157 OFFCURVE",
"627 -168 CURVE SMOOTH",
"752 -178 OFFCURVE",
"851 -150 OFFCURVE",
"874 -71 CURVE SMOOTH"
);
},
{
closed = 1;
nodes = (
"245 -25 OFFCURVE",
"176 -40 OFFCURVE",
"122 -36 CURVE SMOOTH",
"-21 -25 OFFCURVE",
"11 184 OFFCURVE",
"145 113 CURVE SMOOTH",
"187 91 OFFCURVE",
"239 48 OFFCURVE",
"289 4 CURVE"
);
}
);
width = 567;
}
);
note = Q;
unicode = 0051;
},
{
color = 3;
glyphname = R;
lastChange = "2021-09-06 07:47:45 +0000";
layers = (
{
hints = (
{
horizontal = 1;
place = "{-70, 16}";
type = Stem;
},
{
horizontal = 1;
place = "{-5, 15}";
type = Stem;
},
{
horizontal = 1;
place = "{182, 13}";
type = Stem;
},
{
horizontal = 1;
place = "{440, 10}";
type = Stem;
},
{
horizontal = 1;
place = "{619, 10}";
type = Stem;
},
{
place = "{-15, 13}";
type = Stem;
},
{
place = "{335, 17}";
type = Stem;
},
{
place = "{471, 42}";
type = Stem;
},
{
place = "{636, 38}";
type = Stem;
}
);
layerId = "77B3CCE3-6B8C-428A-918A-7EE02BACD86D";
paths = (
{
closed = 1;
nodes = (
"223 -70 OFFCURVE",
"337 138 OFFCURVE",
"400 271 CURVE",
"434 261 OFFCURVE",
"471 210 OFFCURVE",
"471 107 CURVE SMOOTH",
"471 85 OFFCURVE",
"472 45 OFFCURVE",
"487 22 CURVE SMOOTH",
"514 -22 OFFCURVE",
"579 -3 OFFCURVE",
"613 20 CURVE SMOOTH",
"673 60 OFFCURVE",
"736 135 OFFCURVE",
"774 201 CURVE SMOOTH",
"776 204 OFFCURVE",
"763 212 OFFCURVE",
"762 207 CURVE",
"723 138 OFFCURVE",
"662 68 OFFCURVE",
"606 32 CURVE SMOOTH",
"570 9 OFFCURVE",
"531 -8 OFFCURVE",
"519 46 CURVE SMOOTH",
"514 70 OFFCURVE",
"514 100 OFFCURVE",
"513 117 CURVE SMOOTH",
"509 181 OFFCURVE",
"498 268 OFFCURVE",
"427 272 CURVE",
"481 271 OFFCURVE",
"640 291 OFFCURVE",
"669 414 CURVE SMOOTH",
"688 494 OFFCURVE",
"658 549 OFFCURVE",
"598 580 CURVE",
"652 629 OFFCURVE",
"684 618 OFFCURVE",
"704 619 CURVE SMOOTH",
"721 620 OFFCURVE",
"723 627 OFFCURVE",
"703 627 CURVE SMOOTH",
"699 627 OFFCURVE",
"655 643 OFFCURVE",
"582 588 CURVE",
"550 598 OFFCURVE",
"513 602 OFFCURVE",
"475 604 CURVE SMOOTH",
"348 609 OFFCURVE",
"162 548 OFFCURVE",
"78 407 CURVE SMOOTH",
"0 278 OFFCURVE",
"45 183 OFFCURVE",
"137 182 CURVE SMOOTH",
"209 181 OFFCURVE",
"289 220 OFFCURVE",
"332 307 CURVE SMOOTH",
"370 383 OFFCURVE",
"356 450 OFFCURVE",
"297 450 CURVE SMOOTH",
"246 450 OFFCURVE",
"200 412 OFFCURVE",
"187 370 CURVE SMOOTH",
"180 348 OFFCURVE",
"192 332 OFFCURVE",
"210 332 CURVE SMOOTH",
"229 332 OFFCURVE",
"229 344 OFFCURVE",
"223 344 CURVE",
"214 339 OFFCURVE",
"186 336 OFFCURVE",
"197 369 CURVE SMOOTH",
"211 413 OFFCURVE",
"261 440 OFFCURVE",
"292 440 CURVE SMOOTH",
"346 440 OFFCURVE",
"349 376 OFFCURVE",
"307 300 CURVE SMOOTH",
"265 223 OFFCURVE",
"181 188 OFFCURVE",
"144 196 CURVE SMOOTH",
"-13 229 OFFCURVE",
"121 600 OFFCURVE",
"473 592 CURVE SMOOTH",
"509 591 OFFCURVE",
"541 586 OFFCURVE",
"567 576 CURVE",
"514 532 OFFCURVE",
"447 451 OFFCURVE",
"369 305 CURVE SMOOTH",
"311 196 OFFCURVE",
"195 -54 OFFCURVE",
"47 -54 CURVE SMOOTH",
"-26 -54 OFFCURVE",
"-8 30 OFFCURVE",
"42 41 CURVE SMOOTH",
"51 43 OFFCURVE",
"50 54 OFFCURVE",
"39 51 CURVE SMOOTH",
"-38 26 OFFCURVE",
"-30 -70 OFFCURVE",
"50 -70 CURVE SMOOTH"
);
},
{
closed = 1;
nodes = (
"410 294 OFFCURVE",
"418 309 OFFCURVE",
"425 323 CURVE SMOOTH",
"491 453 OFFCURVE",
"543 526 OFFCURVE",
"584 567 CURVE",
"630 536 OFFCURVE",
"651 482 OFFCURVE",
"626 403 CURVE SMOOTH",
"596 305 OFFCURVE",
"470 280 OFFCURVE",
"403 279 CURVE"
);
}
);
width = 696;
},
{
hints = (
{
horizontal = 1;
place = "{-70, 15}";
type = Stem;
},
{
horizontal = 1;
place = "{-7, 26}";
type = Stem;
},
{
horizontal = 1;
place = "{327, 14}";
type = Stem;
},
{
horizontal = 1;
place = "{442, 11}";
type = Stem;
},
{
place = "{-20, 22}";
type = Stem;
},
{
place = "{180, 22}";
type = Stem;
},
{
place = "{330, 30}";
type = Stem;
},
{
place = "{485, 74}";
type = Stem;
},
{
place = "{651, 67}";
type = Stem;
}
);
layerId = "2C4661F8-41E7-4C5B-84DD-C81E3350E201";
paths = (
{
closed = 1;
nodes = (
"820 207 OFFCURVE",
"807 219 OFFCURVE",
"797 209 CURVE",
"758 141 OFFCURVE",
"701 75 OFFCURVE",
"646 41 CURVE SMOOTH",
"608 17 OFFCURVE",
"574 4 OFFCURVE",
"564 51 CURVE SMOOTH",
"561 62 OFFCURVE",
"560 75 OFFCURVE",
"559 88 CURVE SMOOTH",
"556 142 OFFCURVE",
"536 239 OFFCURVE",
"479 269 CURVE",
"548 275 OFFCURVE",
"688 306 OFFCURVE",
"713 411 CURVE SMOOTH",
"732 489 OFFCURVE",
"684 545 OFFCURVE",
"626 577 CURVE",
"650 597 OFFCURVE",
"669 605 OFFCURVE",
"684 608 CURVE SMOOTH",
"699 611 OFFCURVE",
"710 610 OFFCURVE",
"724 609 CURVE SMOOTH",
"740 608 OFFCURVE",
"737 624 OFFCURVE",
"719 626 CURVE SMOOTH",
"688 630 OFFCURVE",
"633 627 OFFCURVE",
"581 589 CURVE",
"549 599 OFFCURVE",
"512 603 OFFCURVE",
"475 604 CURVE SMOOTH",
"347 610 OFFCURVE",
"159 549 OFFCURVE",
"73 408 CURVE SMOOTH",
"-5 279 OFFCURVE",
"38 180 OFFCURVE",
"136 178 CURVE SMOOTH",
"344 176 OFFCURVE",
"429 453 OFFCURVE",
"297 453 CURVE SMOOTH",
"243 453 OFFCURVE",
"195 414 OFFCURVE",
"182 370 CURVE SMOOTH",
"174 346 OFFCURVE",
"187 326 OFFCURVE",
"210 326 CURVE SMOOTH",
"218 326 OFFCURVE",
"224 328 OFFCURVE",
"228 331 CURVE SMOOTH",
"237 338 OFFCURVE",
"232 347 OFFCURVE",
"223 343 CURVE SMOOTH",
"208 336 OFFCURVE",
"198 346 OFFCURVE",
"203 363 CURVE SMOOTH",
"210 393 OFFCURVE",
"244 441 OFFCURVE",
"292 441 CURVE SMOOTH",
"337 441 OFFCURVE",
"345 379 OFFCURVE",
"302 302 CURVE SMOOTH",
"261 228 OFFCURVE",
"179 195 OFFCURVE",
"145 202 CURVE SMOOTH",
"-6 233 OFFCURVE",
"127 601 OFFCURVE",
"472 593 CURVE SMOOTH",
"504 592 OFFCURVE",
"539 584 OFFCURVE",
"563 576 CURVE",
"510 531 OFFCURVE",
"439 445 OFFCURVE",
"364 307 CURVE SMOOTH",
"304 196 OFFCURVE",
"191 -55 OFFCURVE",
"47 -55 CURVE SMOOTH",
"-19 -55 OFFCURVE",
"-4 35 OFFCURVE",
"41 44 CURVE SMOOTH",
"57 47 OFFCURVE",
"55 64 OFFCURVE",
"37 59 CURVE SMOOTH",
"-42 33 OFFCURVE",
"-39 -70 OFFCURVE",
"49 -70 CURVE SMOOTH",
"225 -70 OFFCURVE",
"359 135 OFFCURVE",
"422 265 CURVE",
"452 254 OFFCURVE",
"486 206 OFFCURVE",
"486 109 CURVE SMOOTH",
"486 88 OFFCURVE",
"487 48 OFFCURVE",
"502 24 CURVE SMOOTH",
"532 -25 OFFCURVE",
"622 -7 OFFCURVE",
"660 21 CURVE SMOOTH",
"718 65 OFFCURVE",
"776 131 OFFCURVE",
"815 197 CURVE SMOOTH"
);
},
{
closed = 1;
nodes = (
"613 313 OFFCURVE",
"499 287 OFFCURVE",
"431 284 CURVE",
"437 296 OFFCURVE",
"443 309 OFFCURVE",
"449 320 CURVE SMOOTH",
"513 445 OFFCURVE",
"564 516 OFFCURVE",
"604 557 CURVE",
"646 527 OFFCURVE",
"664 477 OFFCURVE",
"641 403 CURVE SMOOTH"
);
}
);
width = 735;
}
);
note = R;
unicode = 0052;
},
{
color = 3;
glyphname = S;
lastChange = "2021-09-06 07:47:45 +0000";
layers = (
{
hints = (
{
horizontal = 1;
place = "{-42, 16}";
type = Stem;
},
{
horizontal = 1;
place = "{112, 13}";
type = Stem;
},
{
horizontal = 1;
place = "{379, 18}";
type = Stem;
},
{
horizontal = 1;
place = "{636, 17}";
type = Stem;
},
{
place = "{-8, 31}";
type = Stem;
},
{
place = "{134, 13}";
type = Stem;
},
{
place = "{356, 19}";
type = Stem;
},
{
place = "{535, 11}";
type = Stem;
}
);
layerId = "77B3CCE3-6B8C-428A-918A-7EE02BACD86D";
paths = (
{
closed = 1;
nodes = (
"236 -149 OFFCURVE",
"243 -136 OFFCURVE",
"226 -131 CURVE SMOOTH",
"197 -123 OFFCURVE",
"160 -97 OFFCURVE",
"154 -35 CURVE",
"346 -73 OFFCURVE",
"548 50 OFFCURVE",
"548 256 CURVE SMOOTH",
"548 334 OFFCURVE",
"525 412 OFFCURVE",
"489 504 CURVE",
"506 525 OFFCURVE",
"521 546 OFFCURVE",
"532 569 CURVE SMOOTH",
"554 612 OFFCURVE",
"548 645 OFFCURVE",
"522 651 CURVE SMOOTH",
"467 664 OFFCURVE",
"439 599 OFFCURVE",
"446 556 CURVE SMOOTH",
"450 531 OFFCURVE",
"456 510 OFFCURVE",
"462 490 CURVE",
"423 446 OFFCURVE",
"376 404 OFFCURVE",
"329 355 CURVE",
"190 468 OFFCURVE",
"-8 338 OFFCURVE",
"-8 166 CURVE SMOOTH",
"-8 81 OFFCURVE",
"32 -2 OFFCURVE",
"139 -31 CURVE",
"143 -89 OFFCURVE",
"167 -127 OFFCURVE",
"223 -145 CURVE SMOOTH"
);
},
{
closed = 1;
nodes = (
"47 20 OFFCURVE",
"22 92 OFFCURVE",
"22 164 CURVE SMOOTH",
"22 317 OFFCURVE",
"186 446 OFFCURVE",
"317 342 CURVE",
"265 287 OFFCURVE",
"214 221 OFFCURVE",
"178 137 CURVE",
"144 155 OFFCURVE",
"135 198 OFFCURVE",
"163 223 CURVE SMOOTH",
"172 232 OFFCURVE",
"167 237 OFFCURVE",
"158 231 CURVE SMOOTH",
"122 209 OFFCURVE",
"125 149 OFFCURVE",
"174 124 CURVE",
"157 80 OFFCURVE",
"140 36 OFFCURVE",
"139 -12 CURVE"
);
},
{
closed = 1;
nodes = (
"226 215 OFFCURVE",
"275 279 OFFCURVE",
"325 334 CURVE",
"361 294 OFFCURVE",
"363 231 OFFCURVE",
"338 190 CURVE SMOOTH",
"307 139 OFFCURVE",
"234 113 OFFCURVE",
"190 131 CURVE"
);
},
{
closed = 1;
nodes = (
"153 28 OFFCURVE",
"168 78 OFFCURVE",
"186 119 CURVE",
"245 99 OFFCURVE",
"322 126 OFFCURVE",
"354 180 CURVE SMOOTH",
"385 230 OFFCURVE",
"380 307 OFFCURVE",
"338 347 CURVE",
"383 395 OFFCURVE",
"428 436 OFFCURVE",
"466 477 CURVE",
"501 373 OFFCURVE",
"514 261 OFFCURVE",
"483 167 CURVE SMOOTH",
"442 45 OFFCURVE",
"288 -60 OFFCURVE",
"153 -16 CURVE"
);
},
{
closed = 1;
nodes = (
"475 545 OFFCURVE",
"470 570 OFFCURVE",
"476 592 CURVE SMOOTH",
"489 634 OFFCURVE",
"512 640 OFFCURVE",
"527 633 CURVE SMOOTH",
"538 628 OFFCURVE",
"538 608 OFFCURVE",
"522 576 CURVE SMOOTH",
"512 555 OFFCURVE",
"499 536 OFFCURVE",
"485 517 CURVE"
);
}
);
width = 558;
},
{
hints = (
{
horizontal = 1;
place = "{-43, 16}";
type = Stem;
},
{
horizontal = 1;
place = "{107, 24}";
type = Stem;
},
{
horizontal = 1;
place = "{375, 26}";
type = Stem;
},
{
horizontal = 1;
place = "{653, -20}";
target = down;
type = TopGhost;
},
{
place = "{-13, 57}";
type = Stem;
},
{
place = "{129, 23}";
type = Stem;
},
{
place = "{357, 30}";
type = Stem;
},
{
place = "{440, 39}";
type = Stem;
},
{
place = "{530, 21}";
type = Stem;
}
);
layerId = "2C4661F8-41E7-4C5B-84DD-C81E3350E201";
paths = (
{
closed = 1;
nodes = (
"574 334 OFFCURVE",
"516 451 OFFCURVE",
"495 500 CURVE",
"512 520 OFFCURVE",
"526 541 OFFCURVE",
"537 563 CURVE SMOOTH",
"602 692 OFFCURVE",
"421 676 OFFCURVE",
"442 551 CURVE SMOOTH",
"445 528 OFFCURVE",
"451 507 OFFCURVE",
"457 488 CURVE",
"419 447 OFFCURVE",
"374 407 OFFCURVE",
"329 360 CURVE",
"304 384 OFFCURVE",
"263 401 OFFCURVE",
"211 401 CURVE SMOOTH",
"97 401 OFFCURVE",
"-13 294 OFFCURVE",
"-13 167 CURVE SMOOTH",
"-13 82 OFFCURVE",
"28 -1 OFFCURVE",
"135 -31 CURVE",
"140 -88 OFFCURVE",
"165 -126 OFFCURVE",
"222 -144 CURVE SMOOTH",
"241 -150 OFFCURVE",
"247 -134 OFFCURVE",
"224 -127 CURVE SMOOTH",
"198 -119 OFFCURVE",
"168 -92 OFFCURVE",
"160 -38 CURVE",
"352 -72 OFFCURVE",
"574 51 OFFCURVE",
"574 256 CURVE SMOOTH"
);
},
{
closed = 1;
nodes = (
"509 556 OFFCURVE",
"499 540 OFFCURVE",
"487 524 CURVE",
"474 554 OFFCURVE",
"477 592 OFFCURVE",
"496 618 CURVE SMOOTH",
"519 649 OFFCURVE",
"547 633 OFFCURVE",
"518 574 CURVE SMOOTH"
);
},
{
closed = 1;
nodes = (
"439 52 OFFCURVE",
"289 -59 OFFCURVE",
"158 -19 CURVE",
"159 21 OFFCURVE",
"173 77 OFFCURVE",
"189 115 CURVE",
"349 68 OFFCURVE",
"447 242 OFFCURVE",
"345 346 CURVE",
"387 390 OFFCURVE",
"429 427 OFFCURVE",
"464 465 CURVE",
"497 365 OFFCURVE",
"508 258 OFFCURVE",
"478 169 CURVE SMOOTH"
);
},
{
closed = 1;
nodes = (
"408 241 OFFCURVE",
"295 105 OFFCURVE",
"197 135 CURVE",
"232 213 OFFCURVE",
"285 281 OFFCURVE",
"333 333 CURVE"
);
},
{
closed = 1;
nodes = (
"268 295 OFFCURVE",
"212 225 OFFCURVE",
"177 146 CURVE",
"149 163 OFFCURVE",
"143 199 OFFCURVE",
"167 220 CURVE SMOOTH",
"183 235 OFFCURVE",
"168 243 OFFCURVE",
"156 235 CURVE SMOOTH",
"117 211 OFFCURVE",
"120 151 OFFCURVE",
"168 124 CURVE",
"152 83 OFFCURVE",
"137 32 OFFCURVE",
"135 -12 CURVE",
"62 16 OFFCURVE",
"39 100 OFFCURVE",
"44 168 CURVE SMOOTH",
"52 259 OFFCURVE",
"137 375 OFFCURVE",
"232 375 CURVE SMOOTH",
"260 375 OFFCURVE",
"289 369 OFFCURVE",
"317 348 CURVE"
);
}
);
width = 599;
}
);
note = S;
unicode = 0053;
},
{
color = 3;
glyphname = Germandbls;
lastChange = "2021-09-06 07:47:45 +0000";
layers = (
{
hints = (
{
horizontal = 1;
place = "{-12, 11}";
type = Stem;
},
{
horizontal = 1;
place = "{476, 11}";
type = Stem;
},
{
place = "{89, 28}";
type = Stem;
},
{
place = "{395, 35}";
type = Stem;
}
);
layerId = "77B3CCE3-6B8C-428A-918A-7EE02BACD86D";
paths = (
{
closed = 1;
nodes = (
"60 -113 OFFCURVE",
"178 106 OFFCURVE",
"257 353 CURVE SMOOTH",
"271 396 OFFCURVE",
"320 528 OFFCURVE",
"384 580 CURVE SMOOTH",
"427 615 OFFCURVE",
"492 630 OFFCURVE",
"516 584 CURVE SMOOTH",
"522 572 OFFCURVE",
"525 556 OFFCURVE",
"525 537 CURVE SMOOTH",
"525 478 OFFCURVE",
"465 412 OFFCURVE",
"382 385 CURVE SMOOTH",
"369 381 OFFCURVE",
"358 380 OFFCURVE",
"358 369 CURVE SMOOTH",
"358 360 OFFCURVE",
"368 358 OFFCURVE",
"389 346 CURVE SMOOTH",
"428 324 OFFCURVE",
"474 291 OFFCURVE",
"468 222 CURVE SMOOTH",
"458 100 OFFCURVE",
"320 -6 OFFCURVE",
"220 16 CURVE SMOOTH",
"197 21 OFFCURVE",
"188 34 OFFCURVE",
"191 48 CURVE SMOOTH",
"195 65 OFFCURVE",
"216 86 OFFCURVE",
"249 98 CURVE SMOOTH",
"257 101 OFFCURVE",
"257 107 OFFCURVE",
"252 108 CURVE SMOOTH",
"251 109 OFFCURVE",
"249 109 OFFCURVE",
"246 109 CURVE SMOOTH",
"206 98 OFFCURVE",
"178 75 OFFCURVE",
"173 52 CURVE SMOOTH",
"168 30 OFFCURVE",
"183 10 OFFCURVE",
"229 0 CURVE SMOOTH",
"353 -27 OFFCURVE",
"518 103 OFFCURVE",
"518 232 CURVE SMOOTH",
"517 301 OFFCURVE",
"467 346 OFFCURVE",
"382 371 CURVE",
"494 401 OFFCURVE",
"561 461 OFFCURVE",
"561 537 CURVE SMOOTH",
"561 626 OFFCURVE",
"454 651 OFFCURVE",
"377 593 CURVE SMOOTH",
"313 545 OFFCURVE",
"236 389 OFFCURVE",
"127 157 CURVE SMOOTH",
"65 26 OFFCURVE",
"-4 -97 OFFCURVE",
"-94 -97 CURVE SMOOTH",
"-118 -97 OFFCURVE",
"-130 -85 OFFCURVE",
"-134 -67 CURVE",
"-130 -77 OFFCURVE",
"-120 -82 OFFCURVE",
"-111 -82 CURVE SMOOTH",
"-87 -82 OFFCURVE",
"-75 -66 OFFCURVE",
"-75 -49 CURVE SMOOTH",
"-75 -32 OFFCURVE",
"-88 -13 OFFCURVE",
"-112 -13 CURVE SMOOTH",
"-134 -13 OFFCURVE",
"-153 -42 OFFCURVE",
"-151 -65 CURVE SMOOTH",
"-147 -97 OFFCURVE",
"-130 -113 OFFCURVE",
"-92 -113 CURVE SMOOTH"
);
}
);
width = 575;
},
{
layerId = "2C4661F8-41E7-4C5B-84DD-C81E3350E201";
paths = (
{
closed = 1;
nodes = (
"205 103 OFFCURVE",
"174 79 OFFCURVE",
"168 53 CURVE SMOOTH",
"162 25 OFFCURVE",
"183 5 OFFCURVE",
"228 -5 CURVE SMOOTH",
"356 -33 OFFCURVE",
"523 101 OFFCURVE",
"523 232 CURVE SMOOTH",
"522 300 OFFCURVE",
"475 349 OFFCURVE",
"383 376 CURVE",
"383 366 LINE",
"499 397 OFFCURVE",
"566 459 OFFCURVE",
"566 537 CURVE SMOOTH",
"566 627 OFFCURVE",
"457 660 OFFCURVE",
"374 597 CURVE SMOOTH",
"309 548 OFFCURVE",
"231 391 OFFCURVE",
"122 159 CURVE SMOOTH",
"61 28 OFFCURVE",
"-7 -92 OFFCURVE",
"-94 -92 CURVE SMOOTH",
"-114 -92 OFFCURVE",
"-125 -83 OFFCURVE",
"-129 -66 CURVE",
"-139 -69 LINE",
"-134 -80 OFFCURVE",
"-123 -87 OFFCURVE",
"-111 -87 CURVE SMOOTH",
"-87 -87 OFFCURVE",
"-70 -71 OFFCURVE",
"-70 -49 CURVE SMOOTH",
"-70 -26 OFFCURVE",
"-89 -8 OFFCURVE",
"-112 -8 CURVE SMOOTH",
"-136 -8 OFFCURVE",
"-158 -38 OFFCURVE",
"-156 -66 CURVE SMOOTH",
"-151 -101 OFFCURVE",
"-131 -118 OFFCURVE",
"-92 -118 CURVE SMOOTH",
"41 -118 OFFCURVE",
"164 47 OFFCURVE",
"262 351 CURVE SMOOTH",
"276 394 OFFCURVE",
"336 524 OFFCURVE",
"387 576 CURVE SMOOTH",
"432 621 OFFCURVE",
"492 619 OFFCURVE",
"512 582 CURVE",
"517 570 OFFCURVE",
"520 555 OFFCURVE",
"520 537 CURVE SMOOTH",
"520 479 OFFCURVE",
"460 416 OFFCURVE",
"380 390 CURVE",
"379 389 OFFCURVE",
"377 389 OFFCURVE",
"375 388 CURVE SMOOTH",
"364 385 OFFCURVE",
"353 382 OFFCURVE",
"353 369 CURVE SMOOTH",
"353 361 OFFCURVE",
"358 357 OFFCURVE",
"372 349 CURVE SMOOTH",
"376 347 OFFCURVE",
"381 345 OFFCURVE",
"387 342 CURVE SMOOTH",
"425 320 OFFCURVE",
"469 289 OFFCURVE",
"463 222 CURVE SMOOTH",
"454 108 OFFCURVE",
"322 -1 OFFCURVE",
"221 21 CURVE SMOOTH",
"202 25 OFFCURVE",
"193 35 OFFCURVE",
"196 47 CURVE SMOOTH",
"200 64 OFFCURVE",
"228 91 OFFCURVE",
"257 101 CURVE SMOOTH",
"269 106 OFFCURVE",
"272 121 OFFCURVE",
"245 114 CURVE SMOOTH"
);
}
);
width = 575;
}
);
unicode = 1E9E;
},
{
glyphname = Schwa;
lastChange = "2021-09-06 08:09:52 +0000";
layers = (
{
hints = (
{
horizontal = 1;
place = "{563, -28}";
type = Stem;
},
{
horizontal = 1;
place = "{-25, 21}";
target = up;
type = BottomGhost;
},
{
place = "{491, -70}";
type = Stem;
},
{
place = "{182, -28}";
type = Stem;
}
);
layerId = "77B3CCE3-6B8C-428A-918A-7EE02BACD86D";
paths = (
{
closed = 1;
nodes = (
"399 133 OFFCURVE",
"464 218 OFFCURVE",
"507 317 CURVE SMOOTH",
"574 471 OFFCURVE",
"578 672 OFFCURVE",
"399 662 CURVE SMOOTH",
"281 656 OFFCURVE",
"206 579 OFFCURVE",
"138 477 CURVE",
"122 453 OFFCURVE",
"128 434 OFFCURVE",
"146 459 CURVE",
"226 584 OFFCURVE",
"321 637 OFFCURVE",
"391 637 CURVE SMOOTH",
"522 637 OFFCURVE",
"532 498 OFFCURVE",
"469 341 CURVE",
"370 416 OFFCURVE",
"191 294 OFFCURVE",
"127 167 CURVE SMOOTH",
"17 -52 OFFCURVE",
"204 -49 OFFCURVE",
"333 73 CURVE SMOOTH"
);
},
{
closed = 1;
nodes = (
"225 -13 OFFCURVE",
"43 -59 OFFCURVE",
"150 164 CURVE SMOOTH",
"203 275 OFFCURVE",
"382 396 OFFCURVE",
"460 323 CURVE",
"427 255 OFFCURVE",
"403 218 OFFCURVE",
"333 127 CURVE SMOOTH"
);
}
);
width = 515;
},
{
background = {
paths = (
{
closed = 1;
nodes = (
"399 133 OFFCURVE",
"464 218 OFFCURVE",
"507 317 CURVE SMOOTH",
"574 471 OFFCURVE",
"578 672 OFFCURVE",
"399 662 CURVE SMOOTH",
"281 656 OFFCURVE",
"206 579 OFFCURVE",
"138 477 CURVE",
"122 453 OFFCURVE",
"128 434 OFFCURVE",
"146 459 CURVE",
"226 584 OFFCURVE",
"321 637 OFFCURVE",
"391 637 CURVE SMOOTH",
"522 637 OFFCURVE",
"532 498 OFFCURVE",
"469 341 CURVE",
"370 416 OFFCURVE",
"191 294 OFFCURVE",
"127 167 CURVE SMOOTH",
"17 -52 OFFCURVE",
"204 -49 OFFCURVE",
"333 73 CURVE SMOOTH"
);
},
{
closed = 1;
nodes = (
"225 -13 OFFCURVE",
"43 -59 OFFCURVE",
"150 164 CURVE SMOOTH",
"203 275 OFFCURVE",
"382 396 OFFCURVE",
"460 323 CURVE",
"427 255 OFFCURVE",
"403 218 OFFCURVE",
"333 127 CURVE SMOOTH"
);
}
);
};
hints = (
{
horizontal = 1;
place = "{565.474, -25.146}";
type = Stem;
},
{
horizontal = 1;
place = "{-22.548, 21}";
target = up;
type = BottomGhost;
},
{
place = "{493.276, -67.7}";
type = Stem;
},
{
place = "{184.564, -25.146}";
type = Stem;
}
);
layerId = "2C4661F8-41E7-4C5B-84DD-C81E3350E201";
paths = (
{
closed = 1;
nodes = (
"71 -38 OFFCURVE",
"224 -43 OFFCURVE",
"347 111 CURVE SMOOTH",
"402 180 OFFCURVE",
"452 269 OFFCURVE",
"475 327 CURVE",
"355 373 OFFCURVE",
"220 241 OFFCURVE",
"176 160 CURVE SMOOTH"
);
},
{
closed = 1;
nodes = (
"129 430 OFFCURVE",
"111 444 OFFCURVE",
"125 470 CURVE",
"186 561 OFFCURVE",
"265 656 OFFCURVE",
"369 660 CURVE SMOOTH",
"590 668 OFFCURVE",
"598 454 OFFCURVE",
"542 305 CURVE SMOOTH",
"506 209 OFFCURVE",
"432 126 OFFCURVE",
"362 69 CURVE SMOOTH",
"224 -50 OFFCURVE",
"29 -54 OFFCURVE",
"143 174 CURVE SMOOTH",
"193 274 OFFCURVE",
"344 393 OFFCURVE",
"485 347 CURVE",
"525 483 OFFCURVE",
"529 632 OFFCURVE",
"369 632 CURVE SMOOTH",
"296 632 OFFCURVE",
"204 554 OFFCURVE",
"146 459 CURVE"
);
}
);
width = 521;
}
);
unicode = 018F;
},
{
color = 3;
glyphname = T;
lastChange = "2021-09-06 07:47:45 +0000";
layers = (
{
hints = (
{
horizontal = 1;
place = "{-67, 19}";
type = Stem;
},
{
horizontal = 1;
place = "{57, 15}";
type = Stem;
},
{
horizontal = 1;
place = "{224, 15}";
type = Stem;
},
{
horizontal = 1;
place = "{317, 15}";
type = Stem;
},
{
horizontal = 1;
place = "{452, 15}";
type = Stem;
},
{
horizontal = 1;
place = "{576, 13}";
type = Stem;
},
{
place = "{3, 33}";
type = Stem;
},
{
place = "{65, 21}";
type = Stem;
},
{
place = "{321, 15}";
type = Stem;
},
{
place = "{389, 10}";
type = Stem;
}
);
layerId = "77B3CCE3-6B8C-428A-918A-7EE02BACD86D";
paths = (
{
closed = 1;
nodes = (
"327 -67 OFFCURVE",
"440 32 OFFCURVE",
"509 189 CURVE SMOOTH",
"562 310 OFFCURVE",
"595 475 OFFCURVE",
"709 556 CURVE SMOOTH",
"753 587 OFFCURVE",
"832 580 OFFCURVE",
"835 539 CURVE SMOOTH",
"836 529 OFFCURVE",
"851 532 OFFCURVE",
"850 542 CURVE SMOOTH",
"841 598 OFFCURVE",
"744 600 OFFCURVE",
"700 568 CURVE SMOOTH",
"497 424 OFFCURVE",
"427 -48 OFFCURVE",
"179 -48 CURVE SMOOTH",
"87 -48 OFFCURVE",
"36 35 OFFCURVE",
"36 118 CURVE SMOOTH",
"36 212 OFFCURVE",
"98 317 OFFCURVE",
"197 317 CURVE SMOOTH",
"292 317 OFFCURVE",
"327 249 OFFCURVE",
"321 187 CURVE SMOOTH",
"314 111 OFFCURVE",
"250 74 OFFCURVE",
"209 71 CURVE SMOOTH",
"167 69 OFFCURVE",
"138 101 OFFCURVE",
"144 119 CURVE SMOOTH",
"146 128 OFFCURVE",
"132 133 OFFCURVE",
"129 123 CURVE SMOOTH",
"118 88 OFFCURVE",
"165 54 OFFCURVE",
"210 57 CURVE SMOOTH",
"256 59 OFFCURVE",
"328 101 OFFCURVE",
"336 186 CURVE SMOOTH",
"343 255 OFFCURVE",
"303 332 OFFCURVE",
"197 332 CURVE SMOOTH",
"87 332 OFFCURVE",
"3 219 OFFCURVE",
"3 119 CURVE SMOOTH",
"3 31 OFFCURVE",
"54 -67 OFFCURVE",
"174 -67 CURVE SMOOTH"
);
},
{
closed = 1;
nodes = (
"318 224 OFFCURVE",
"391 258 OFFCURVE",
"399 345 CURVE SMOOTH",
"400 355 OFFCURVE",
"390 355 OFFCURVE",
"389 345 CURVE SMOOTH",
"381 269 OFFCURVE",
"315 239 OFFCURVE",
"239 239 CURVE SMOOTH",
"166 239 OFFCURVE",
"79 311 OFFCURVE",
"87 422 CURVE SMOOTH",
"94 523 OFFCURVE",
"198 582 OFFCURVE",
"297 582 CURVE SMOOTH",
"499 582 OFFCURVE",
"679 433 OFFCURVE",
"885 453 CURVE SMOOTH",
"934 457 OFFCURVE",
"1034 497 OFFCURVE",
"1041 543 CURVE SMOOTH",
"1042 553 OFFCURVE",
"1027 555 OFFCURVE",
"1026 545 CURVE SMOOTH",
"1021 511 OFFCURVE",
"934 472 OFFCURVE",
"883 467 CURVE SMOOTH",
"684 449 OFFCURVE",
"503 627 OFFCURVE",
"300 627 CURVE SMOOTH",
"195 627 OFFCURVE",
"65 568 OFFCURVE",
"65 425 CURVE SMOOTH",
"65 290 OFFCURVE",
"156 224 OFFCURVE",
"239 224 CURVE SMOOTH"
);
}
);
width = 628;
},
{
hints = (
{
horizontal = 1;
place = "{-67, 18}";
type = Stem;
},
{
horizontal = 1;
place = "{55, 15}";
type = Stem;
},
{
horizontal = 1;
place = "{220, 15}";
type = Stem;
},
{
horizontal = 1;
place = "{336, -20}";
target = down;
type = TopGhost;
},
{
horizontal = 1;
place = "{445, 23}";
type = Stem;
},
{
horizontal = 1;
place = "{573, 16}";
type = Stem;
},
{
place = "{10, 56}";
type = Stem;
},
{
place = "{328, 30}";
type = Stem;
},
{
place = "{401, 15}";
type = Stem;
}
);
layerId = "2C4661F8-41E7-4C5B-84DD-C81E3350E201";
paths = (
{
closed = 1;
nodes = (
"347 -67 OFFCURVE",
"462 18 OFFCURVE",
"528 170 CURVE SMOOTH",
"575 276 OFFCURVE",
"601 395 OFFCURVE",
"662 480 CURVE",
"737 456 OFFCURVE",
"814 438 OFFCURVE",
"897 445 CURVE SMOOTH",
"945 450 OFFCURVE",
"1050 489 OFFCURVE",
"1058 538 CURVE SMOOTH",
"1060 555 OFFCURVE",
"1045 558 OFFCURVE",
"1043 542 CURVE SMOOTH",
"1039 513 OFFCURVE",
"956 474 OFFCURVE",
"905 470 CURVE SMOOTH",
"833 463 OFFCURVE",
"761 484 OFFCURVE",
"688 512 CURVE",
"700 525 OFFCURVE",
"713 537 OFFCURVE",
"728 548 CURVE SMOOTH",
"795 594 OFFCURVE",
"864 568 OFFCURVE",
"866 535 CURVE SMOOTH",
"867 519 OFFCURVE",
"884 522 OFFCURVE",
"882 539 CURVE SMOOTH",
"872 601 OFFCURVE",
"758 599 OFFCURVE",
"714 568 CURVE SMOOTH",
"695 555 OFFCURVE",
"678 540 OFFCURVE",
"661 523 CURVE",
"503 589 OFFCURVE",
"285 710 OFFCURVE",
"128 574 CURVE SMOOTH",
"39 497 OFFCURVE",
"30 371 OFFCURVE",
"92 291 CURVE",
"42 249 OFFCURVE",
"10 182 OFFCURVE",
"10 121 CURVE SMOOTH",
"10 33 OFFCURVE",
"62 -67 OFFCURVE",
"186 -67 CURVE SMOOTH"
);
},
{
closed = 1;
nodes = (
"200 235 OFFCURVE",
"159 256 OFFCURVE",
"133 288 CURVE",
"153 306 OFFCURVE",
"179 317 OFFCURVE",
"209 317 CURVE SMOOTH",
"271 317 OFFCURVE",
"306 285 OFFCURVE",
"321 247 CURVE",
"300 239 OFFCURVE",
"276 235 OFFCURVE",
"251 235 CURVE SMOOTH"
);
},
{
closed = 1;
nodes = (
"103 -48 OFFCURVE",
"66 38 OFFCURVE",
"66 118 CURVE SMOOTH",
"66 171 OFFCURVE",
"82 229 OFFCURVE",
"113 268 CURVE",
"146 239 OFFCURVE",
"193 220 OFFCURVE",
"251 220 CURVE SMOOTH",
"277 220 OFFCURVE",
"303 223 OFFCURVE",
"326 231 CURVE",
"329 217 OFFCURVE",
"330 203 OFFCURVE",
"328 189 CURVE SMOOTH",
"321 117 OFFCURVE",
"259 72 OFFCURVE",
"221 69 CURVE SMOOTH",
"179 67 OFFCURVE",
"151 107 OFFCURVE",
"155 120 CURVE SMOOTH",
"160 135 OFFCURVE",
"146 142 OFFCURVE",
"141 127 CURVE SMOOTH",
"129 87 OFFCURVE",
"177 52 OFFCURVE",
"223 55 CURVE SMOOTH",
"271 58 OFFCURVE",
"350 100 OFFCURVE",
"358 187 CURVE SMOOTH",
"360 205 OFFCURVE",
"358 225 OFFCURVE",
"352 243 CURVE",
"387 262 OFFCURVE",
"411 295 OFFCURVE",
"416 344 CURVE SMOOTH",
"418 360 OFFCURVE",
"403 361 OFFCURVE",
"401 345 CURVE SMOOTH",
"397 306 OFFCURVE",
"376 278 OFFCURVE",
"346 259 CURVE",
"325 302 OFFCURVE",
"281 336 OFFCURVE",
"209 336 CURVE SMOOTH",
"175 336 OFFCURVE",
"145 326 OFFCURVE",
"118 310 CURVE",
"78 380 OFFCURVE",
"93 481 OFFCURVE",
"192 540 CURVE SMOOTH",
"318 615 OFFCURVE",
"502 536 OFFCURVE",
"632 490 CURVE",
"563 407 OFFCURVE",
"513 299 OFFCURVE",
"464 209 CURVE SMOOTH",
"390 75 OFFCURVE",
"312 -48 OFFCURVE",
"191 -48 CURVE SMOOTH"
);
}
);
width = 628;
}
);
note = T;
unicode = 0054;
},
{
color = 3;
glyphname = U;
lastChange = "2021-09-06 07:47:45 +0000";
layers = (
{
hints = (
{
horizontal = 1;
place = "{-19, 19}";
type = Stem;
},
{
horizontal = 1;
place = "{287, 21}";
target = up;
type = BottomGhost;
},
{
horizontal = 1;
place = "{662, 16}";
type = Stem;
},
{
place = "{15, 37}";
type = Stem;
},
{
place = "{224, 13}";
type = Stem;
},
{
place = "{270, 40}";
type = Stem;
},
{
place = "{420, 40}";
type = Stem;
},
{
place = "{607, 26}";
type = Stem;
}
);
layerId = "77B3CCE3-6B8C-428A-918A-7EE02BACD86D";
paths = (
{
closed = 1;
nodes = (
"675 -130 OFFCURVE",
"683 -116 OFFCURVE",
"666 -110 CURVE SMOOTH",
"615 -94 OFFCURVE",
"622 107 OFFCURVE",
"694 311 CURVE SMOOTH",
"759 495 OFFCURVE",
"784 553 OFFCURVE",
"763 553 CURVE",
"763 553 OFFCURVE",
"738 566 OFFCURVE",
"727 534 CURVE SMOOTH",
"674 378 OFFCURVE",
"546 144 OFFCURVE",
"413 36 CURVE SMOOTH",
"355 -11 OFFCURVE",
"300 14 OFFCURVE",
"318 73 CURVE SMOOTH",
"333 123 OFFCURVE",
"366 200 OFFCURVE",
"414 304 CURVE SMOOTH",
"523 541 OFFCURVE",
"419 686 OFFCURVE",
"266 678 CURVE SMOOTH",
"100 670 OFFCURVE",
"-16 515 OFFCURVE",
"22 375 CURVE SMOOTH",
"59 237 OFFCURVE",
"253 266 OFFCURVE",
"235 422 CURVE SMOOTH",
"232 444 OFFCURVE",
"223 431 OFFCURVE",
"223 428 CURVE SMOOTH",
"236 277 OFFCURVE",
"88 275 OFFCURVE",
"58 384 CURVE SMOOTH",
"24 513 OFFCURVE",
"124 658 OFFCURVE",
"267 662 CURVE SMOOTH",
"368 665 OFFCURVE",
"489 542 OFFCURVE",
"369 296 CURVE SMOOTH",
"328 212 OFFCURVE",
"298 150 OFFCURVE",
"282 104 CURVE SMOOTH",
"237 -23 OFFCURVE",
"326 -58 OFFCURVE",
"426 28 CURVE SMOOTH",
"522 109 OFFCURVE",
"591 229 OFFCURVE",
"659 333 CURVE",
"635 254 OFFCURVE",
"554 -86 OFFCURVE",
"661 -125 CURVE SMOOTH"
);
}
);
width = 692;
},
{
hints = (
{
horizontal = 1;
place = "{-20, 27}";
type = Stem;
},
{
horizontal = 1;
place = "{283, 28}";
type = Stem;
},
{
horizontal = 1;
place = "{663, 15}";
type = Stem;
},
{
place = "{10, 55}";
type = Stem;
},
{
place = "{223, 15}";
type = Stem;
},
{
place = "{266, 65}";
type = Stem;
},
{
place = "{411, 65}";
type = Stem;
},
{
place = "{618, 42}";
type = Stem;
}
);
layerId = "2C4661F8-41E7-4C5B-84DD-C81E3350E201";
paths = (
{
closed = 1;
nodes = (
"806 546 OFFCURVE",
"804 553 OFFCURVE",
"795 554 CURVE",
"789 557 OFFCURVE",
"749 566 OFFCURVE",
"738 532 CURVE SMOOTH",
"685 378 OFFCURVE",
"589 174 OFFCURVE",
"425 43 CURVE SMOOTH",
"343 -23 OFFCURVE",
"317 8 OFFCURVE",
"338 74 CURVE SMOOTH",
"353 123 OFFCURVE",
"386 199 OFFCURVE",
"434 302 CURVE SMOOTH",
"538 524 OFFCURVE",
"436 678 OFFCURVE",
"266 678 CURVE SMOOTH",
"97 678 OFFCURVE",
"-21 514 OFFCURVE",
"17 372 CURVE SMOOTH",
"56 231 OFFCURVE",
"256 263 OFFCURVE",
"237 424 CURVE SMOOTH",
"235 447 OFFCURVE",
"223 432 OFFCURVE",
"223 422 CURVE",
"235 281 OFFCURVE",
"101 281 OFFCURVE",
"72 385 CURVE SMOOTH",
"39 509 OFFCURVE",
"127 658 OFFCURVE",
"268 663 CURVE SMOOTH",
"363 666 OFFCURVE",
"475 521 OFFCURVE",
"365 298 CURVE SMOOTH",
"323 214 OFFCURVE",
"294 153 OFFCURVE",
"277 107 CURVE SMOOTH",
"230 -26 OFFCURVE",
"343 -58 OFFCURVE",
"445 27 CURVE SMOOTH",
"533 102 OFFCURVE",
"598 206 OFFCURVE",
"661 302 CURVE",
"631 191 OFFCURVE",
"574 -97 OFFCURVE",
"675 -133 CURVE SMOOTH",
"696 -140 OFFCURVE",
"708 -120 OFFCURVE",
"684 -113 CURVE SMOOTH",
"640 -99 OFFCURVE",
"656 105 OFFCURVE",
"729 309 CURVE SMOOTH",
"761 400 OFFCURVE",
"784 460 OFFCURVE",
"796 497 CURVE SMOOTH",
"802 515 OFFCURVE",
"805 528 OFFCURVE",
"806 537 CURVE SMOOTH"
);
}
);
width = 745;
}
);
note = U;
unicode = 0055;
},
{
color = 3;
glyphname = V;
lastChange = "2021-09-06 07:47:45 +0000";
layers = (
{
hints = (
{
horizontal = 1;
place = "{188, 21}";
type = Stem;
},
{
horizontal = 1;
place = "{564, 16}";
type = Stem;
},
{
horizontal = 1;
place = "{650, 17}";
type = Stem;
},
{
place = "{38, 37}";
type = Stem;
},
{
place = "{247, 11}";
type = Stem;
},
{
place = "{329, 31}";
type = Stem;
},
{
place = "{443, 42}";
type = Stem;
},
{
place = "{813, 34}";
type = Stem;
}
);
layerId = "77B3CCE3-6B8C-428A-918A-7EE02BACD86D";
paths = (
{
closed = 1;
nodes = (
"633 129 OFFCURVE",
"815 356 OFFCURVE",
"844 530 CURVE SMOOTH",
"861 630 OFFCURVE",
"779 678 OFFCURVE",
"726 665 CURVE SMOOTH",
"697 658 OFFCURVE",
"672 639 OFFCURVE",
"719 648 CURVE SMOOTH",
"807 667 OFFCURVE",
"820 567 OFFCURVE",
"809 517 CURVE SMOOTH",
"765 316 OFFCURVE",
"602 128 OFFCURVE",
"488 33 CURVE SMOOTH",
"277 -142 OFFCURVE",
"378 102 OFFCURVE",
"430 206 CURVE SMOOTH",
"551 444 OFFCURVE",
"457 588 OFFCURVE",
"303 580 CURVE SMOOTH",
"136 572 OFFCURVE",
"13 416 OFFCURVE",
"42 277 CURVE SMOOTH",
"72 139 OFFCURVE",
"268 167 OFFCURVE",
"258 324 CURVE SMOOTH",
"257 346 OFFCURVE",
"247 333 OFFCURVE",
"247 330 CURVE SMOOTH",
"251 179 OFFCURVE",
"103 176 OFFCURVE",
"79 286 CURVE SMOOTH",
"52 415 OFFCURVE",
"160 560 OFFCURVE",
"304 564 CURVE SMOOTH",
"405 567 OFFCURVE",
"514 447 OFFCURVE",
"385 198 CURVE SMOOTH",
"309 51 OFFCURVE",
"281 -155 OFFCURVE",
"496 18 CURVE SMOOTH"
);
}
);
width = 742;
},
{
hints = (
{
horizontal = 1;
place = "{-48, 24}";
type = Stem;
},
{
horizontal = 1;
place = "{185, 27}";
type = Stem;
},
{
horizontal = 1;
place = "{566, 15}";
type = Stem;
},
{
horizontal = 1;
place = "{650, 17}";
type = Stem;
},
{
place = "{33, 57}";
type = Stem;
},
{
place = "{249, 14}";
type = Stem;
},
{
place = "{319, 61}";
type = Stem;
},
{
place = "{435, 67}";
type = Stem;
},
{
place = "{809, 53}";
type = Stem;
}
);
layerId = "2C4661F8-41E7-4C5B-84DD-C81E3350E201";
paths = (
{
closed = 1;
nodes = (
"877 629 OFFCURVE",
"781 679 OFFCURVE",
"725 665 CURVE SMOOTH",
"710 662 OFFCURVE",
"695 655 OFFCURVE",
"690 649 CURVE SMOOTH",
"685 643 OFFCURVE",
"689 637 OFFCURVE",
"696 636 CURVE SMOOTH",
"701 636 OFFCURVE",
"714 646 OFFCURVE",
"725 649 CURVE SMOOTH",
"806 665 OFFCURVE",
"816 566 OFFCURVE",
"805 516 CURVE SMOOTH",
"761 318 OFFCURVE",
"600 113 OFFCURVE",
"487 20 CURVE SMOOTH",
"466 3 OFFCURVE",
"371 -69 OFFCURVE",
"381 18 CURVE SMOOTH",
"386 69 OFFCURVE",
"424 154 OFFCURVE",
"450 205 CURVE SMOOTH",
"571 441 OFFCURVE",
"463 589 OFFCURVE",
"303 581 CURVE SMOOTH",
"133 573 OFFCURVE",
"7 417 OFFCURVE",
"37 276 CURVE SMOOTH",
"68 135 OFFCURVE",
"273 164 OFFCURVE",
"263 324 CURVE SMOOTH",
"262 341 OFFCURVE",
"249 332 OFFCURVE",
"249 322 CURVE SMOOTH",
"253 179 OFFCURVE",
"116 185 OFFCURVE",
"94 287 CURVE SMOOTH",
"67 411 OFFCURVE",
"163 561 OFFCURVE",
"304 566 CURVE SMOOTH",
"399 569 OFFCURVE",
"504 446 OFFCURVE",
"376 202 CURVE SMOOTH",
"338 129 OFFCURVE",
"311 41 OFFCURVE",
"322 -9 CURVE SMOOTH",
"334 -65 OFFCURVE",
"409 -66 OFFCURVE",
"514 18 CURVE SMOOTH",
"652 128 OFFCURVE",
"830 352 OFFCURVE",
"859 526 CURVE SMOOTH"
);
}
);
width = 742;
}
);
note = V;
unicode = 0056;
},
{
color = 3;
glyphname = W;
lastChange = "2021-09-06 07:47:45 +0000";
layers = (
{
hints = (
{
horizontal = 1;
place = "{-53, 19}";
type = Stem;
},
{
horizontal = 1;
place = "{217, 21}";
type = Stem;
},
{
horizontal = 1;
place = "{595, 14}";
type = Stem;
},
{
horizontal = 1;
place = "{665, 25}";
type = Stem;
},
{
place = "{11, 38}";
type = Stem;
},
{
place = "{222, 11}";
type = Stem;
},
{
place = "{269, 36}";
type = Stem;
},
{
place = "{424, 35}";
type = Stem;
},
{
place = "{567, 27}";
type = Stem;
}
);
layerId = "77B3CCE3-6B8C-428A-918A-7EE02BACD86D";
paths = (
{
closed = 1;
nodes = (
"489 65 OFFCURVE",
"589 217 OFFCURVE",
"617 260 CURVE",
"600 204 OFFCURVE",
"570 111 OFFCURVE",
"567 41 CURVE SMOOTH",
"561 -87 OFFCURVE",
"676 -81 OFFCURVE",
"746 0 CURVE SMOOTH",
"890 165 OFFCURVE",
"876 467 OFFCURVE",
"1031 620 CURVE SMOOTH",
"1111 698 OFFCURVE",
"1150 657 OFFCURVE",
"1144 635 CURVE",
"1144 622 OFFCURVE",
"1147 623 OFFCURVE",
"1153 623 CURVE SMOOTH",
"1158 623 OFFCURVE",
"1157 633 OFFCURVE",
"1158 635 CURVE",
"1162 668 OFFCURVE",
"1094 732 OFFCURVE",
"1013 650 CURVE SMOOTH",
"876 512 OFFCURVE",
"866 169 OFFCURVE",
"732 10 CURVE SMOOTH",
"675 -58 OFFCURVE",
"574 -76 OFFCURVE",
"597 57 CURVE SMOOTH",
"618 185 OFFCURVE",
"678 301 OFFCURVE",
"712 426 CURVE SMOOTH",
"726 474 OFFCURVE",
"679 460 OFFCURVE",
"670 437 CURVE SMOOTH",
"609 258 OFFCURVE",
"486 75 OFFCURVE",
"392 -2 CURVE SMOOTH",
"314 -65 OFFCURVE",
"285 -30 OFFCURVE",
"318 66 CURVE SMOOTH",
"345 144 OFFCURVE",
"458 333 OFFCURVE",
"458 467 CURVE SMOOTH",
"458 649 OFFCURVE",
"249 628 OFFCURVE",
"143 557 CURVE SMOOTH",
"55 498 OFFCURVE",
"0 398 OFFCURVE",
"12 306 CURVE SMOOTH",
"31 168 OFFCURVE",
"229 196 OFFCURVE",
"232 353 CURVE SMOOTH",
"232 375 OFFCURVE",
"221 362 OFFCURVE",
"221 359 CURVE SMOOTH",
"213 208 OFFCURVE",
"65 206 OFFCURVE",
"50 315 CURVE SMOOTH",
"40 390 OFFCURVE",
"88 480 OFFCURVE",
"156 536 CURVE SMOOTH",
"251 616 OFFCURVE",
"423 632 OFFCURVE",
"423 471 CURVE SMOOTH",
"423 345 OFFCURVE",
"310 157 OFFCURVE",
"282 83 CURVE SMOOTH",
"237 -38 OFFCURVE",
"305 -98 OFFCURVE",
"401 -13 CURVE SMOOTH"
);
}
);
width = 890;
},
{
hints = (
{
horizontal = 1;
place = "{-53, 26}";
type = Stem;
},
{
horizontal = 1;
place = "{214, 29}";
type = Stem;
},
{
horizontal = 1;
place = "{596, 14}";
type = Stem;
},
{
place = "{5, 48}";
type = Stem;
},
{
place = "{224, 13}";
type = Stem;
},
{
place = "{265, 63}";
type = Stem;
},
{
place = "{418, 65}";
type = Stem;
},
{
place = "{581, 52}";
type = Stem;
},
{
place = "{1180, 17}";
type = Stem;
}
);
layerId = "2C4661F8-41E7-4C5B-84DD-C81E3350E201";
paths = (
{
closed = 1;
nodes = (
"1199 654 OFFCURVE",
"1178 676 OFFCURVE",
"1154 685 CURVE SMOOTH",
"1125 696 OFFCURVE",
"1083 697 OFFCURVE",
"1041 655 CURVE SMOOTH",
"899 513 OFFCURVE",
"908 177 OFFCURVE",
"765 9 CURVE SMOOTH",
"706 -60 OFFCURVE",
"616 -60 OFFCURVE",
"637 59 CURVE SMOOTH",
"658 185 OFFCURVE",
"718 300 OFFCURVE",
"752 423 CURVE SMOOTH",
"767 477 OFFCURVE",
"696 466 OFFCURVE",
"686 437 CURVE SMOOTH",
"625 261 OFFCURVE",
"507 81 OFFCURVE",
"414 6 CURVE SMOOTH",
"342 -51 OFFCURVE",
"306 -37 OFFCURVE",
"343 68 CURVE SMOOTH",
"388 198 OFFCURVE",
"483 321 OFFCURVE",
"483 465 CURVE SMOOTH",
"483 571 OFFCURVE",
"394 610 OFFCURVE",
"315 610 CURVE SMOOTH",
"158 610 OFFCURVE",
"-16 473 OFFCURVE",
"7 305 CURVE SMOOTH",
"27 164 OFFCURVE",
"234 192 OFFCURVE",
"237 353 CURVE SMOOTH",
"237 380 OFFCURVE",
"225 364 OFFCURVE",
"224 354 CURVE SMOOTH",
"217 211 OFFCURVE",
"69 213 OFFCURVE",
"55 316 CURVE SMOOTH",
"36 455 OFFCURVE",
"180 596 OFFCURVE",
"312 596 CURVE SMOOTH",
"368 596 OFFCURVE",
"418 547 OFFCURVE",
"418 469 CURVE SMOOTH",
"418 337 OFFCURVE",
"323 207 OFFCURVE",
"278 87 CURVE SMOOTH",
"232 -34 OFFCURVE",
"323 -101 OFFCURVE",
"425 -12 CURVE SMOOTH",
"499 53 OFFCURVE",
"581 169 OFFCURVE",
"622 230 CURVE",
"605 172 OFFCURVE",
"584 105 OFFCURVE",
"582 45 CURVE SMOOTH",
"576 -91 OFFCURVE",
"715 -78 OFFCURVE",
"785 1 CURVE SMOOTH",
"932 167 OFFCURVE",
"913 461 OFFCURVE",
"1070 612 CURVE SMOOTH",
"1109 650 OFFCURVE",
"1137 658 OFFCURVE",
"1154 655 CURVE SMOOTH",
"1170 652 OFFCURVE",
"1179 640 OFFCURVE",
"1180 629 CURVE SMOOTH",
"1180 607 OFFCURVE",
"1197 613 OFFCURVE",
"1197 627 CURVE SMOOTH"
);
}
);
width = 938;
}
);
note = W;
unicode = 0057;
},
{
color = 3;
glyphname = X;
lastChange = "2021-09-06 07:47:45 +0000";
layers = (
{
hints = (
{
horizontal = 1;
place = "{-103, 12}";
type = Stem;
},
{
horizontal = 1;
place = "{-15, 16}";
type = Stem;
},
{
horizontal = 1;
place = "{265, 12}";
type = Stem;
},
{
horizontal = 1;
place = "{507, 13}";
type = Stem;
},
{
horizontal = 1;
place = "{626, -20}";
target = down;
type = TopGhost;
},
{
place = "{127, 22}";
type = Stem;
},
{
place = "{401, 21}";
type = Stem;
},
{
place = "{454, 38}";
type = Stem;
},
{
place = "{508, 45}";
type = Stem;
}
);
layerId = "77B3CCE3-6B8C-428A-918A-7EE02BACD86D";
paths = (
{
closed = 1;
nodes = (
"-59 -86 OFFCURVE",
"-65 -86 OFFCURVE",
"-72 -81 CURVE SMOOTH",
"-81 -75 OFFCURVE",
"-93 -71 OFFCURVE",
"-83 -88 CURVE SMOOTH",
"-74 -104 OFFCURVE",
"-10 -138 OFFCURVE",
"169 6 CURVE SMOOTH",
"306 115 OFFCURVE",
"437 241 OFFCURVE",
"470 273 CURVE",
"464 240 OFFCURVE",
"447 131 OFFCURVE",
"454 60 CURVE SMOOTH",
"459 14 OFFCURVE",
"485 -15 OFFCURVE",
"519 -15 CURVE SMOOTH",
"556 -15 OFFCURVE",
"588 9 OFFCURVE",
"615 33 CURVE SMOOTH",
"663 76 OFFCURVE",
"718 145 OFFCURVE",
"731 167 CURVE SMOOTH",
"740 185 OFFCURVE",
"728 187 OFFCURVE",
"722 177 CURVE SMOOTH",
"705 151 OFFCURVE",
"656 87 OFFCURVE",
"607 44 CURVE SMOOTH",
"548 -9 OFFCURVE",
"490 -30 OFFCURVE",
"492 86 CURVE SMOOTH",
"494 161 OFFCURVE",
"509 235 OFFCURVE",
"534 335 CURVE",
"564 361 OFFCURVE",
"802 584 OFFCURVE",
"887 598 CURVE SMOOTH",
"897 600 OFFCURVE",
"909 602 OFFCURVE",
"918 603 CURVE SMOOTH",
"933 604 OFFCURVE",
"935 626 OFFCURVE",
"912 626 CURVE SMOOTH",
"882 625 OFFCURVE",
"849 606 OFFCURVE",
"824 589 CURVE SMOOTH",
"702 507 OFFCURVE",
"634 448 OFFCURVE",
"540 364 CURVE",
"550 404 OFFCURVE",
"580 549 OFFCURVE",
"499 596 CURVE SMOOTH",
"425 639 OFFCURVE",
"243 623 OFFCURVE",
"158 487 CURVE SMOOTH",
"99 393 OFFCURVE",
"129 276 OFFCURVE",
"219 266 CURVE SMOOTH",
"318 255 OFFCURVE",
"391 332 OFFCURVE",
"415 405 CURVE SMOOTH",
"461 543 OFFCURVE",
"286 562 OFFCURVE",
"250 436 CURVE SMOOTH",
"245 420 OFFCURVE",
"257 411 OFFCURVE",
"262 433 CURVE SMOOTH",
"289 537 OFFCURVE",
"439 534 OFFCURVE",
"393 407 CURVE SMOOTH",
"368 340 OFFCURVE",
"300 264 OFFCURVE",
"223 278 CURVE SMOOTH",
"129 295 OFFCURVE",
"139 418 OFFCURVE",
"175 477 CURVE SMOOTH",
"264 625 OFFCURVE",
"508 663 OFFCURVE",
"509 490 CURVE SMOOTH",
"509 440 OFFCURVE",
"478 304 OFFCURVE",
"478 304 CURVE",
"478 302 OFFCURVE",
"290 117 OFFCURVE",
"145 9 CURVE SMOOTH",
"84 -37 OFFCURVE",
"-19 -104 OFFCURVE",
"-52 -89 CURVE SMOOTH"
);
}
);
width = 673;
},
{
hints = (
{
horizontal = 1;
place = "{-103, 21}";
type = Stem;
},
{
horizontal = 1;
place = "{-11, 26}";
type = Stem;
},
{
horizontal = 1;
place = "{260, 11}";
type = Stem;
},
{
horizontal = 1;
place = "{599, 18}";
type = Stem;
},
{
place = "{122, 32}";
type = Stem;
},
{
place = "{396, 36}";
type = Stem;
},
{
place = "{500, 69}";
type = Stem;
}
);
layerId = "2C4661F8-41E7-4C5B-84DD-C81E3350E201";
paths = (
{
closed = 1;
nodes = (
"951 610 OFFCURVE",
"950 628 OFFCURVE",
"935 628 CURVE SMOOTH",
"903 628 OFFCURVE",
"864 618 OFFCURVE",
"825 592 CURVE SMOOTH",
"708 514 OFFCURVE",
"652 459 OFFCURVE",
"563 382 CURVE",
"575 434 OFFCURVE",
"578 552 OFFCURVE",
"502 596 CURVE SMOOTH",
"425 639 OFFCURVE",
"240 623 OFFCURVE",
"154 487 CURVE SMOOTH",
"94 393 OFFCURVE",
"122 272 OFFCURVE",
"218 261 CURVE SMOOTH",
"321 250 OFFCURVE",
"400 328 OFFCURVE",
"425 401 CURVE SMOOTH",
"472 544 OFFCURVE",
"283 566 OFFCURVE",
"245 435 CURVE SMOOTH",
"238 412 OFFCURVE",
"254 403 OFFCURVE",
"261 430 CURVE SMOOTH",
"273 478 OFFCURVE",
"322 510 OFFCURVE",
"354 506 CURVE SMOOTH",
"459 496 OFFCURVE",
"349 251 OFFCURVE",
"224 273 CURVE SMOOTH",
"137 288 OFFCURVE",
"143 413 OFFCURVE",
"179 472 CURVE SMOOTH",
"223 543 OFFCURVE",
"305 593 OFFCURVE",
"376 599 CURVE SMOOTH",
"558 615 OFFCURVE",
"493 390 OFFCURVE",
"473 304 CURVE",
"473 301 OFFCURVE",
"285 122 OFFCURVE",
"142 16 CURVE SMOOTH",
"112 -6 OFFCURVE",
"-31 -109 OFFCURVE",
"-72 -75 CURVE SMOOTH",
"-80 -69 OFFCURVE",
"-98 -67 OFFCURVE",
"-87 -86 CURVE SMOOTH",
"-75 -107 OFFCURVE",
"-6 -135 OFFCURVE",
"172 6 CURVE SMOOTH",
"297 104 OFFCURVE",
"417 216 OFFCURVE",
"463 259 CURVE",
"456 216 OFFCURVE",
"443 125 OFFCURVE",
"449 62 CURVE SMOOTH",
"454 15 OFFCURVE",
"496 -11 OFFCURVE",
"534 -11 CURVE SMOOTH",
"573 -11 OFFCURVE",
"607 13 OFFCURVE",
"633 37 CURVE SMOOTH",
"681 80 OFFCURVE",
"737 148 OFFCURVE",
"750 171 CURVE SMOOTH",
"762 194 OFFCURVE",
"743 202 OFFCURVE",
"733 186 CURVE SMOOTH",
"716 160 OFFCURVE",
"667 97 OFFCURVE",
"619 55 CURVE SMOOTH",
"559 3 OFFCURVE",
"510 -12 OFFCURVE",
"512 93 CURVE SMOOTH",
"514 166 OFFCURVE",
"529 238 OFFCURVE",
"553 336 CURVE",
"642 413 OFFCURVE",
"824 597 OFFCURVE",
"938 608 CURVE SMOOTH"
);
}
);
width = 684;
}
);
note = X;
unicode = 0058;
},
{
color = 3;
glyphname = Y;
lastChange = "2021-09-06 07:47:45 +0000";
layers = (
{
hints = (
{
horizontal = 1;
place = "{-376, 14}";
type = Stem;
},
{
horizontal = 1;
place = "{-207, 12}";
type = Stem;
},
{
horizontal = 1;
place = "{-19, 19}";
type = Stem;
},
{
horizontal = 1;
place = "{101, 13}";
type = Stem;
},
{
horizontal = 1;
place = "{287, 21}";
target = up;
type = BottomGhost;
},
{
horizontal = 1;
place = "{662, 16}";
type = Stem;
},
{
place = "{40, 28}";
type = Stem;
},
{
place = "{224, 13}";
type = Stem;
},
{
place = "{270, 40}";
type = Stem;
},
{
place = "{413, 17}";
type = Stem;
}
);
layerId = "77B3CCE3-6B8C-428A-918A-7EE02BACD86D";
paths = (
{
closed = 1;
nodes = (
"538 -371 OFFCURVE",
"671 -62 OFFCURVE",
"695 238 CURVE SMOOTH",
"717 504 OFFCURVE",
"812 561 OFFCURVE",
"819 565 CURVE",
"834 571 OFFCURVE",
"835 591 OFFCURVE",
"822 585 CURVE SMOOTH",
"727 546 OFFCURVE",
"667 320 OFFCURVE",
"654 224 CURVE SMOOTH",
"629 45 OFFCURVE",
"535 -355 OFFCURVE",
"241 -361 CURVE SMOOTH",
"117 -364 OFFCURVE",
"43 -246 OFFCURVE",
"76 -99 CURVE SMOOTH",
"99 4 OFFCURVE",
"176 102 OFFCURVE",
"292 101 CURVE SMOOTH",
"359 101 OFFCURVE",
"427 46 OFFCURVE",
"410 -59 CURVE SMOOTH",
"385 -212 OFFCURVE",
"241 -206 OFFCURVE",
"227 -181 CURVE SMOOTH",
"222 -170 OFFCURVE",
"211 -173 OFFCURVE",
"217 -187 CURVE SMOOTH",
"232 -223 OFFCURVE",
"401 -226 OFFCURVE",
"427 -62 CURVE SMOOTH",
"445 49 OFFCURVE",
"369 114 OFFCURVE",
"291 114 CURVE SMOOTH",
"179 114 OFFCURVE",
"78 19 OFFCURVE",
"50 -96 CURVE SMOOTH",
"7 -264 OFFCURVE",
"110 -377 OFFCURVE",
"240 -376 CURVE SMOOTH"
);
},
{
closed = 1;
nodes = (
"548 132 OFFCURVE",
"646 307 OFFCURVE",
"733 441 CURVE",
"758 491 OFFCURVE",
"758 528 OFFCURVE",
"724 462 CURVE SMOOTH",
"660 340 OFFCURVE",
"524 126 OFFCURVE",
"413 36 CURVE SMOOTH",
"350 -14 OFFCURVE",
"289 -21 OFFCURVE",
"318 73 CURVE SMOOTH",
"333 123 OFFCURVE",
"366 200 OFFCURVE",
"414 304 CURVE SMOOTH",
"523 541 OFFCURVE",
"419 686 OFFCURVE",
"266 678 CURVE SMOOTH",
"100 670 OFFCURVE",
"-16 515 OFFCURVE",
"22 375 CURVE SMOOTH",
"59 237 OFFCURVE",
"253 266 OFFCURVE",
"235 422 CURVE SMOOTH",
"232 444 OFFCURVE",
"223 431 OFFCURVE",
"223 428 CURVE SMOOTH",
"236 277 OFFCURVE",
"88 275 OFFCURVE",
"58 384 CURVE SMOOTH",
"24 513 OFFCURVE",
"124 658 OFFCURVE",
"267 662 CURVE SMOOTH",
"368 665 OFFCURVE",
"489 542 OFFCURVE",
"369 296 CURVE SMOOTH",
"328 212 OFFCURVE",
"298 150 OFFCURVE",
"282 104 CURVE SMOOTH",
"237 -23 OFFCURVE",
"326 -58 OFFCURVE",
"426 28 CURVE SMOOTH"
);
}
);
width = 736;
},
{
hints = (
{
horizontal = 1;
place = "{-376, 24}";
type = Stem;
},
{
horizontal = 1;
place = "{-209, 13}";
type = Stem;
},
{
horizontal = 1;
place = "{280, 29}";
type = Stem;
},
{
horizontal = 1;
place = "{662, 16}";
type = Stem;
},
{
place = "{10, 47}";
type = Stem;
},
{
place = "{226, 16}";
type = Stem;
},
{
place = "{267, 79}";
type = Stem;
},
{
place = "{415, 76}";
type = Stem;
}
);
layerId = "2C4661F8-41E7-4C5B-84DD-C81E3350E201";
paths = (
{
closed = 1;
nodes = (
"877 588 OFFCURVE",
"870 595 OFFCURVE",
"860 591 CURVE SMOOTH",
"812 571 OFFCURVE",
"769 519 OFFCURVE",
"734 452 CURVE SMOOTH",
"670 329 OFFCURVE",
"534 120 OFFCURVE",
"427 32 CURVE",
"413 62 OFFCURVE",
"390 86 OFFCURVE",
"357 100 CURVE",
"374 148 OFFCURVE",
"405 210 OFFCURVE",
"450 306 CURVE SMOOTH",
"560 543 OFFCURVE",
"425 686 OFFCURVE",
"266 678 CURVE SMOOTH",
"96 670 OFFCURVE",
"-21 513 OFFCURVE",
"17 371 CURVE SMOOTH",
"55 230 OFFCURVE",
"259 258 OFFCURVE",
"240 420 CURVE SMOOTH",
"238 436 OFFCURVE",
"225 430 OFFCURVE",
"225 420 CURVE SMOOTH",
"237 278 OFFCURVE",
"91 279 OFFCURVE",
"63 383 CURVE SMOOTH",
"29 508 OFFCURVE",
"127 658 OFFCURVE",
"267 663 CURVE SMOOTH",
"363 666 OFFCURVE",
"484 539 OFFCURVE",
"364 297 CURVE SMOOTH",
"325 217 OFFCURVE",
"296 157 OFFCURVE",
"279 112 CURVE",
"170 105 OFFCURVE",
"73 19 OFFCURVE",
"45 -93 CURVE SMOOTH",
"2 -262 OFFCURVE",
"106 -377 OFFCURVE",
"240 -376 CURVE SMOOTH",
"543 -371 OFFCURVE",
"716 -65 OFFCURVE",
"740 231 CURVE SMOOTH",
"761 494 OFFCURVE",
"856 559 OFFCURVE",
"861 561 CURVE SMOOTH",
"870 565 OFFCURVE",
"875 573 OFFCURVE",
"876 580 CURVE SMOOTH"
);
},
{
closed = 1;
nodes = (
"360 -7 OFFCURVE",
"334 15 OFFCURVE",
"351 80 CURVE",
"374 67 OFFCURVE",
"393 45 OFFCURVE",
"402 15 CURVE"
);
},
{
closed = 1;
nodes = (
"611 47 OFFCURVE",
"561 -344 OFFCURVE",
"241 -352 CURVE SMOOTH",
"121 -354 OFFCURVE",
"58 -242 OFFCURVE",
"91 -98 CURVE SMOOTH",
"113 -3 OFFCURVE",
"173 87 OFFCURVE",
"274 96 CURVE",
"241 -12 OFFCURVE",
"321 -48 OFFCURVE",
"406 -4 CURVE",
"408 -20 OFFCURVE",
"408 -37 OFFCURVE",
"405 -56 CURVE SMOOTH",
"393 -130 OFFCURVE",
"352 -175 OFFCURVE",
"313 -189 CURVE SMOOTH",
"272 -203 OFFCURVE",
"232 -189 OFFCURVE",
"227 -180 CURVE SMOOTH",
"218 -164 OFFCURVE",
"204 -166 OFFCURVE",
"212 -185 CURVE SMOOTH",
"221 -208 OFFCURVE",
"272 -216 OFFCURVE",
"319 -201 CURVE SMOOTH",
"421 -169 OFFCURVE",
"459 -66 OFFCURVE",
"434 13 CURVE",
"439 17 OFFCURVE",
"444 21 OFFCURVE",
"449 25 CURVE SMOOTH",
"511 77 OFFCURVE",
"566 147 OFFCURVE",
"617 220 CURVE SMOOTH",
"641 254 OFFCURVE",
"665 289 OFFCURVE",
"688 324 CURVE"
);
}
);
width = 736;
}
);
note = Y;
unicode = 0059;
},
{
color = 3;
glyphname = Z;
lastChange = "2021-09-06 07:47:45 +0000";
layers = (
{
hints = (
{
horizontal = 1;
place = "{-113, 32}";
type = Stem;
},
{
horizontal = 1;
place = "{-6, 10}";
type = Stem;
},
{
horizontal = 1;
place = "{82, 19}";
type = Stem;
},
{
horizontal = 1;
place = "{363, 15}";
type = Stem;
},
{
horizontal = 1;
place = "{501, 14}";
type = Stem;
},
{
horizontal = 1;
place = "{571, 24}";
type = Stem;
},
{
place = "{22, 17}";
type = Stem;
},
{
place = "{273, 15}";
type = Stem;
},
{
place = "{521, 27}";
type = Stem;
},
{
place = "{764, 13}";
type = Stem;
},
{
place = "{955, 24}";
type = Stem;
}
);
layerId = "77B3CCE3-6B8C-428A-918A-7EE02BACD86D";
paths = (
{
closed = 1;
nodes = (
"873 -62 OFFCURVE",
"983 87 OFFCURVE",
"983 210 CURVE SMOOTH",
"983 324 OFFCURVE",
"909 378 OFFCURVE",
"806 378 CURVE SMOOTH",
"688 378 OFFCURVE",
"576 284 OFFCURVE",
"536 184 CURVE SMOOTH",
"490 68 OFFCURVE",
"566 -11 OFFCURVE",
"642 -6 CURVE SMOOTH",
"761 2 OFFCURVE",
"816 122 OFFCURVE",
"746 181 CURVE SMOOTH",
"735 191 OFFCURVE",
"731 175 OFFCURVE",
"737 173 CURVE",
"801 127 OFFCURVE",
"741 4 OFFCURVE",
"641 4 CURVE SMOOTH",
"555 4 OFFCURVE",
"528 105 OFFCURVE",
"565 182 CURVE SMOOTH",
"614 285 OFFCURVE",
"713 363 OFFCURVE",
"806 363 CURVE SMOOTH",
"905 363 OFFCURVE",
"959 319 OFFCURVE",
"959 210 CURVE SMOOTH",
"959 93 OFFCURVE",
"844 -49 OFFCURVE",
"687 -75 CURVE SMOOTH",
"505 -105 OFFCURVE",
"378 -10 OFFCURVE",
"253 52 CURVE",
"334 107 OFFCURVE",
"418 188 OFFCURVE",
"487 252 CURVE SMOOTH",
"588 345 OFFCURVE",
"672 452 OFFCURVE",
"765 515 CURVE",
"802 508 OFFCURVE",
"846 500 OFFCURVE",
"877 500 CURVE SMOOTH",
"933 500 OFFCURVE",
"980 522 OFFCURVE",
"980 556 CURVE SMOOTH",
"980 588 OFFCURVE",
"940 595 OFFCURVE",
"896 595 CURVE SMOOTH",
"851 595 OFFCURVE",
"796 570 OFFCURVE",
"743 535 CURVE",
"638 561 OFFCURVE",
"522 600 OFFCURVE",
"446 588 CURVE SMOOTH",
"323 569 OFFCURVE",
"256 495 OFFCURVE",
"277 410 CURVE SMOOTH",
"280 394 OFFCURVE",
"297 395 OFFCURVE",
"292 411 CURVE SMOOTH",
"274 467 OFFCURVE",
"312 546 OFFCURVE",
"451 560 CURVE SMOOTH",
"542 570 OFFCURVE",
"639 544 OFFCURVE",
"727 524 CURVE",
"620 448 OFFCURVE",
"518 333 OFFCURVE",
"462 277 CURVE SMOOTH",
"399 214 OFFCURVE",
"310 123 OFFCURVE",
"225 65 CURVE",
"203 75 OFFCURVE",
"159 94 OFFCURVE",
"116 100 CURVE SMOOTH",
"70 105 OFFCURVE",
"26 96 OFFCURVE",
"23 49 CURVE SMOOTH",
"21 20 OFFCURVE",
"46 -10 OFFCURVE",
"103 -10 CURVE SMOOTH",
"142 -10 OFFCURVE",
"187 10 OFFCURVE",
"233 39 CURVE",
"407 -45 OFFCURVE",
"522 -147 OFFCURVE",
"707 -102 CURVE SMOOTH"
);
},
{
closed = 1;
nodes = (
"57 11 OFFCURVE",
"40 30 OFFCURVE",
"40 48 CURVE SMOOTH",
"40 113 OFFCURVE",
"168 69 OFFCURVE",
"204 52 CURVE",
"165 28 OFFCURVE",
"131 11 OFFCURVE",
"98 11 CURVE SMOOTH"
);
},
{
closed = 1;
nodes = (
"852 514 OFFCURVE",
"819 519 OFFCURVE",
"783 526 CURVE",
"818 548 OFFCURVE",
"852 565 OFFCURVE",
"891 570 CURVE SMOOTH",
"989 582 OFFCURVE",
"966 517 OFFCURVE",
"881 515 CURVE SMOOTH"
);
}
);
width = 988;
},
{
hints = (
{
horizontal = 1;
place = "{-115, 42}";
type = Stem;
},
{
horizontal = 1;
place = "{-11, 20}";
type = Stem;
},
{
horizontal = 1;
place = "{82, 26}";
type = Stem;
},
{
horizontal = 1;
place = "{352, 29}";
type = Stem;
},
{
horizontal = 1;
place = "{488, 19}";
type = Stem;
},
{
horizontal = 1;
place = "{557, 38}";
type = Stem;
},
{
place = "{12, 17}";
type = Stem;
},
{
place = "{242, 16}";
type = Stem;
},
{
place = "{518, 51}";
type = Stem;
},
{
place = "{773, 19}";
type = Stem;
},
{
place = "{963, 55}";
type = Stem;
}
);
layerId = "2C4661F8-41E7-4C5B-84DD-C81E3350E201";
paths = (
{
closed = 1;
nodes = (
"1018 322 OFFCURVE",
"911 381 OFFCURVE",
"806 381 CURVE SMOOTH",
"685 381 OFFCURVE",
"572 283 OFFCURVE",
"531 183 CURVE SMOOTH",
"484 65 OFFCURVE",
"572 -17 OFFCURVE",
"652 -11 CURVE SMOOTH",
"773 -3 OFFCURVE",
"835 119 OFFCURVE",
"759 182 CURVE SMOOTH",
"742 196 OFFCURVE",
"737 172 OFFCURVE",
"749 166 CURVE",
"806 125 OFFCURVE",
"755 8 OFFCURVE",
"656 8 CURVE SMOOTH",
"577 8 OFFCURVE",
"548 102 OFFCURVE",
"585 177 CURVE SMOOTH",
"633 277 OFFCURVE",
"726 352 OFFCURVE",
"816 352 CURVE SMOOTH",
"912 352 OFFCURVE",
"964 311 OFFCURVE",
"964 206 CURVE SMOOTH",
"964 -44 OFFCURVE",
"642 -120 OFFCURVE",
"452 -46 CURVE SMOOTH",
"385 -20 OFFCURVE",
"324 12 OFFCURVE",
"264 42 CURVE",
"346 98 OFFCURVE",
"427 177 OFFCURVE",
"500 244 CURVE SMOOTH",
"592 328 OFFCURVE",
"672 432 OFFCURVE",
"776 502 CURVE",
"813 495 OFFCURVE",
"856 488 OFFCURVE",
"887 488 CURVE SMOOTH",
"943 488 OFFCURVE",
"995 509 OFFCURVE",
"995 548 CURVE SMOOTH",
"995 585 OFFCURVE",
"938 595 OFFCURVE",
"896 595 CURVE SMOOTH",
"849 595 OFFCURVE",
"769 571 OFFCURVE",
"717 536 CURVE",
"636 556 OFFCURVE",
"490 598 OFFCURVE",
"409 589 CURVE SMOOTH",
"276 575 OFFCURVE",
"225 494 OFFCURVE",
"246 407 CURVE SMOOTH",
"249 394 OFFCURVE",
"266 399 OFFCURVE",
"261 415 CURVE SMOOTH",
"244 466 OFFCURVE",
"289 537 OFFCURVE",
"426 551 CURVE SMOOTH",
"513 560 OFFCURVE",
"613 540 OFFCURVE",
"698 521 CURVE",
"594 447 OFFCURVE",
"522 368 OFFCURVE",
"433 280 CURVE SMOOTH",
"360 208 OFFCURVE",
"295 126 OFFCURVE",
"210 69 CURVE",
"187 79 OFFCURVE",
"153 101 OFFCURVE",
"111 106 CURVE SMOOTH",
"66 112 OFFCURVE",
"16 104 OFFCURVE",
"12 52 CURVE SMOOTH",
"10 20 OFFCURVE",
"39 -11 OFFCURVE",
"98 -11 CURVE SMOOTH",
"138 -11 OFFCURVE",
"198 -1 OFFCURVE",
"243 27 CURVE",
"329 -14 OFFCURVE",
"401 -54 OFFCURVE",
"474 -84 CURVE SMOOTH",
"691 -172 OFFCURVE",
"1018 -72 OFFCURVE",
"1018 206 CURVE SMOOTH"
);
},
{
closed = 1;
nodes = (
"957 529 OFFCURVE",
"923 508 OFFCURVE",
"881 507 CURVE SMOOTH",
"856 506 OFFCURVE",
"827 510 OFFCURVE",
"797 515 CURVE",
"827 533 OFFCURVE",
"867 552 OFFCURVE",
"902 556 CURVE SMOOTH",
"945 561 OFFCURVE",
"963 554 OFFCURVE",
"960 541 CURVE SMOOTH"
);
},
{
closed = 1;
nodes = (
"153 33 OFFCURVE",
"122 20 OFFCURVE",
"93 20 CURVE SMOOTH",
"52 20 OFFCURVE",
"30 37 OFFCURVE",
"30 50 CURVE SMOOTH",
"30 108 OFFCURVE",
"145 72 OFFCURVE",
"188 54 CURVE"
);
}
);
width = 1035;
}
);
note = Z;
unicode = 005A;
},
{
color = 3;
glyphname = a;
lastChange = "2021-09-06 07:47:45 +0000";
layers = (
{
hints = (
{
horizontal = 1;
place = "{-6, 17}";
type = Stem;
},
{
horizontal = 1;
place = "{278, 13}";
type = Stem;
},
{
place = "{25, 38}";
type = Stem;
},
{
place = "{218, 29}";
type = Stem;
}
);
layerId = "77B3CCE3-6B8C-428A-918A-7EE02BACD86D";
paths = (
{
closed = 1;
nodes = (
"160 -5 OFFCURVE",
"199 67 OFFCURVE",
"226 120 CURVE",
"205 53 OFFCURVE",
"219 -34 OFFCURVE",
"302 3 CURVE SMOOTH",
"360 28 OFFCURVE",
"431 110 OFFCURVE",
"466 166 CURVE SMOOTH",
"479 185 OFFCURVE",
"469 194 OFFCURVE",
"458 176 CURVE SMOOTH",
"421 118 OFFCURVE",
"354 41 OFFCURVE",
"297 16 CURVE SMOOTH",
"201 -24 OFFCURVE",
"268 159 OFFCURVE",
"288 199 CURVE SMOOTH",
"303 228 OFFCURVE",
"320 262 OFFCURVE",
"325 269 CURVE SMOOTH",
"345 298 OFFCURVE",
"294 289 OFFCURVE",
"288 276 CURVE SMOOTH",
"269 238 OFFCURVE",
"244 186 OFFCURVE",
"213 120 CURVE SMOOTH",
"194 80 OFFCURVE",
"152 9 OFFCURVE",
"101 9 CURVE SMOOTH",
"37 9 OFFCURVE",
"70 133 OFFCURVE",
"85 164 CURVE SMOOTH",
"114 227 OFFCURVE",
"178 329 OFFCURVE",
"248 247 CURVE SMOOTH",
"255 239 OFFCURVE",
"266 244 OFFCURVE",
"261 255 CURVE SMOOTH",
"257 265 OFFCURVE",
"242 288 OFFCURVE",
"196 291 CURVE SMOOTH",
"121 295 OFFCURVE",
"66 226 OFFCURVE",
"45 173 CURVE SMOOTH",
"29 134 OFFCURVE",
"23 100 OFFCURVE",
"25 73 CURVE SMOOTH",
"27 19 OFFCURVE",
"56 -5 OFFCURVE",
"91 -5 CURVE SMOOTH"
);
}
);
width = 410;
},
{
hints = (
{
horizontal = 1;
place = "{-7, 27}";
type = Stem;
},
{
horizontal = 1;
place = "{272, 19}";
type = Stem;
},
{
place = "{20, 48}";
type = Stem;
},
{
place = "{213, 46}";
type = Stem;
}
);
layerId = "2C4661F8-41E7-4C5B-84DD-C81E3350E201";
paths = (
{
closed = 1;
nodes = (
"486 191 OFFCURVE",
"475 199 OFFCURVE",
"461 177 CURVE SMOOTH",
"424 122 OFFCURVE",
"358 48 OFFCURVE",
"303 25 CURVE SMOOTH",
"262 9 OFFCURVE",
"254 33 OFFCURVE",
"262 79 CURVE SMOOTH",
"271 134 OFFCURVE",
"322 228 OFFCURVE",
"347 262 CURVE SMOOTH",
"371 296 OFFCURVE",
"293 293 OFFCURVE",
"284 274 CURVE SMOOTH",
"265 237 OFFCURVE",
"240 187 OFFCURVE",
"208 123 CURVE SMOOTH",
"132 -34 OFFCURVE",
"15 -25 OFFCURVE",
"95 157 CURVE SMOOTH",
"121 217 OFFCURVE",
"180 321 OFFCURVE",
"246 246 CURVE SMOOTH",
"254 237 OFFCURVE",
"270 242 OFFCURVE",
"266 253 CURVE SMOOTH",
"261 264 OFFCURVE",
"244 288 OFFCURVE",
"196 291 CURVE SMOOTH",
"118 295 OFFCURVE",
"62 226 OFFCURVE",
"40 174 CURVE SMOOTH",
"25 135 OFFCURVE",
"18 102 OFFCURVE",
"20 75 CURVE SMOOTH",
"22 21 OFFCURVE",
"53 -5 OFFCURVE",
"91 -5 CURVE SMOOTH",
"150 -5 OFFCURVE",
"188 43 OFFCURVE",
"214 89 CURVE",
"207 31 OFFCURVE",
"227 -30 OFFCURVE",
"304 3 CURVE SMOOTH",
"363 28 OFFCURVE",
"434 111 OFFCURVE",
"470 165 CURVE SMOOTH"
);
}
);
width = 415;
}
);
note = a;
unicode = 0061;
},
{
color = 3;
glyphname = ae;
lastChange = "2021-09-06 07:47:45 +0000";
layers = (
{
hints = (
{
horizontal = 1;
place = "{-5, 14}";
type = Stem;
},
{
horizontal = 1;
place = "{296, -20}";
target = down;
type = TopGhost;
},
{
place = "{25, 38}";
type = Stem;
},
{
place = "{227, 35}";
type = Stem;
},
{
place = "{411, 13}";
type = Stem;
}
);
layerId = "77B3CCE3-6B8C-428A-918A-7EE02BACD86D";
paths = (
{
closed = 1;
nodes = (
"344 -6 OFFCURVE",
"373 7 OFFCURVE",
"401 28 CURVE SMOOTH",
"447 61 OFFCURVE",
"489 107 OFFCURVE",
"527 159 CURVE SMOOTH",
"534 169 OFFCURVE",
"523 180 OFFCURVE",
"516 168 CURVE SMOOTH",
"477 106 OFFCURVE",
"378 5 OFFCURVE",
"315 5 CURVE SMOOTH",
"255 5 OFFCURVE",
"254 72 OFFCURVE",
"270 133 CURVE",
"328 112 OFFCURVE",
"400 160 OFFCURVE",
"417 217 CURVE SMOOTH",
"445 306 OFFCURVE",
"383 311 OFFCURVE",
"329 275 CURVE",
"337 297 OFFCURVE",
"294 288 OFFCURVE",
"288 276 CURVE SMOOTH",
"269 238 OFFCURVE",
"244 186 OFFCURVE",
"213 120 CURVE SMOOTH",
"194 80 OFFCURVE",
"152 9 OFFCURVE",
"101 9 CURVE SMOOTH",
"37 9 OFFCURVE",
"70 133 OFFCURVE",
"85 164 CURVE SMOOTH",
"114 227 OFFCURVE",
"178 329 OFFCURVE",
"248 247 CURVE SMOOTH",
"255 239 OFFCURVE",
"266 244 OFFCURVE",
"261 255 CURVE SMOOTH",
"257 265 OFFCURVE",
"242 288 OFFCURVE",
"196 291 CURVE SMOOTH",
"121 295 OFFCURVE",
"66 226 OFFCURVE",
"45 173 CURVE SMOOTH",
"29 134 OFFCURVE",
"23 100 OFFCURVE",
"25 73 CURVE SMOOTH",
"27 19 OFFCURVE",
"56 -5 OFFCURVE",
"91 -5 CURVE SMOOTH",
"160 -5 OFFCURVE",
"199 67 OFFCURVE",
"226 120 CURVE",
"226 120 OFFCURVE",
"227 120 OFFCURVE",
"228 120 CURVE",
"219 58 OFFCURVE",
"241 -12 OFFCURVE",
"318 -8 CURVE SMOOTH"
);
},
{
closed = 1;
nodes = (
"284 168 OFFCURVE",
"304 208 OFFCURVE",
"328 239 CURVE SMOOTH",
"378 308 OFFCURVE",
"439 307 OFFCURVE",
"396 218 CURVE SMOOTH",
"379 182 OFFCURVE",
"311 114 OFFCURVE",
"274 142 CURVE"
);
}
);
width = 475;
},
{
hints = (
{
horizontal = 1;
place = "{-5, 17}";
type = Stem;
},
{
horizontal = 1;
place = "{124, 17}";
type = Stem;
},
{
horizontal = 1;
place = "{272, 19}";
type = Stem;
},
{
place = "{20, 48}";
type = Stem;
},
{
place = "{418, 26}";
type = Stem;
}
);
layerId = "2C4661F8-41E7-4C5B-84DD-C81E3350E201";
paths = (
{
closed = 1;
nodes = (
"556 171 OFFCURVE",
"547 187 OFFCURVE",
"536 170 CURVE SMOOTH",
"475 80 OFFCURVE",
"390 14 OFFCURVE",
"330 14 CURVE SMOOTH",
"279 14 OFFCURVE",
"274 68 OFFCURVE",
"289 127 CURVE",
"350 110 OFFCURVE",
"420 158 OFFCURVE",
"438 213 CURVE SMOOTH",
"465 297 OFFCURVE",
"401 311 OFFCURVE",
"342 285 CURVE",
"325 292 OFFCURVE",
"290 286 OFFCURVE",
"284 274 CURVE SMOOTH",
"265 237 OFFCURVE",
"240 187 OFFCURVE",
"208 123 CURVE SMOOTH",
"132 -34 OFFCURVE",
"15 -25 OFFCURVE",
"95 157 CURVE SMOOTH",
"121 217 OFFCURVE",
"180 321 OFFCURVE",
"246 246 CURVE SMOOTH",
"254 237 OFFCURVE",
"270 242 OFFCURVE",
"266 253 CURVE SMOOTH",
"261 264 OFFCURVE",
"244 288 OFFCURVE",
"196 291 CURVE SMOOTH",
"118 295 OFFCURVE",
"62 226 OFFCURVE",
"40 174 CURVE SMOOTH",
"25 135 OFFCURVE",
"18 102 OFFCURVE",
"20 75 CURVE SMOOTH",
"22 21 OFFCURVE",
"53 -5 OFFCURVE",
"91 -5 CURVE SMOOTH",
"150 -5 OFFCURVE",
"188 43 OFFCURVE",
"214 89 CURVE",
"208 36 OFFCURVE",
"262 -11 OFFCURVE",
"314 -8 CURVE SMOOTH",
"413 -2 OFFCURVE",
"491 80 OFFCURVE",
"545 155 CURVE SMOOTH"
);
},
{
closed = 1;
nodes = (
"390 183 OFFCURVE",
"327 127 OFFCURVE",
"294 144 CURVE",
"298 170 OFFCURVE",
"315 205 OFFCURVE",
"337 233 CURVE SMOOTH",
"362 267 OFFCURVE",
"389 281 OFFCURVE",
"402 279 CURVE SMOOTH",
"411 277 OFFCURVE",
"429 263 OFFCURVE",
"407 218 CURVE SMOOTH"
);
}
);
width = 495;
}
);
note = ae;
unicode = 00E6;
},
{
color = 3;
glyphname = b;
lastChange = "2021-09-06 07:47:45 +0000";
layers = (
{
hints = (
{
horizontal = 1;
place = "{-5, 14}";
type = Stem;
},
{
horizontal = 1;
place = "{54, 14}";
type = Stem;
},
{
horizontal = 1;
place = "{546, 15}";
type = Stem;
},
{
place = "{26, 36}";
type = Stem;
},
{
place = "{314, 13}";
type = Stem;
}
);
layerId = "77B3CCE3-6B8C-428A-918A-7EE02BACD86D";
paths = (
{
closed = 1;
nodes = (
"151 -5 OFFCURVE",
"192 51 OFFCURVE",
"216 99 CURVE",
"219 70 OFFCURVE",
"238 54 OFFCURVE",
"262 54 CURVE SMOOTH",
"323 54 OFFCURVE",
"375 130 OFFCURVE",
"404 175 CURVE SMOOTH",
"411 188 OFFCURVE",
"398 191 OFFCURVE",
"391 179 CURVE SMOOTH",
"368 142 OFFCURVE",
"316 68 OFFCURVE",
"265 68 CURVE SMOOTH",
"241 68 OFFCURVE",
"226 88 OFFCURVE",
"227 116 CURVE",
"246 159 OFFCURVE",
"256 177 OFFCURVE",
"259 202 CURVE SMOOTH",
"265 259 OFFCURVE",
"212 251 OFFCURVE",
"208 198 CURVE SMOOTH",
"207 182 OFFCURVE",
"209 138 OFFCURVE",
"213 123 CURVE",
"188 73 OFFCURVE",
"152 9 OFFCURVE",
"101 9 CURVE SMOOTH",
"37 9 OFFCURVE",
"65 144 OFFCURVE",
"87 193 CURVE",
"216 317 OFFCURVE",
"293 420 OFFCURVE",
"318 484 CURVE SMOOTH",
"346 556 OFFCURVE",
"307 586 OFFCURVE",
"245 538 CURVE SMOOTH",
"158 470 OFFCURVE",
"70 243 OFFCURVE",
"45 173 CURVE SMOOTH",
"26 121 OFFCURVE",
"-2 -5 OFFCURVE",
"91 -5 CURVE SMOOTH"
);
},
{
closed = 1;
nodes = (
"138 316 OFFCURVE",
"206 446 OFFCURVE",
"272 524 CURVE SMOOTH",
"311 570 OFFCURVE",
"325 537 OFFCURVE",
"305 488 CURVE SMOOTH",
"277 422 OFFCURVE",
"193 313 OFFCURVE",
"98 219 CURVE"
);
}
);
width = 341;
},
{
hints = (
{
horizontal = 1;
place = "{-5, 19}";
type = Stem;
},
{
horizontal = 1;
place = "{53, 18}";
type = Stem;
},
{
horizontal = 1;
place = "{561, -20}";
target = down;
type = TopGhost;
},
{
place = "{21, 52}";
type = Stem;
},
{
place = "{200, 70}";
type = Stem;
},
{
place = "{331, 19}";
type = Stem;
}
);
layerId = "2C4661F8-41E7-4C5B-84DD-C81E3350E201";
paths = (
{
closed = 1;
nodes = (
"424 192 OFFCURVE",
"411 201 OFFCURVE",
"400 184 CURVE SMOOTH",
"376 148 OFFCURVE",
"326 72 OFFCURVE",
"278 72 CURVE SMOOTH",
"258 72 OFFCURVE",
"237 92 OFFCURVE",
"237 118 CURVE",
"242 128 OFFCURVE",
"255 148 OFFCURVE",
"263 170 CURVE SMOOTH",
"297 269 OFFCURVE",
"200 274 OFFCURVE",
"200 186 CURVE SMOOTH",
"200 163 OFFCURVE",
"202 134 OFFCURVE",
"211 115 CURVE",
"194 84 OFFCURVE",
"153 14 OFFCURVE",
"106 14 CURVE SMOOTH",
"45 14 OFFCURVE",
"85 144 OFFCURVE",
"106 192 CURVE",
"169 250 OFFCURVE",
"226 299 OFFCURVE",
"265 345 CURVE SMOOTH",
"294 379 OFFCURVE",
"388 505 OFFCURVE",
"335 550 CURVE SMOOTH",
"315 567 OFFCURVE",
"279 565 OFFCURVE",
"242 537 CURVE SMOOTH",
"154 470 OFFCURVE",
"66 245 OFFCURVE",
"40 177 CURVE SMOOTH",
"21 123 OFFCURVE",
"-6 -5 OFFCURVE",
"91 -5 CURVE SMOOTH",
"148 -5 OFFCURVE",
"194 44 OFFCURVE",
"219 88 CURVE",
"226 66 OFFCURVE",
"245 53 OFFCURVE",
"267 53 CURVE SMOOTH",
"331 53 OFFCURVE",
"385 131 OFFCURVE",
"413 175 CURVE SMOOTH"
);
},
{
closed = 1;
nodes = (
"243 354 OFFCURVE",
"182 292 OFFCURVE",
"122 231 CURVE",
"146 287 OFFCURVE",
"192 379 OFFCURVE",
"240 448 CURVE SMOOTH",
"338 592 OFFCURVE",
"363 538 OFFCURVE",
"290 426 CURVE SMOOTH"
);
}
);
width = 352;
}
);
note = b;
unicode = 0062;
},
{
color = 3;
glyphname = c;
lastChange = "2021-09-06 07:47:45 +0000";
layers = (
{
hints = (
{
horizontal = 1;
place = "{-9, 15}";
type = Stem;
},
{
horizontal = 1;
place = "{287, -20}";
target = down;
type = TopGhost;
},
{
place = "{27, 38}";
type = Stem;
},
{
place = "{224, 25}";
type = Stem;
}
);
layerId = "77B3CCE3-6B8C-428A-918A-7EE02BACD86D";
paths = (
{
closed = 1;
nodes = (
"267 78 OFFCURVE",
"305 124 OFFCURVE",
"341 178 CURVE SMOOTH",
"343 182 OFFCURVE",
"331 188 OFFCURVE",
"327 183 CURVE SMOOTH",
"293 130 OFFCURVE",
"262 91 OFFCURVE",
"217 54 CURVE SMOOTH",
"101 -43 OFFCURVE",
"27 15 OFFCURVE",
"85 164 CURVE SMOOTH",
"105 214 OFFCURVE",
"154 283 OFFCURVE",
"203 273 CURVE SMOOTH",
"241 265 OFFCURVE",
"212 218 OFFCURVE",
"231 212 CURVE SMOOTH",
"246 207 OFFCURVE",
"276 277 OFFCURVE",
"192 286 CURVE SMOOTH",
"116 294 OFFCURVE",
"66 226 OFFCURVE",
"45 173 CURVE SMOOTH",
"-19 14 OFFCURVE",
"101 -66 OFFCURVE",
"222 39 CURVE SMOOTH"
);
}
);
width = 276;
},
{
hints = (
{
horizontal = 1;
place = "{-9, 24}";
type = Stem;
},
{
horizontal = 1;
place = "{287, -20}";
target = down;
type = TopGhost;
},
{
place = "{23, 62}";
type = Stem;
}
);
layerId = "2C4661F8-41E7-4C5B-84DD-C81E3350E201";
paths = (
{
closed = 1;
nodes = (
"362 182 OFFCURVE",
"352 192 OFFCURVE",
"345 182 CURVE SMOOTH",
"313 132 OFFCURVE",
"283 96 OFFCURVE",
"239 60 CURVE SMOOTH",
"128 -29 OFFCURVE",
"48 21 OFFCURVE",
"105 161 CURVE SMOOTH",
"125 211 OFFCURVE",
"164 270 OFFCURVE",
"198 269 CURVE SMOOTH",
"223 268 OFFCURVE",
"217 236 OFFCURVE",
"219 220 CURVE SMOOTH",
"222 190 OFFCURVE",
"257 199 OFFCURVE",
"254 241 CURVE SMOOTH",
"253 261 OFFCURVE",
"236 281 OFFCURVE",
"193 286 CURVE SMOOTH",
"113 295 OFFCURVE",
"62 225 OFFCURVE",
"40 174 CURVE SMOOTH",
"-26 15 OFFCURVE",
"115 -67 OFFCURVE",
"240 38 CURVE SMOOTH",
"286 77 OFFCURVE",
"329 128 OFFCURVE",
"356 172 CURVE SMOOTH"
);
}
);
width = 297;
}
);
note = c;
unicode = 0063;
},
{
color = 3;
glyphname = d;
lastChange = "2021-09-06 07:47:45 +0000";
layers = (
{
hints = (
{
horizontal = 1;
place = "{-7, 18}";
type = Stem;
},
{
horizontal = 1;
place = "{279, 12}";
type = Stem;
},
{
horizontal = 1;
place = "{542, 22}";
type = Stem;
},
{
place = "{18, 39}";
type = Stem;
},
{
place = "{199, 31}";
type = Stem;
},
{
place = "{456, 14}";
type = Stem;
}
);
layerId = "77B3CCE3-6B8C-428A-918A-7EE02BACD86D";
paths = (
{
closed = 1;
nodes = (
"156 4 OFFCURVE",
"196 85 OFFCURVE",
"205 104 CURVE",
"189 39 OFFCURVE",
"207 -34 OFFCURVE",
"290 3 CURVE SMOOTH",
"349 28 OFFCURVE",
"422 112 OFFCURVE",
"457 168 CURVE SMOOTH",
"470 188 OFFCURVE",
"460 196 OFFCURVE",
"449 178 CURVE SMOOTH",
"414 124 OFFCURVE",
"343 40 OFFCURVE",
"286 16 CURVE SMOOTH",
"190 -24 OFFCURVE",
"246 163 OFFCURVE",
"260 200 CURVE",
"373 309 OFFCURVE",
"431 401 OFFCURVE",
"457 464 CURVE SMOOTH",
"503 579 OFFCURVE",
"415 592 OFFCURVE",
"366 519 CURVE SMOOTH",
"315 444 OFFCURVE",
"281 348 OFFCURVE",
"251 259 CURVE",
"241 270 OFFCURVE",
"231 289 OFFCURVE",
"190 291 CURVE SMOOTH",
"115 296 OFFCURVE",
"60 226 OFFCURVE",
"39 173 CURVE SMOOTH",
"-8 55 OFFCURVE",
"31 -14 OFFCURVE",
"100 -4 CURVE SMOOTH"
);
},
{
closed = 1;
nodes = (
"44 -2 OFFCURVE",
"48 99 OFFCURVE",
"79 164 CURVE SMOOTH",
"101 213 OFFCURVE",
"144 297 OFFCURVE",
"206 275 CURVE SMOOTH",
"228 267 OFFCURVE",
"240 255 OFFCURVE",
"247 246 CURVE",
"212 147 OFFCURVE",
"165 23 OFFCURVE",
"101 10 CURVE SMOOTH"
);
},
{
closed = 1;
nodes = (
"302 316 OFFCURVE",
"341 410 OFFCURVE",
"393 494 CURVE SMOOTH",
"444 575 OFFCURVE",
"476 545 OFFCURVE",
"442 468 CURVE SMOOTH",
"412 401 OFFCURVE",
"348 303 OFFCURVE",
"265 220 CURVE"
);
}
);
width = 400;
},
{
hints = (
{
horizontal = 1;
place = "{-7, 27}";
type = Stem;
},
{
horizontal = 1;
place = "{274, 22}";
type = Stem;
},
{
horizontal = 1;
place = "{536, 26}";
type = Stem;
},
{
place = "{25, 57}";
type = Stem;
},
{
place = "{214, 57}";
type = Stem;
},
{
place = "{487, 23}";
type = Stem;
}
);
layerId = "2C4661F8-41E7-4C5B-84DD-C81E3350E201";
paths = (
{
closed = 1;
nodes = (
"506 183 OFFCURVE",
"493 191 OFFCURVE",
"484 178 CURVE SMOOTH",
"445 115 OFFCURVE",
"374 49 OFFCURVE",
"319 26 CURVE SMOOTH",
"278 9 OFFCURVE",
"267 35 OFFCURVE",
"271 82 CURVE SMOOTH",
"275 126 OFFCURVE",
"296 179 OFFCURVE",
"303 198 CURVE",
"416 305 OFFCURVE",
"467 396 OFFCURVE",
"496 459 CURVE SMOOTH",
"530 532 OFFCURVE",
"498 565 OFFCURVE",
"453 562 CURVE SMOOTH",
"378 557 OFFCURVE",
"336 455 OFFCURVE",
"310 396 CURVE SMOOTH",
"289 347 OFFCURVE",
"274 293 OFFCURVE",
"264 269 CURVE",
"253 279 OFFCURVE",
"211 294 OFFCURVE",
"185 296 CURVE SMOOTH",
"17 306 OFFCURVE",
"-41 -27 OFFCURVE",
"120 -4 CURVE SMOOTH",
"163 2 OFFCURVE",
"198 63 OFFCURVE",
"216 94 CURVE",
"204 29 OFFCURVE",
"257 -31 OFFCURVE",
"334 3 CURVE SMOOTH",
"394 29 OFFCURVE",
"461 113 OFFCURVE",
"496 168 CURVE SMOOTH"
);
},
{
closed = 1;
nodes = (
"452 419 OFFCURVE",
"392 318 OFFCURVE",
"317 241 CURVE",
"352 328 OFFCURVE",
"377 418 OFFCURVE",
"418 493 CURVE SMOOTH",
"455 561 OFFCURVE",
"507 542 OFFCURVE",
"479 480 CURVE SMOOTH"
);
},
{
closed = 1;
nodes = (
"220 147 OFFCURVE",
"179 32 OFFCURVE",
"120 19 CURVE SMOOTH",
"96 15 OFFCURVE",
"84 31 OFFCURVE",
"82 62 CURVE SMOOTH",
"77 127 OFFCURVE",
"139 299 OFFCURVE",
"219 270 CURVE SMOOTH",
"239 264 OFFCURVE",
"249 254 OFFCURVE",
"256 246 CURVE"
);
}
);
width = 439;
}
);
note = d;
unicode = 0064;
},
{
color = 3;
glyphname = eth;
lastChange = "2021-09-06 07:47:45 +0000";
layers = (
{
layerId = "77B3CCE3-6B8C-428A-918A-7EE02BACD86D";
paths = (
{
closed = 1;
nodes = (
"181 0 OFFCURVE",
"243 125 OFFCURVE",
"265 209 CURVE SMOOTH",
"275 248 OFFCURVE",
"281 288 OFFCURVE",
"281 328 CURVE SMOOTH",
"281 380 OFFCURVE",
"265 446 OFFCURVE",
"237 486 CURVE",
"258 500 OFFCURVE",
"279 514 OFFCURVE",
"303 528 CURVE SMOOTH",
"322 538 OFFCURVE",
"311 544 OFFCURVE",
"294 535 CURVE SMOOTH",
"226 499 LINE",
"202 525 OFFCURVE",
"169 540 OFFCURVE",
"125 540 CURVE SMOOTH",
"112 540 OFFCURVE",
"75 540 OFFCURVE",
"75 521 CURVE SMOOTH",
"75 517 OFFCURVE",
"80 515 OFFCURVE",
"85 515 CURVE SMOOTH",
"95 515 OFFCURVE",
"104 519 OFFCURVE",
"116 519 CURVE SMOOTH",
"147 519 OFFCURVE",
"173 504 OFFCURVE",
"193 480 CURVE",
"127 444 LINE SMOOTH",
"106 432 OFFCURVE",
"121 415 OFFCURVE",
"130 422 CURVE SMOOTH",
"150 435 OFFCURVE",
"179 453 OFFCURVE",
"203 469 CURVE",
"246 435 OFFCURVE",
"259 302 OFFCURVE",
"241 219 CURVE",
"241 232 LINE SMOOTH",
"241 261 OFFCURVE",
"226 281 OFFCURVE",
"195 281 CURVE SMOOTH",
"126 281 OFFCURVE",
"50 201 OFFCURVE",
"32 138 CURVE SMOOTH",
"26 119 OFFCURVE",
"24 101 OFFCURVE",
"24 82 CURVE SMOOTH",
"24 48 OFFCURVE",
"38 0 OFFCURVE",
"79 0 CURVE SMOOTH"
);
},
{
closed = 1;
nodes = (
"59 7 OFFCURVE",
"55 28 OFFCURVE",
"55 42 CURVE SMOOTH",
"55 71 OFFCURVE",
"63 107 OFFCURVE",
"73 133 CURVE SMOOTH",
"88 176 OFFCURVE",
"148 273 OFFCURVE",
"201 273 CURVE SMOOTH",
"228 273 OFFCURVE",
"234 250 OFFCURVE",
"234 227 CURVE SMOOTH",
"234 199 OFFCURVE",
"225 167 OFFCURVE",
"209 141 CURVE SMOOTH",
"187 102 OFFCURVE",
"133 7 OFFCURVE",
"81 7 CURVE SMOOTH"
);
}
);
width = 277;
},
{
layerId = "2C4661F8-41E7-4C5B-84DD-C81E3350E201";
paths = (
{
closed = 1;
nodes = (
"335 532 OFFCURVE",
"321 544 OFFCURVE",
"304 535 CURVE SMOOTH",
"236 499 LINE",
"212 525 OFFCURVE",
"169 540 OFFCURVE",
"125 540 CURVE SMOOTH",
"112 540 OFFCURVE",
"75 540 OFFCURVE",
"75 521 CURVE SMOOTH",
"75 517 OFFCURVE",
"80 515 OFFCURVE",
"85 515 CURVE SMOOTH",
"95 515 OFFCURVE",
"104 519 OFFCURVE",
"116 519 CURVE SMOOTH",
"147 519 OFFCURVE",
"173 504 OFFCURVE",
"193 480 CURVE",
"127 444 LINE SMOOTH",
"106 432 OFFCURVE",
"124 409 OFFCURVE",
"133 416 CURVE SMOOTH",
"153 429 OFFCURVE",
"182 447 OFFCURVE",
"206 463 CURVE",
"249 429 OFFCURVE",
"259 302 OFFCURVE",
"241 219 CURVE",
"241 232 LINE SMOOTH",
"241 261 OFFCURVE",
"226 281 OFFCURVE",
"195 281 CURVE SMOOTH",
"126 281 OFFCURVE",
"50 201 OFFCURVE",
"32 138 CURVE SMOOTH",
"26 119 OFFCURVE",
"24 101 OFFCURVE",
"24 82 CURVE SMOOTH",
"24 48 OFFCURVE",
"38 0 OFFCURVE",
"79 0 CURVE SMOOTH",
"181 0 OFFCURVE",
"253 125 OFFCURVE",
"275 209 CURVE SMOOTH",
"285 248 OFFCURVE",
"291 288 OFFCURVE",
"291 328 CURVE SMOOTH",
"291 380 OFFCURVE",
"278 440 OFFCURVE",
"250 480 CURVE",
"271 494 OFFCURVE",
"292 508 OFFCURVE",
"316 522 CURVE SMOOTH"
);
},
{
closed = 1;
nodes = (
"228 196 OFFCURVE",
"220 166 OFFCURVE",
"206 141 CURVE SMOOTH",
"187 104 OFFCURVE",
"138 14 OFFCURVE",
"91 14 CURVE SMOOTH",
"72 14 OFFCURVE",
"68 34 OFFCURVE",
"68 47 CURVE SMOOTH",
"68 75 OFFCURVE",
"76 109 OFFCURVE",
"84 133 CURVE SMOOTH",
"98 174 OFFCURVE",
"151 266 OFFCURVE",
"198 266 CURVE SMOOTH",
"222 266 OFFCURVE",
"228 244 OFFCURVE",
"228 222 CURVE SMOOTH"
);
}
);
width = 277;
}
);
unicode = 00F0;
},
{
color = 3;
glyphname = e;
lastChange = "2021-09-06 07:47:45 +0000";
layers = (
{
hints = (
{
horizontal = 1;
place = "{-8, 13}";
type = Stem;
},
{
horizontal = 1;
place = "{296, -20}";
target = down;
type = TopGhost;
},
{
place = "{28, 35}";
type = Stem;
},
{
place = "{213, 13}";
type = Stem;
}
);
layerId = "77B3CCE3-6B8C-428A-918A-7EE02BACD86D";
paths = (
{
closed = 1;
nodes = (
"146 -6 OFFCURVE",
"174 7 OFFCURVE",
"203 28 CURVE SMOOTH",
"249 61 OFFCURVE",
"294 111 OFFCURVE",
"327 159 CURVE SMOOTH",
"334 169 OFFCURVE",
"326 180 OFFCURVE",
"319 168 CURVE SMOOTH",
"282 110 OFFCURVE",
"179 5 OFFCURVE",
"117 5 CURVE SMOOTH",
"57 5 OFFCURVE",
"56 72 OFFCURVE",
"72 133 CURVE",
"130 112 OFFCURVE",
"201 160 OFFCURVE",
"219 217 CURVE SMOOTH",
"251 318 OFFCURVE",
"165 311 OFFCURVE",
"108 258 CURVE SMOOTH",
"79 232 OFFCURVE",
"53 195 OFFCURVE",
"38 152 CURVE SMOOTH",
"15 85 OFFCURVE",
"29 -13 OFFCURVE",
"120 -8 CURVE SMOOTH"
);
},
{
closed = 1;
nodes = (
"86 168 OFFCURVE",
"106 208 OFFCURVE",
"129 239 CURVE SMOOTH",
"180 308 OFFCURVE",
"241 307 OFFCURVE",
"198 218 CURVE SMOOTH",
"180 182 OFFCURVE",
"113 114 OFFCURVE",
"76 142 CURVE"
);
}
);
width = 276;
},
{
hints = (
{
horizontal = 1;
place = "{-8, 22}";
type = Stem;
},
{
horizontal = 1;
place = "{124, 17}";
type = Stem;
},
{
place = "{23, 65}";
type = Stem;
},
{
place = "{224, 26}";
type = Stem;
}
);
layerId = "2C4661F8-41E7-4C5B-84DD-C81E3350E201";
paths = (
{
closed = 1;
nodes = (
"362 171 OFFCURVE",
"353 187 OFFCURVE",
"342 170 CURVE SMOOTH",
"281 80 OFFCURVE",
"196 14 OFFCURVE",
"137 14 CURVE SMOOTH",
"86 14 OFFCURVE",
"80 68 OFFCURVE",
"95 127 CURVE",
"156 110 OFFCURVE",
"226 158 OFFCURVE",
"244 213 CURVE SMOOTH",
"278 319 OFFCURVE",
"167 313 OFFCURVE",
"104 258 CURVE SMOOTH",
"75 232 OFFCURVE",
"48 196 OFFCURVE",
"33 153 CURVE SMOOTH",
"10 89 OFFCURVE",
"22 -13 OFFCURVE",
"120 -8 CURVE SMOOTH",
"219 -2 OFFCURVE",
"297 80 OFFCURVE",
"351 155 CURVE SMOOTH"
);
},
{
closed = 1;
nodes = (
"196 183 OFFCURVE",
"133 127 OFFCURVE",
"100 144 CURVE",
"104 170 OFFCURVE",
"122 205 OFFCURVE",
"143 233 CURVE SMOOTH",
"168 267 OFFCURVE",
"195 281 OFFCURVE",
"208 279 CURVE SMOOTH",
"217 277 OFFCURVE",
"236 263 OFFCURVE",
"213 218 CURVE SMOOTH"
);
}
);
width = 302;
}
);
note = e;
unicode = 0065;
},
{
glyphname = schwa;
lastChange = "2021-09-06 08:03:55 +0000";
layers = (
{
hints = (
{
horizontal = 1;
place = "{281, -13}";
type = Stem;
},
{
horizontal = 1;
place = "{-23, 21}";
target = up;
type = BottomGhost;
},
{
place = "{300, -35}";
type = Stem;
},
{
place = "{115, -13}";
type = Stem;
}
);
layerId = "77B3CCE3-6B8C-428A-918A-7EE02BACD86D";
paths = (
{
closed = 1;
nodes = (
"240 57 OFFCURVE",
"266 94 OFFCURVE",
"281 137 CURVE SMOOTH",
"304 204 OFFCURVE",
"301 304 OFFCURVE",
"199 304 CURVE SMOOTH",
"173 304 OFFCURVE",
"140 287 OFFCURVE",
"99 242 CURVE SMOOTH",
"78 219 OFFCURVE",
"61 197 OFFCURVE",
"30 151 CURVE",
"26 145 OFFCURVE",
"34 135 OFFCURVE",
"42 146 CURVE",
"85 210 OFFCURVE",
"143 291 OFFCURVE",
"202 291 CURVE SMOOTH",
"262 291 OFFCURVE",
"263 217 OFFCURVE",
"247 156 CURVE",
"189 177 OFFCURVE",
"118 129 OFFCURVE",
"100 72 CURVE SMOOTH",
"68 -29 OFFCURVE",
"154 -22 OFFCURVE",
"211 31 CURVE SMOOTH"
);
},
{
closed = 1;
nodes = (
"139 -19 OFFCURVE",
"78 -18 OFFCURVE",
"121 71 CURVE SMOOTH",
"139 107 OFFCURVE",
"206 175 OFFCURVE",
"243 147 CURVE",
"233 121 OFFCURVE",
"213 81 OFFCURVE",
"190 50 CURVE SMOOTH"
);
}
);
width = 312;
},
{
background = {
paths = (
{
closed = 1;
nodes = (
"240 57 OFFCURVE",
"266 94 OFFCURVE",
"281 137 CURVE SMOOTH",
"304 204 OFFCURVE",
"301 304 OFFCURVE",
"199 304 CURVE SMOOTH",
"173 304 OFFCURVE",
"140 287 OFFCURVE",
"99 242 CURVE SMOOTH",
"78 219 OFFCURVE",
"61 197 OFFCURVE",
"30 151 CURVE",
"26 145 OFFCURVE",
"34 135 OFFCURVE",
"42 146 CURVE",
"85 210 OFFCURVE",
"143 291 OFFCURVE",
"202 291 CURVE SMOOTH",
"262 291 OFFCURVE",
"263 217 OFFCURVE",
"247 156 CURVE",
"189 177 OFFCURVE",
"118 129 OFFCURVE",
"100 72 CURVE SMOOTH",
"68 -29 OFFCURVE",
"154 -22 OFFCURVE",
"211 31 CURVE SMOOTH"
);
},
{
closed = 1;
nodes = (
"139 -19 OFFCURVE",
"78 -18 OFFCURVE",
"121 71 CURVE SMOOTH",
"139 107 OFFCURVE",
"206 175 OFFCURVE",
"243 147 CURVE",
"233 121 OFFCURVE",
"213 81 OFFCURVE",
"190 50 CURVE SMOOTH"
);
}
);
};
hints = (
{
horizontal = 1;
place = "{281, -22}";
type = Stem;
},
{
horizontal = 1;
place = "{149, -17}";
type = Stem;
},
{
place = "{297, -65}";
type = Stem;
},
{
place = "{96, -26}";
type = Stem;
}
);
layerId = "2C4661F8-41E7-4C5B-84DD-C81E3350E201";
paths = (
{
closed = 1;
nodes = (
"290 64 OFFCURVE",
"317 100 OFFCURVE",
"332 143 CURVE SMOOTH",
"355 207 OFFCURVE",
"329 307 OFFCURVE",
"231 307 CURVE SMOOTH",
"143 307 OFFCURVE",
"100 256 OFFCURVE",
"27 152 CURVE",
"19 141 OFFCURVE",
"31 130 OFFCURVE",
"40 144 CURVE",
"108 240 OFFCURVE",
"160 285 OFFCURVE",
"214 285 CURVE SMOOTH",
"265 285 OFFCURVE",
"285 228 OFFCURVE",
"270 169 CURVE",
"209 186 OFFCURVE",
"139 138 OFFCURVE",
"121 83 CURVE SMOOTH",
"87 -23 OFFCURVE",
"198 -17 OFFCURVE",
"261 38 CURVE SMOOTH"
);
},
{
closed = 1;
nodes = (
"148 19 OFFCURVE",
"129 33 OFFCURVE",
"152 78 CURVE SMOOTH",
"169 113 OFFCURVE",
"232 169 OFFCURVE",
"265 152 CURVE",
"261 126 OFFCURVE",
"243 91 OFFCURVE",
"222 63 CURVE SMOOTH",
"197 29 OFFCURVE",
"170 15 OFFCURVE",
"157 17 CURVE SMOOTH"
);
}
);
width = 357;
}
);
unicode = 0259;
},
{
color = 3;
glyphname = f;
lastChange = "2021-09-06 07:47:45 +0000";
layers = (
{
hints = (
{
horizontal = 1;
place = "{542, 22}";
type = Stem;
},
{
place = "{-79, 22}";
type = Stem;
},
{
place = "{61, 19}";
type = Stem;
},
{
place = "{316, 14}";
type = Stem;
}
);
layerId = "77B3CCE3-6B8C-428A-918A-7EE02BACD86D";
paths = (
{
closed = 1;
nodes = (
"-21 -274 OFFCURVE",
"47 -239 OFFCURVE",
"74 -130 CURVE SMOOTH",
"91 -58 OFFCURVE",
"68 -3 OFFCURVE",
"55 14 CURVE",
"81 14 OFFCURVE",
"175 0 OFFCURVE",
"289 163 CURVE SMOOTH",
"293 170 OFFCURVE",
"285 183 OFFCURVE",
"277 171 CURVE SMOOTH",
"219 84 OFFCURVE",
"130 15 OFFCURVE",
"45 28 CURVE SMOOTH",
"44 28 OFFCURVE",
"25 60 OFFCURVE",
"9 46 CURVE SMOOTH",
"2 39 OFFCURVE",
"3 23 OFFCURVE",
"18 18 CURVE SMOOTH",
"29 13 OFFCURVE",
"39 13 OFFCURVE",
"41 13 CURVE",
"50 6 OFFCURVE",
"74 -53 OFFCURVE",
"51 -131 CURVE SMOOTH",
"17 -247 OFFCURVE",
"-25 -261 OFFCURVE",
"-43 -255 CURVE SMOOTH",
"-86 -241 OFFCURVE",
"-21 -52 OFFCURVE",
"39 87 CURVE SMOOTH",
"57 128 OFFCURVE",
"74 165 OFFCURVE",
"89 192 CURVE",
"211 300 OFFCURVE",
"281 401 OFFCURVE",
"312 464 CURVE SMOOTH",
"367 579 OFFCURVE",
"281 592 OFFCURVE",
"226 519 CURVE SMOOTH",
"168 444 OFFCURVE",
"73 237 OFFCURVE",
"33 149 CURVE SMOOTH",
"-75 -87 OFFCURVE",
"-112 -253 OFFCURVE",
"-46 -268 CURVE SMOOTH"
);
},
{
closed = 1;
nodes = (
"145 316 OFFCURVE",
"191 410 OFFCURVE",
"251 494 CURVE SMOOTH",
"309 575 OFFCURVE",
"338 545 OFFCURVE",
"298 468 CURVE SMOOTH",
"263 401 OFFCURVE",
"191 303 OFFCURVE",
"100 220 CURVE"
);
}
);
width = 233;
},
{
hints = (
{
horizontal = 1;
place = "{11, 22}";
type = Stem;
},
{
horizontal = 1;
place = "{534, 31}";
type = Stem;
},
{
place = "{-84, 35}";
type = Stem;
},
{
place = "{75, 29}";
type = Stem;
},
{
place = "{339, 19}";
type = Stem;
}
);
layerId = "2C4661F8-41E7-4C5B-84DD-C81E3350E201";
paths = (
{
closed = 1;
nodes = (
"402 577 OFFCURVE",
"282 596 OFFCURVE",
"222 518 CURVE SMOOTH",
"164 443 OFFCURVE",
"69 238 OFFCURVE",
"28 151 CURVE SMOOTH",
"-78 -78 OFFCURVE",
"-121 -251 OFFCURVE",
"-47 -268 CURVE SMOOTH",
"-18 -275 OFFCURVE",
"72 -236 OFFCURVE",
"99 -127 CURVE SMOOTH",
"114 -64 OFFCURVE",
"98 -13 OFFCURVE",
"84 10 CURVE",
"90 10 OFFCURVE",
"98 10 OFFCURVE",
"107 11 CURVE SMOOTH",
"195 19 OFFCURVE",
"267 94 OFFCURVE",
"312 162 CURVE SMOOTH",
"320 174 OFFCURVE",
"311 190 OFFCURVE",
"300 172 CURVE SMOOTH",
"241 78 OFFCURVE",
"149 22 OFFCURVE",
"68 34 CURVE",
"65 37 LINE",
"29 84 OFFCURVE",
"-9 55 OFFCURVE",
"15 29 CURVE SMOOTH",
"28 15 OFFCURVE",
"44 10 OFFCURVE",
"58 9 CURVE",
"66 0 OFFCURVE",
"88 -54 OFFCURVE",
"66 -126 CURVE SMOOTH",
"53 -173 OFFCURVE",
"34 -204 OFFCURVE",
"16 -224 CURVE SMOOTH",
"-29 -274 OFFCURVE",
"-56 -256 OFFCURVE",
"-47 -213 CURVE SMOOTH",
"-37 -161 OFFCURVE",
"0 -70 OFFCURVE",
"34 15 CURVE SMOOTH",
"58 74 OFFCURVE",
"83 132 OFFCURVE",
"113 188 CURVE",
"235 295 OFFCURVE",
"311 390 OFFCURVE",
"341 453 CURVE SMOOTH"
);
},
{
closed = 1;
nodes = (
"286 401 OFFCURVE",
"212 310 OFFCURVE",
"131 232 CURVE",
"173 319 OFFCURVE",
"221 412 OFFCURVE",
"275 487 CURVE SMOOTH",
"324 555 OFFCURVE",
"365 550 OFFCURVE",
"318 461 CURVE SMOOTH"
);
}
);
width = 259;
}
);
note = f;
unicode = 0066;
},
{
color = 3;
glyphname = g;
lastChange = "2021-09-06 07:47:45 +0000";
layers = (
{
hints = (
{
horizontal = 1;
place = "{-319, 15}";
type = Stem;
},
{
horizontal = 1;
place = "{-5, 14}";
type = Stem;
},
{
horizontal = 1;
place = "{278, 13}";
type = Stem;
},
{
place = "{-114, 19}";
type = Stem;
},
{
place = "{25, 38}";
type = Stem;
}
);
layerId = "77B3CCE3-6B8C-428A-918A-7EE02BACD86D";
paths = (
{
closed = 1;
nodes = (
"60 -278 OFFCURVE",
"165 -206 OFFCURVE",
"198 -50 CURVE",
"314 28 OFFCURVE",
"368 103 OFFCURVE",
"413 163 CURVE SMOOTH",
"423 176 OFFCURVE",
"412 184 OFFCURVE",
"405 175 CURVE SMOOTH",
"352 101 OFFCURVE",
"310 44 OFFCURVE",
"203 -27 CURVE",
"218 47 OFFCURVE",
"224 122 OFFCURVE",
"264 197 CURVE SMOOTH",
"286 238 OFFCURVE",
"320 264 OFFCURVE",
"339 283 CURVE SMOOTH",
"363 307 OFFCURVE",
"348 347 OFFCURVE",
"311 306 CURVE SMOOTH",
"286 278 OFFCURVE",
"254 211 OFFCURVE",
"213 120 CURVE SMOOTH",
"195 80 OFFCURVE",
"152 9 OFFCURVE",
"101 9 CURVE SMOOTH",
"37 9 OFFCURVE",
"70 133 OFFCURVE",
"85 164 CURVE SMOOTH",
"114 227 OFFCURVE",
"178 329 OFFCURVE",
"248 247 CURVE SMOOTH",
"255 239 OFFCURVE",
"266 244 OFFCURVE",
"261 255 CURVE SMOOTH",
"257 265 OFFCURVE",
"242 288 OFFCURVE",
"196 291 CURVE SMOOTH",
"121 295 OFFCURVE",
"66 226 OFFCURVE",
"45 173 CURVE SMOOTH",
"29 134 OFFCURVE",
"23 100 OFFCURVE",
"25 73 CURVE SMOOTH",
"27 19 OFFCURVE",
"56 -5 OFFCURVE",
"91 -5 CURVE SMOOTH",
"140 -5 OFFCURVE",
"175 32 OFFCURVE",
"200 73 CURVE",
"191 35 OFFCURVE",
"178 -9 OFFCURVE",
"168 -42 CURVE",
"94 -89 OFFCURVE",
"-27 -141 OFFCURVE",
"-82 -206 CURVE SMOOTH",
"-161 -300 OFFCURVE",
"-79 -342 OFFCURVE",
"-2 -306 CURVE SMOOTH"
);
},
{
closed = 1;
nodes = (
"-57 -318 OFFCURVE",
"-141 -311 OFFCURVE",
"-63 -215 CURVE SMOOTH",
"-13 -152 OFFCURVE",
"90 -104 OFFCURVE",
"160 -63 CURVE",
"120 -175 OFFCURVE",
"63 -245 OFFCURVE",
"-7 -288 CURVE SMOOTH"
);
}
);
width = 358;
},
{
hints = (
{
horizontal = 1;
place = "{-322, 22}";
type = Stem;
},
{
horizontal = 1;
place = "{-10, 24}";
type = Stem;
},
{
horizontal = 1;
place = "{268, 23}";
type = Stem;
},
{
place = "{-117, 25}";
type = Stem;
},
{
place = "{21, 60}";
type = Stem;
}
);
layerId = "2C4661F8-41E7-4C5B-84DD-C81E3350E201";
paths = (
{
closed = 1;
nodes = (
"461 175 OFFCURVE",
"445 179 OFFCURVE",
"435 165 CURVE SMOOTH",
"370 75 OFFCURVE",
"319 30 OFFCURVE",
"242 -22 CURVE",
"259 64 OFFCURVE",
"256 177 OFFCURVE",
"321 242 CURVE SMOOTH",
"334 255 OFFCURVE",
"353 263 OFFCURVE",
"377 275 CURVE SMOOTH",
"421 297 OFFCURVE",
"373 360 OFFCURVE",
"322 305 CURVE SMOOTH",
"281 260 OFFCURVE",
"273 230 OFFCURVE",
"223 120 CURVE SMOOTH",
"205 80 OFFCURVE",
"163 14 OFFCURVE",
"116 14 CURVE SMOOTH",
"55 14 OFFCURVE",
"91 130 OFFCURVE",
"105 159 CURVE SMOOTH",
"133 219 OFFCURVE",
"177 317 OFFCURVE",
"244 241 CURVE SMOOTH",
"252 231 OFFCURVE",
"274 233 OFFCURVE",
"266 253 CURVE SMOOTH",
"261 264 OFFCURVE",
"244 289 OFFCURVE",
"196 291 CURVE SMOOTH",
"118 296 OFFCURVE",
"62 225 OFFCURVE",
"40 172 CURVE SMOOTH",
"14 106 OFFCURVE",
"-1 -10 OFFCURVE",
"106 -10 CURVE SMOOTH",
"148 -10 OFFCURVE",
"184 24 OFFCURVE",
"208 55 CURVE",
"200 26 OFFCURVE",
"182 -21 OFFCURVE",
"175 -46 CURVE",
"101 -92 OFFCURVE",
"-30 -134 OFFCURVE",
"-85 -199 CURVE SMOOTH",
"-172 -301 OFFCURVE",
"-63 -351 OFFCURVE",
"36 -306 CURVE SMOOTH",
"98 -278 OFFCURVE",
"203 -206 OFFCURVE",
"238 -52 CURVE",
"337 13 OFFCURVE",
"384 69 OFFCURVE",
"447 156 CURVE SMOOTH"
);
},
{
closed = 1;
nodes = (
"126 -175 OFFCURVE",
"72 -239 OFFCURVE",
"5 -279 CURVE SMOOTH",
"-59 -318 OFFCURVE",
"-137 -310 OFFCURVE",
"-59 -214 CURVE SMOOTH",
"-35 -184 OFFCURVE",
"3 -157 OFFCURVE",
"44 -133 CURVE SMOOTH",
"80 -111 OFFCURVE",
"133 -91 OFFCURVE",
"166 -73 CURVE"
);
}
);
width = 398;
}
);
note = g;
unicode = 0067;
},
{
color = 3;
glyphname = h;
lastChange = "2021-09-06 07:47:45 +0000";
layers = (
{
hints = (
{
horizontal = 1;
place = "{-11, 15}";
type = Stem;
},
{
horizontal = 1;
place = "{281, 14}";
type = Stem;
},
{
horizontal = 1;
place = "{542, 22}";
type = Stem;
},
{
place = "{170, 29}";
type = Stem;
},
{
place = "{266, 29}";
type = Stem;
},
{
place = "{316, 14}";
type = Stem;
}
);
layerId = "77B3CCE3-6B8C-428A-918A-7EE02BACD86D";
paths = (
{
closed = 1;
nodes = (
"-18 -13 OFFCURVE",
"2 -3 OFFCURVE",
"19 -3 CURVE",
"19 -3 OFFCURVE",
"34 43 OFFCURVE",
"39 58 CURVE SMOOTH",
"70 158 OFFCURVE",
"330 391 OFFCURVE",
"251 222 CURVE SMOOTH",
"228 174 OFFCURVE",
"191 124 OFFCURVE",
"176 75 CURVE SMOOTH",
"148 -20 OFFCURVE",
"217 -30 OFFCURVE",
"279 14 CURVE SMOOTH",
"324 46 OFFCURVE",
"376 105 OFFCURVE",
"413 159 CURVE SMOOTH",
"418 166 OFFCURVE",
"407 175 OFFCURVE",
"401 166 CURVE SMOOTH",
"360 106 OFFCURVE",
"308 47 OFFCURVE",
"264 19 CURVE SMOOTH",
"225 -5 OFFCURVE",
"186 -5 OFFCURVE",
"204 51 CURVE SMOOTH",
"221 106 OFFCURVE",
"254 158 OFFCURVE",
"279 209 CURVE SMOOTH",
"315 280 OFFCURVE",
"285 319 OFFCURVE",
"215 280 CURVE SMOOTH",
"155 246 OFFCURVE",
"88 159 OFFCURVE",
"61 121 CURVE",
"76 160 OFFCURVE",
"86 193 OFFCURVE",
"100 220 CURVE",
"222 329 OFFCURVE",
"281 401 OFFCURVE",
"312 464 CURVE SMOOTH",
"367 579 OFFCURVE",
"281 592 OFFCURVE",
"226 519 CURVE SMOOTH",
"102 357 OFFCURVE",
"25 102 OFFCURVE",
"-18 -13 CURVE"
);
},
{
closed = 1;
nodes = (
"157 345 OFFCURVE",
"191 410 OFFCURVE",
"251 494 CURVE SMOOTH",
"309 575 OFFCURVE",
"338 545 OFFCURVE",
"298 468 CURVE SMOOTH",
"263 401 OFFCURVE",
"202 332 OFFCURVE",
"112 248 CURVE"
);
}
);
width = 362;
},
{
hints = (
{
horizontal = 1;
place = "{-11, 25}";
type = Stem;
},
{
horizontal = 1;
place = "{536, 31}";
type = Stem;
},
{
place = "{176, 60}";
type = Stem;
},
{
place = "{263, 64}";
type = Stem;
},
{
place = "{329, 28}";
type = Stem;
}
);
layerId = "2C4661F8-41E7-4C5B-84DD-C81E3350E201";
paths = (
{
closed = 1;
nodes = (
"458 171 OFFCURVE",
"449 184 OFFCURVE",
"439 171 CURVE SMOOTH",
"398 112 OFFCURVE",
"344 54 OFFCURVE",
"301 28 CURVE SMOOTH",
"267 7 OFFCURVE",
"223 6 OFFCURVE",
"238 53 CURVE SMOOTH",
"256 108 OFFCURVE",
"288 157 OFFCURVE",
"314 208 CURVE SMOOTH",
"351 280 OFFCURVE",
"304 326 OFFCURVE",
"228 284 CURVE SMOOTH",
"179 257 OFFCURVE",
"126 197 OFFCURVE",
"93 155 CURVE",
"101 175 LINE SMOOTH",
"107 191 OFFCURVE",
"112 205 OFFCURVE",
"119 218 CURVE",
"241 325 OFFCURVE",
"309 398 OFFCURVE",
"340 461 CURVE SMOOTH",
"401 585 OFFCURVE",
"282 596 OFFCURVE",
"222 518 CURVE SMOOTH",
"159 438 OFFCURVE",
"109 335 OFFCURVE",
"69 238 CURVE SMOOTH",
"29 141 OFFCURVE",
"-1 50 OFFCURVE",
"-27 -18 CURVE",
"-16 -12 OFFCURVE",
"18 -3 OFFCURVE",
"38 -3 CURVE",
"38 -3 OFFCURVE",
"54 45 OFFCURVE",
"59 60 CURVE SMOOTH",
"74 108 OFFCURVE",
"139 187 OFFCURVE",
"198 236 CURVE SMOOTH",
"233 265 OFFCURVE",
"287 294 OFFCURVE",
"251 219 CURVE SMOOTH",
"228 170 OFFCURVE",
"197 132 OFFCURVE",
"182 80 CURVE SMOOTH",
"151 -23 OFFCURVE",
"250 -29 OFFCURVE",
"312 14 CURVE SMOOTH",
"358 47 OFFCURVE",
"412 105 OFFCURVE",
"449 158 CURVE SMOOTH"
);
},
{
closed = 1;
nodes = (
"276 407 OFFCURVE",
"215 334 OFFCURVE",
"135 260 CURVE",
"175 342 OFFCURVE",
"216 413 OFFCURVE",
"270 487 CURVE SMOOTH",
"326 565 OFFCURVE",
"349 545 OFFCURVE",
"308 467 CURVE SMOOTH"
);
}
);
width = 398;
}
);
note = h;
unicode = 0068;
},
